<svg width="548" height="591" viewBox="0 0 548 591" fill="none" xmlns="http://www.w3.org/2000/svg">
<g clip-path="url(#clip0_419_82)" filter="url(#filter0_d_419_82)">
<path d="M237.663 187.051C237.258 183.005 235.942 179.103 233.812 175.64C231.683 172.176 228.796 169.241 225.369 167.055C221.942 164.869 218.064 163.488 214.026 163.018C209.989 162.548 205.898 162.999 202.06 164.339L204.009 164.538C195.269 166.287 187.503 171.25 182.243 178.448C179.674 182.046 177.908 186.155 177.065 190.496C176.222 194.836 176.322 199.308 177.357 203.606C179.566 212.144 186.085 219.55 194.43 222.392C199.071 223.972 204.052 224.165 208.951 224.332C212.131 224.44 215.37 224.537 218.436 223.684C222.379 222.462 225.846 220.044 228.357 216.766C230.844 213.499 232.822 209.874 234.226 206.015C236.602 199.98 238.308 193.505 237.663 187.051Z" fill="#2F2E41"/>
<path d="M306.951 580.389C300.023 554.32 315.409 528.912 333.388 511.322C342.969 501.948 353.64 493.799 364.046 485.381C374.031 477.393 383.539 468.826 392.523 459.725C409.87 441.963 425.002 421.664 435.023 398.846C444.552 377.148 449.056 353.511 446.825 329.836C444.709 307.382 436.664 285.294 421.864 268.067C420.02 265.92 418.08 263.862 416.044 261.894C414.953 260.833 413.28 262.503 414.373 263.566C430.9 279.619 440.519 301.374 443.774 324.007C447.132 347.348 443.672 371.143 434.948 392.965C425.654 416.211 410.875 436.954 393.735 455.055C385.104 464.113 375.922 472.629 366.241 480.555C355.903 489.075 345.161 497.124 335.317 506.228C317.174 523.008 300.868 546.088 303.108 572.07C303.369 575.092 303.893 578.086 304.673 581.018C304.764 581.31 304.966 581.556 305.235 581.703C305.504 581.849 305.82 581.886 306.115 581.804C306.411 581.723 306.663 581.53 306.819 581.266C306.975 581.002 307.022 580.687 306.951 580.389Z" fill="#F0F0F0"/>
<path d="M379.509 431.982C368.591 413.256 360.24 393.146 354.683 372.193C349.108 351.245 346.32 329.653 346.39 307.975C346.469 286.298 349.1 264.079 355.818 243.408C362.193 223.789 373.616 205.079 391.75 194.374C400.999 188.946 411.557 186.157 422.278 186.309C433.602 186.416 444.769 189.398 454.973 194.226C464.965 198.955 474.103 205.327 482.544 212.431C490.591 219.193 498.101 226.57 505.006 234.497C518.686 250.234 529.862 268.456 536.104 288.435C542.61 309.257 543.75 332.032 537.712 353.105C531.913 373.346 519.21 390.598 503.613 404.456C486.759 419.432 466.794 430.316 446.661 440.193C441.623 442.666 436.556 445.082 431.49 447.497C430.118 448.151 431.315 450.19 432.683 449.539C453.911 439.417 475.35 429.207 494.274 415.076C510.971 402.607 525.855 386.955 534.709 367.889C544.072 347.727 545.991 324.801 542.11 303.048C538.317 281.788 528.802 261.89 516.068 244.56C509.739 235.987 502.707 227.957 495.042 220.555C487.179 212.787 478.593 205.787 469.401 199.649C450.56 187.329 426.998 179.889 404.669 186.235C384.818 191.877 369.54 207.789 360.449 225.821C355.361 235.914 351.931 246.768 349.492 257.782C347.112 268.636 345.511 279.647 344.702 290.73C341.458 334.954 350.122 379.239 369.794 418.976C372.19 423.795 374.748 428.528 377.468 433.175C377.632 433.435 377.89 433.62 378.188 433.693C378.486 433.766 378.8 433.72 379.065 433.565C379.329 433.41 379.524 433.159 379.607 432.863C379.689 432.568 379.654 432.252 379.509 431.982Z" fill="#F0F0F0"/>
<path d="M364.541 409.129C353.623 390.403 345.273 370.293 339.715 349.34C334.14 328.392 331.352 306.8 331.422 285.122C331.502 263.445 334.132 241.226 340.85 220.555C347.225 200.936 358.648 182.226 376.783 171.521C386.031 166.093 396.589 163.304 407.31 163.456C418.634 163.563 429.802 166.545 440.005 171.373C449.997 176.102 459.135 182.474 467.576 189.578C475.624 196.34 483.134 203.717 490.038 211.644C503.718 227.381 514.894 245.603 521.136 265.582C527.642 286.404 528.782 309.179 522.745 330.252C516.946 350.493 504.242 367.745 488.646 381.603C471.791 396.579 451.826 407.463 431.694 417.34C426.655 419.813 421.589 422.229 416.522 424.644C415.15 425.298 416.348 427.337 417.715 426.686C438.944 416.564 460.382 406.354 479.306 392.223C496.003 379.754 510.887 364.102 519.741 345.036C529.105 324.874 531.024 301.948 527.143 280.195C523.35 258.935 513.835 239.037 501.1 221.707C494.772 213.134 487.739 205.104 480.075 197.702C472.211 189.934 463.625 182.934 454.434 176.796C435.592 164.476 412.03 157.036 389.701 163.382C369.85 169.024 354.572 184.936 345.481 202.968C340.393 213.061 336.964 223.915 334.524 234.929C332.144 245.783 330.543 256.794 329.735 267.877C326.49 312.101 335.155 356.386 354.826 396.123C357.222 400.942 359.78 405.675 362.5 410.322C362.664 410.582 362.922 410.767 363.22 410.84C363.518 410.913 363.832 410.867 364.097 410.712C364.362 410.557 364.556 410.306 364.639 410.01C364.722 409.715 364.687 409.399 364.541 409.129Z" fill="#F0F0F0"/>
<path d="M149.41 364.826C148.576 363.65 148.011 362.305 147.753 360.887C147.495 359.468 147.551 358.01 147.917 356.616C148.283 355.222 148.951 353.925 149.872 352.816C150.794 351.708 151.947 350.815 153.251 350.2L180.566 264.639L199.59 274.525L166.758 355.521C167.644 357.78 167.672 360.286 166.834 362.564C165.997 364.843 164.354 366.734 162.215 367.881C160.077 369.028 157.592 369.351 155.232 368.788C152.872 368.224 150.801 366.815 149.41 364.826Z" fill="#FFB6B6"/>
<path d="M171.726 276.471C171.465 275.892 171.331 275.263 171.335 274.627C171.339 273.992 171.479 273.365 171.747 272.789L181.103 252.666C182.026 249.549 184.147 246.926 187 245.371C189.854 243.816 193.207 243.456 196.325 244.37C199.443 245.285 202.072 247.398 203.635 250.248C205.198 253.098 205.567 256.452 204.662 259.574L201.535 281.618C201.446 282.247 201.222 282.85 200.879 283.384C200.536 283.919 200.082 284.374 199.548 284.717C199.013 285.06 198.411 285.284 197.782 285.374C197.153 285.464 196.513 285.417 195.904 285.236L174.5 278.892C173.891 278.712 173.327 278.402 172.849 277.984C172.37 277.566 171.987 277.05 171.726 276.471Z" fill="#2F2E41"/>
<path d="M250.639 279.867C244.138 296.896 245.8 314.757 253.806 333.266H197.09C199.369 320.097 198.444 307.859 190 297.804L250.639 279.867Z" fill="#FFB6B6"/>
<path d="M184.261 248.573L201.046 236.36L228.513 228.728L251.402 233.307L252.748 245.96C254.385 261.351 253.674 276.902 250.639 292.079L191.128 305.818L185.024 295.132C185.024 295.132 171.29 281.393 181.972 266.128L184.261 248.573Z" fill="#2F2E41"/>
<path d="M330.05 163.152C330.425 164.544 330.49 166.001 330.24 167.421C329.991 168.841 329.434 170.189 328.607 171.37C327.781 172.552 326.706 173.537 325.457 174.257C324.209 174.978 322.818 175.416 321.382 175.54L266.127 246.335L251.705 230.468L310.554 165.868C310.505 163.441 311.347 161.081 312.922 159.234C314.496 157.387 316.693 156.182 319.096 155.847C321.499 155.512 323.942 156.071 325.961 157.417C327.979 158.764 329.434 160.804 330.05 163.152Z" fill="#FFB6B6"/>
<path d="M278.518 238.3C278.563 238.934 278.47 239.57 278.247 240.165C278.023 240.759 277.674 241.299 277.223 241.747L261.478 257.38C259.533 259.984 256.635 261.711 253.419 262.181C250.204 262.651 246.933 261.826 244.325 259.888C241.716 257.949 239.982 255.055 239.503 251.839C239.024 248.624 239.84 245.35 241.77 242.735L252.338 223.14C252.639 222.581 253.058 222.093 253.565 221.71C254.072 221.327 254.655 221.059 255.276 220.922C255.896 220.785 256.538 220.783 257.159 220.917C257.78 221.051 258.365 221.317 258.874 221.698L276.755 235.067C277.264 235.448 277.685 235.933 277.989 236.491C278.293 237.049 278.474 237.666 278.518 238.3Z" fill="#2F2E41"/>
<path d="M184.336 564.893H193.027L197.161 531.356H184.334L184.336 564.893Z" fill="#FFB6B6"/>
<path d="M181.393 560.604L195.132 559.784V565.672L208.194 574.697C208.839 575.143 209.325 575.783 209.581 576.525C209.836 577.266 209.848 578.07 209.615 578.819C209.382 579.567 208.915 580.222 208.284 580.687C207.652 581.152 206.888 581.402 206.104 581.402H189.748L186.928 575.577L185.827 581.402H179.66L181.393 560.604Z" fill="#2F2E41"/>
<path d="M245.778 564.893H254.469L258.604 531.356H245.776L245.778 564.893Z" fill="#FFB6B6"/>
<path d="M242.835 560.604L256.574 559.784V565.672L269.636 574.697C270.281 575.143 270.767 575.783 271.023 576.525C271.279 577.266 271.291 578.07 271.057 578.819C270.824 579.567 270.357 580.222 269.726 580.687C269.094 581.152 268.331 581.402 267.547 581.402H251.19L248.371 575.577L247.27 581.402H241.103L242.835 560.604Z" fill="#2F2E41"/>
<path d="M268.868 376.994V394.095L267.198 414.985C267.198 414.985 266.67 433.228 266.032 447.618C265.646 456.365 265.213 463.686 264.834 464.632C264.37 465.79 264.48 468.95 264.748 472.268C265.063 476.105 265.583 480.156 265.669 481.511C265.835 484.041 264.496 494.908 264.496 494.908C264.496 494.908 262.999 522.158 260.825 524.333C258.651 526.508 260.825 532.694 260.825 532.694C250.632 540.212 237.76 531.024 237.76 531.024C240.604 526.492 236.09 495.562 236.09 495.562C236.09 495.562 235.428 485.002 234.09 482.165C232.75 479.328 232.411 461.605 232.411 461.605V435.356C232.411 435.356 228.898 429.982 228.402 427.476C227.906 424.97 228.402 416.112 228.402 416.112L224.731 403.74L222.218 413.433C222.218 413.433 215.712 440.518 214.538 443.859C213.364 447.2 215.2 450.549 215.2 450.549C215.2 450.549 216.878 455.703 215.2 458.067C214.157 459.548 213.359 461.187 212.837 462.922C212.837 462.922 211.978 472.788 210.473 476.318C208.969 479.849 207.638 484.199 207.638 484.199C207.638 484.199 207.992 490.865 206.487 492.37C204.983 493.876 204.487 501.401 204.487 501.401C204.487 501.401 204.817 509.92 202.808 512.93C200.8 515.941 200.8 532.994 200.8 532.994C197.316 535.23 193.302 536.501 189.167 536.677C185.031 536.853 180.923 535.927 177.263 533.994C177.263 533.994 179.248 532.135 177.743 523.466C176.239 514.798 178.822 491.196 178.822 491.196C178.822 491.196 178.492 485.207 180.161 482.528C181.831 479.849 179.319 474.671 179.988 472.331C180.658 469.99 182.666 457.279 182.666 457.279C182.666 457.279 181.831 426.018 181.831 424.347C181.634 421.373 180.83 418.472 179.468 415.821C177.964 413.149 179.468 393.756 179.468 393.756C179.468 393.756 183.013 383.732 181.831 381.557C180.65 379.382 182.619 375.536 182.619 375.536C182.619 375.536 180.784 371.021 182.619 370.186C184.455 369.35 184.793 366.009 184.793 366.009L186.069 349.791C186.069 349.791 186.55 342.431 188.078 342.1C189.606 341.769 188.937 338.932 190.441 336.923C191.174 335.564 191.68 334.095 191.938 332.573C192.151 331.643 192.348 330.673 192.513 329.744C192.986 327.222 193.277 325.047 193.277 325.047C203.14 333.242 254.996 327.498 255.051 327.498C258.343 328.215 262.259 339.649 265.086 349.618C267.6 358.526 268.873 367.738 268.868 376.994Z" fill="#2F2E41"/>
<path d="M231.149 207.209C234.929 194.77 227.914 181.621 215.48 177.84C203.046 174.059 189.902 181.077 186.122 193.516C182.342 205.955 189.358 219.103 201.792 222.885C214.226 226.666 227.369 219.648 231.149 207.209Z" fill="#FFB6B6"/>
<path d="M182.039 204.465L191.151 202.569L192.828 190.472L195.974 201.565L200.329 200.658L201.308 193.602L203.143 200.072L235.503 193.336C234.837 190.133 233.546 187.091 231.705 184.387C229.863 181.682 227.508 179.366 224.772 177.572C222.036 175.778 218.974 174.541 215.76 173.931C212.546 173.32 209.244 173.35 206.041 174.016L201.352 174.992C194.884 176.339 189.215 180.2 185.594 185.728C181.972 191.255 180.693 197.995 182.039 204.465Z" fill="#2F2E41"/>
<path d="M275.255 27.4621L275.195 27.577C263.312 22.1001 249.778 21.4062 237.397 25.6392C225.016 29.8721 214.737 38.7074 208.69 50.3147C202.642 61.922 201.29 75.4116 204.914 87.9889C208.537 100.566 216.857 111.267 228.152 117.875L228.092 117.99L318.585 165.172L365.748 74.6437C368.852 68.6989 370.755 62.2003 371.348 55.5193C371.94 48.8384 371.21 42.1061 369.201 35.7074C367.191 29.3087 363.94 23.369 359.634 18.2279C355.328 13.0867 350.052 8.84494 344.106 5.74502C338.161 2.6451 331.663 0.747814 324.984 0.161625C318.305 -0.424565 311.576 0.311834 305.182 2.32873C298.787 4.34562 292.853 7.60347 287.718 11.916C282.583 16.2286 278.348 21.5113 275.255 27.4621Z" fill="#F36823"/>
<path d="M355.878 546.939L355.863 546.968C352.86 545.584 349.439 545.408 346.309 546.478C343.18 547.548 340.582 549.781 339.054 552.715C337.525 555.649 337.184 559.058 338.099 562.237C339.015 565.416 341.118 568.121 343.973 569.791L343.958 569.82L366.83 581.745L378.75 558.864C379.535 557.361 380.016 555.719 380.166 554.03C380.316 552.341 380.131 550.64 379.624 549.022C379.116 547.405 378.294 545.904 377.206 544.604C376.117 543.305 374.784 542.232 373.281 541.449C371.778 540.665 370.136 540.186 368.447 540.038C366.759 539.889 365.058 540.076 363.442 540.586C361.826 541.095 360.326 541.919 359.028 543.009C357.73 544.099 356.66 545.435 355.878 546.939Z" fill="#FF6584"/>
<path d="M52.4714 256.82V256.949C39.4029 257.587 27.0804 263.229 18.0568 272.708C9.03317 282.186 3.99999 294.773 4 307.862C4.00001 320.952 9.03321 333.539 18.0569 343.017C27.0805 352.495 39.403 358.138 52.4715 358.775V358.905L154.517 358.905L154.517 256.82C154.523 250.113 153.208 243.47 150.647 237.272C148.086 231.073 144.329 225.44 139.59 220.695C134.852 215.95 129.225 212.186 123.031 209.618C116.838 207.05 110.199 205.728 103.494 205.728C96.7896 205.728 90.1508 207.05 83.9572 209.618C77.7637 212.186 72.1368 215.95 67.3983 220.695C62.6597 225.44 58.9024 231.073 56.3412 237.272C53.7799 243.47 52.465 250.113 52.4714 256.82Z" fill="#F36823"/>
<path d="M528.043 583H18.1508C17.9021 583 17.6635 582.901 17.4876 582.725C17.3117 582.549 17.2129 582.311 17.2129 582.062C17.2129 581.813 17.3117 581.574 17.4876 581.398C17.6635 581.222 17.9021 581.124 18.1508 581.124H528.043C528.292 581.124 528.53 581.222 528.706 581.398C528.882 581.574 528.981 581.813 528.981 582.062C528.981 582.311 528.882 582.549 528.706 582.725C528.53 582.901 528.292 583 528.043 583Z" fill="#CACACA"/>
<path d="M446.86 353.261C457.283 353.196 467.361 349.516 475.374 342.849C483.533 335.985 488.902 326.375 490.472 315.828C491.393 309.865 491.096 303.777 489.599 297.932C489.507 297.64 489.305 297.394 489.036 297.247C488.767 297.101 488.451 297.064 488.156 297.146C487.861 297.227 487.608 297.42 487.452 297.684C487.296 297.948 487.249 298.262 487.32 298.561C489.846 308.485 488.706 318.987 484.111 328.138C480.58 334.98 475.239 340.721 468.67 344.735C462.102 348.748 454.557 350.88 446.86 350.897C446.554 350.908 446.264 351.037 446.051 351.258C445.838 351.478 445.719 351.773 445.719 352.079C445.719 352.386 445.838 352.681 446.051 352.901C446.264 353.122 446.554 353.251 446.86 353.261Z" fill="#F0F0F0"/>
<path d="M264.384 46.1963C257.66 39.8111 247.043 39.8278 239.278 44.2728C230.564 49.261 226.613 59.5685 226.813 69.2465C227.038 80.1387 232.361 90.0011 239.235 98.1696C246.561 106.657 255.086 114.029 264.541 120.053C273.97 126.196 284.173 131.06 294.881 134.517C296.199 134.942 297.524 135.345 298.855 135.725C299.154 135.796 299.468 135.749 299.732 135.593C299.995 135.437 300.188 135.185 300.27 134.889C300.351 134.593 300.315 134.278 300.168 134.008C300.022 133.739 299.776 133.537 299.484 133.446C278.919 127.567 260.223 116.47 245.21 101.231C238.063 93.9083 231.711 85.1072 229.758 74.8636C228.033 65.8172 229.939 55.3135 236.948 48.8697C243.762 42.6057 255.686 41.1953 262.713 47.868C263.815 48.9153 265.489 47.2463 264.384 46.1963Z" fill="white"/>
<path d="M50.7242 281.688C41.642 280.558 33.1125 286.949 29.575 295.02C25.6081 304.072 28.2827 314.507 34.0368 322.157C40.3739 330.582 49.9727 335.493 60.0065 338.101C70.7771 340.899 82.2106 341.655 93.2978 341.138C106.404 340.53 119.338 337.9 131.642 333.341C133.055 332.816 132.443 330.53 131.013 331.061C110.532 338.669 87.7312 341.069 66.1934 337.052C56.5661 335.257 46.7612 331.832 39.587 324.902C33.0865 318.624 28.4878 309.115 30.4441 299.932C32.3881 290.807 41.0601 282.85 50.7242 284.052C52.2297 284.239 52.2161 281.874 50.7242 281.688Z" fill="white"/>
<path d="M201.826 165.887C204.022 157.102 199.768 147.679 193.18 141.469C186.592 135.259 177.995 131.689 169.487 128.599C162.701 126.135 154.754 123.991 148.613 127.787C143.678 130.837 141.538 136.761 138.717 141.831C133.341 151.493 124.669 158.896 114.285 162.687C103.902 166.477 92.5014 166.402 82.1689 162.474C85.8108 173.051 98.3554 178.224 109.514 177.506C120.674 176.787 130.98 171.646 141.375 167.524C151.771 163.401 163.334 160.216 174.018 163.517C178.527 164.911 182.629 167.398 187.093 168.928C191.558 170.459 196.783 170.914 200.762 168.375" fill="#2F2E41"/>
<path d="M358.121 487.631L350.514 474.237C350.351 473.978 350.093 473.792 349.795 473.719C349.497 473.647 349.182 473.692 348.918 473.847C348.653 474.002 348.459 474.254 348.376 474.549C348.293 474.844 348.328 475.16 348.474 475.43L356.081 488.825C356.244 489.084 356.502 489.27 356.8 489.342C357.098 489.415 357.412 489.369 357.677 489.214C357.942 489.06 358.136 488.808 358.219 488.513C358.302 488.217 358.267 487.901 358.121 487.631Z" fill="#F0F0F0"/>
</g>
<defs>
<filter id="filter0_d_419_82" x="0" y="0" width="548" height="591" filterUnits="userSpaceOnUse" color-interpolation-filters="sRGB">
<feFlood flood-opacity="0" result="BackgroundImageFix"/>
<feColorMatrix in="SourceAlpha" type="matrix" values="0 0 0 0 0 0 0 0 0 0 0 0 0 0 0 0 0 0 127 0" result="hardAlpha"/>
<feOffset dy="4"/>
<feGaussianBlur stdDeviation="2"/>
<feComposite in2="hardAlpha" operator="out"/>
<feColorMatrix type="matrix" values="0 0 0 0 0 0 0 0 0 0 0 0 0 0 0 0 0 0 0.25 0"/>
<feBlend mode="normal" in2="BackgroundImageFix" result="effect1_dropShadow_419_82"/>
<feBlend mode="normal" in="SourceGraphic" in2="effect1_dropShadow_419_82" result="shape"/>
</filter>
<clipPath id="clip0_419_82">
<rect width="540" height="583" fill="white" transform="translate(4)"/>
</clipPath>
</defs>
</svg>
