<svg width="31" height="38" viewBox="0 0 31 38" fill="none" xmlns="http://www.w3.org/2000/svg">
<path d="M11.798 3.82969L10.4833 5.9375H20.5167L19.202 3.82969C19.0982 3.66641 18.9252 3.5625 18.7384 3.5625H12.2547C12.0679 3.5625 11.8949 3.65898 11.7911 3.82969H11.798ZM21.9699 1.85547L24.5094 5.9375H29.3393C30.2596 5.9375 31 6.73164 31 7.71875C31 8.70586 30.2596 9.5 29.3393 9.5H28.7857V32.0625C28.7857 35.343 26.3085 38 23.25 38H7.75C4.69152 38 2.21429 35.343 2.21429 32.0625V9.5H1.66071C0.740402 9.5 0 8.70586 0 7.71875C0 6.73164 0.740402 5.9375 1.66071 5.9375H6.49062L9.03013 1.84805C9.74978 0.697656 10.9607 0 12.2547 0H18.7384C20.0324 0 21.2433 0.697656 21.9629 1.84805L21.9699 1.85547ZM5.53571 9.5V32.0625C5.53571 33.3762 6.52522 34.4375 7.75 34.4375H23.25C24.4748 34.4375 25.4643 33.3762 25.4643 32.0625V9.5H5.53571ZM11.0714 14.25V29.6875C11.0714 30.3406 10.5732 30.875 9.96428 30.875C9.35536 30.875 8.85714 30.3406 8.85714 29.6875V14.25C8.85714 13.5969 9.35536 13.0625 9.96428 13.0625C10.5732 13.0625 11.0714 13.5969 11.0714 14.25ZM16.6071 14.25V29.6875C16.6071 30.3406 16.1089 30.875 15.5 30.875C14.8911 30.875 14.3929 30.3406 14.3929 29.6875V14.25C14.3929 13.5969 14.8911 13.0625 15.5 13.0625C16.1089 13.0625 16.6071 13.5969 16.6071 14.25ZM22.1429 14.25V29.6875C22.1429 30.3406 21.6446 30.875 21.0357 30.875C20.4268 30.875 19.9286 30.3406 19.9286 29.6875V14.25C19.9286 13.5969 20.4268 13.0625 21.0357 13.0625C21.6446 13.0625 22.1429 13.5969 22.1429 14.25Z" fill="#746A6A"/>
</svg>
