<svg width="136" height="25" viewBox="0 0 136 25" fill="none" xmlns="http://www.w3.org/2000/svg">
<path d="M10.496 4.688C10.4533 5.072 10.432 5.46667 10.432 5.872C10.432 6.64 10.3893 7.33333 10.304 7.952C10.2187 8.57067 10.1653 8.99733 10.144 9.232C10.1227 9.44533 10.0907 9.65867 10.048 9.872V10.096C10.048 10.48 9.96267 10.864 9.792 11.248L9.696 12.688L9.568 15.728V17.328C9.568 18.1387 9.52533 18.576 9.44 18.64L9.472 19.472V19.824L9.44 20.208C9.44 20.2933 9.41867 20.336 9.376 20.336C9.41867 20.592 9.312 20.8693 9.056 21.168C8.82133 21.4453 8.52267 21.6267 8.16 21.712L7.584 21.808C7.49867 21.808 7.38133 21.8187 7.232 21.84C7.08267 21.84 6.95467 21.8187 6.848 21.776C6.74133 21.7333 6.63467 21.68 6.528 21.616C6.31467 21.488 6.16533 21.2427 6.08 20.88C6.016 20.7733 5.888 20.1227 5.696 18.928C5.696 18.672 5.67467 18.352 5.632 17.968L5.728 17.2V16.592C5.728 16.208 5.77067 15.9413 5.856 15.792C5.77067 15.664 5.824 15.3867 6.016 14.96C5.86667 14.768 5.87733 14.3413 6.048 13.68C5.96267 13.4027 5.96267 13.2213 6.048 13.136C6.09067 13.008 6.112 12.7093 6.112 12.24L6.144 11.92C6.144 11.3013 6.208 10.736 6.336 10.224C6.29333 10.16 6.29333 9.98933 6.336 9.712C6.37867 9.43467 6.41067 9.104 6.432 8.72V8.496C6.45333 8.176 6.464 7.83467 6.464 7.472L6.496 7.184C6.496 7.056 6.51733 6.8 6.56 6.416C6.624 6.032 6.67733 5.62667 6.72 5.2H6.656C4.39467 5.81867 3.008 6.128 2.496 6.128L1.952 6.16C1.632 6.16 1.30133 6.10667 0.96 6C0.789333 5.91467 0.661333 5.69067 0.576 5.328C0.576 4.624 0.725333 4.112 1.024 3.792C1.344 3.472 1.93067 3.17333 2.784 2.896C2.99733 2.87467 4.32 2.42666 6.752 1.552L8.128 1.232C8.384 1.14666 8.78933 1.104 9.344 1.104C9.89867 1.104 10.3573 1.04 10.72 0.911999C11.104 0.762666 11.52 0.656 11.968 0.591999C12.416 0.506666 12.8853 0.421332 13.376 0.335999C13.6107 0.250665 14.0373 0.271999 14.656 0.4C14.8907 0.4 15.264 0.645333 15.776 1.136L15.968 1.584C15.968 1.712 16 1.808 16.064 1.872C16.1493 2.448 16.0213 2.82133 15.68 2.992C15.552 3.056 15.328 3.14133 15.008 3.248C14.5813 3.248 13.5147 3.46133 11.808 3.888C11.7227 3.888 11.296 3.952 10.528 4.08L10.496 4.496V4.688ZM17.4077 12.56C17.4077 12.368 17.3864 12.144 17.3437 11.888V11.664C17.3651 11.5147 17.3544 11.3547 17.3117 11.184C17.3117 10.9707 17.3331 10.7787 17.3757 10.608C17.3757 10.1813 17.4291 9.904 17.5357 9.776C17.5357 9.66933 17.6851 9.424 17.9837 9.04C18.0691 8.95467 18.2291 8.816 18.4637 8.624C18.8051 8.51733 19.0397 8.45333 19.1677 8.432C19.2531 8.34667 19.5411 8.37867 20.0317 8.528C20.2451 8.54933 20.5757 8.624 21.0237 8.752C21.1731 8.79467 21.3651 8.96533 21.5998 9.264C21.5571 9.34933 21.4824 9.66933 21.3758 10.224C21.2904 10.7573 21.2584 11.1947 21.2797 11.536C21.4077 11.4293 21.6317 11.2053 21.9517 10.864C22.2717 10.5227 22.4424 10.3413 22.4637 10.32C23.0184 10.064 23.5624 9.88267 24.0957 9.776C24.8638 9.712 25.3651 9.76533 25.5998 9.936C25.7917 10 25.9411 10.096 26.0478 10.224C26.2398 10.3947 26.3998 10.6933 26.5278 11.12C26.6558 11.5253 26.6451 11.7813 26.4958 11.888C26.3678 11.9947 25.9411 12.08 25.2157 12.144C25.1731 12.144 25.0237 12.2293 24.7677 12.4L23.1037 13.712C22.7624 13.8827 22.5278 14.032 22.3997 14.16L21.7917 15.28C21.7704 15.3227 21.7491 15.6 21.7277 16.112C21.7064 16.624 21.7064 16.9973 21.7277 17.232C21.7491 17.4453 21.7491 18.16 21.7277 19.376V20.752C21.7277 21.4987 21.7171 21.9253 21.6957 22.032C21.6744 22.16 21.5891 22.3733 21.4397 22.672C21.3757 22.7787 21.1731 22.832 20.8317 22.832C19.9997 23.4507 19.4664 23.4187 19.2317 22.736L18.8157 22.48C18.6451 22.3947 18.5384 22.288 18.4957 22.16C18.3251 21.9253 18.2397 21.7867 18.2397 21.744L18.1117 21.296L17.9197 20.912C17.8557 20.8907 17.8024 20.4853 17.7597 19.696C17.7171 18.8853 17.6957 18.3947 17.6957 18.224C17.6957 18.032 17.6744 17.8293 17.6317 17.616C17.7811 17.4667 17.8451 17.2107 17.8237 16.848C17.8237 16.4853 17.8024 16.208 17.7597 16.016C17.7171 15.8027 17.7171 15.6747 17.7597 15.632C17.8024 15.568 17.7917 15.2693 17.7277 14.736C17.6637 14.6507 17.6531 14.4907 17.6957 14.256L17.4077 12.56ZM36.9227 11.76C37.0081 11.44 36.9974 11.0347 36.8907 10.544C36.7414 10.416 36.5387 10.352 36.2827 10.352C35.9627 10.352 35.6747 10.6507 35.4187 11.248C35.0774 11.76 34.8214 12.3253 34.6507 12.944H34.6187C34.3841 13.84 34.2667 14.32 34.2667 14.384C34.6081 14.4693 34.8854 14.512 35.0987 14.512C35.3121 14.4907 35.5574 14.3733 35.8347 14.16C36.3254 13.6907 36.6881 12.8907 36.9227 11.76ZM36.8267 16.368L35.6427 16.464C34.9814 16.464 34.4587 16.4 34.0747 16.272L34.1707 16.88C34.2347 18.6507 34.7254 19.8133 35.6427 20.368C35.8987 20.4747 36.1121 20.528 36.2827 20.528C36.4534 20.528 36.6774 20.4427 36.9547 20.272C37.0401 20.1867 37.1147 20.0693 37.1788 19.92C37.2001 19.728 37.3067 19.6427 37.4987 19.664C38.3734 18.5547 39.0347 18.1173 39.4827 18.352C39.9307 18.6507 40.1547 18.8853 40.1547 19.056C40.1547 19.1413 40.1014 19.2373 39.9948 19.344V19.536C39.9948 19.7493 39.8561 20.1333 39.5787 20.688C39.3227 21.2427 39.0454 21.712 38.7467 22.096C38.5974 22.416 38.4054 22.64 38.1707 22.768C37.4881 23.1947 36.7627 23.3653 35.9947 23.28C35.8241 23.2587 35.7067 23.216 35.6427 23.152C35.4721 23.1093 35.3441 23.0987 35.2587 23.12L35.0027 23.088C34.8107 23.088 34.6507 23.0453 34.5227 22.96C34.3094 22.832 34.1601 22.768 34.0747 22.768C33.5201 22.5547 33.1787 22.3947 33.0507 22.288C32.9441 22.1813 32.8481 22.1067 32.7627 22.064C32.6774 22.0213 32.4747 21.7973 32.1547 21.392C31.8774 21.1573 31.7174 21.008 31.6747 20.944C31.5467 20.752 31.4294 20.6133 31.3227 20.528C31.2374 20.4427 31.1841 20.2507 31.1627 19.952C31.0774 19.8453 31.0347 19.7067 31.0347 19.536L30.9067 19.28C30.9067 19.1307 30.8427 19.0133 30.7147 18.928C30.5867 18.8 30.5227 18.64 30.5227 18.448V18.192C30.4374 18.1493 30.4161 18.0213 30.4587 17.808V16.976L30.4267 16.688V16.464C30.4054 16.3787 30.4267 16.1973 30.4907 15.92L30.4587 15.632C30.4801 15.6107 30.5121 15.44 30.5547 15.12C30.6401 14.672 30.7361 14.3947 30.8427 14.288V14C30.8641 13.936 30.8747 13.8507 30.8747 13.744C30.8747 13.6373 30.8961 13.52 30.9387 13.392C31.0027 13.264 31.1734 12.784 31.4507 11.952L31.9627 10.832C32.1121 10.512 32.3467 10.16 32.6667 9.776C32.6881 9.66933 32.7734 9.47733 32.9227 9.2L33.3387 8.816C33.4667 8.624 33.6587 8.48533 33.9147 8.4C34.2134 8.25067 34.4374 8.176 34.5867 8.176L35.4827 8.048C35.5894 8.06933 35.6641 8.08 35.7067 8.08H36.1227C36.5921 8.12267 36.9761 8.21867 37.2747 8.368C37.9147 8.56 38.3841 8.80533 38.6827 9.104C39.3441 9.85067 39.6747 10.5653 39.6747 11.248C39.6747 11.9307 39.5681 12.5173 39.3547 13.008C38.8214 14.224 38.4374 14.992 38.2027 15.312C37.8187 16.016 37.3601 16.368 36.8267 16.368ZM45.367 18.832C45.367 18.7467 45.3883 18.4267 45.431 17.872C45.2603 17.616 45.175 17.04 45.175 16.144C45.1537 13.8613 45.143 12.6987 45.143 12.656C45.1643 12.6133 45.143 12.5387 45.079 12.432C45.015 12.304 44.983 12.176 44.983 12.048V11.696C44.8977 10.992 44.9403 10.4587 45.111 10.096C45.1537 9.88267 45.271 9.72267 45.463 9.616C45.6123 9.40267 45.8257 9.296 46.103 9.296C46.3803 9.296 46.615 9.328 46.807 9.392C46.9563 9.328 47.095 9.41333 47.223 9.648C47.479 9.75467 47.6177 9.808 47.639 9.808L47.799 9.936C47.9697 9.936 48.0763 9.968 48.119 10.032C48.183 10.0747 48.2257 10.2027 48.247 10.416L48.535 13.2V13.744C48.5777 14 48.599 14.2027 48.599 14.352L48.631 15.856L48.759 15.888C48.887 15.376 49.0257 14.9493 49.175 14.608C49.3457 14.2453 49.4523 13.9787 49.495 13.808C49.5163 13.6373 49.591 13.4773 49.719 13.328C49.847 13.072 49.911 12.8907 49.911 12.784C49.911 12.6773 49.9963 12.5387 50.167 12.368C50.359 11.8987 50.5403 11.5573 50.711 11.344L50.807 11.088C50.8923 10.96 50.9563 10.8533 50.999 10.768C51.2337 10.576 51.4043 10.4053 51.511 10.256L51.767 10.064C51.8097 10.064 51.8523 10.0107 51.895 9.904C51.9377 9.776 52.215 9.70133 52.727 9.68C53.1323 9.616 53.4737 9.616 53.751 9.68C53.943 9.68 54.0603 9.69067 54.103 9.712L54.295 9.904L54.551 9.968C54.9137 10.16 55.1483 10.6187 55.255 11.344C55.255 12.7947 55.3083 13.7547 55.415 14.224C55.5643 15.44 55.8097 16.528 56.151 17.488C56.5137 18.448 56.8657 19.088 57.207 19.408C57.655 19.984 57.7403 20.592 57.463 21.232C57.271 21.552 57.0257 21.7227 56.727 21.744C56.4283 21.7653 56.215 21.7547 56.087 21.712C55.9163 21.712 55.7777 21.68 55.671 21.616C55.4363 21.68 55.2337 21.6267 55.063 21.456C54.871 21.456 54.7217 21.36 54.615 21.168C53.8683 20.1867 53.431 19.5787 53.303 19.344C53.1963 19.1093 53.111 18.9493 53.047 18.864C53.0043 18.7787 52.9723 18.704 52.951 18.64C52.9297 18.576 52.8977 18.48 52.855 18.352C52.8123 18.16 52.727 17.9893 52.599 17.84C52.4923 17.6693 52.439 17.5413 52.439 17.456C52.375 17.3493 52.3323 17.1787 52.311 16.944C52.183 16.8587 52.119 16.752 52.119 16.624C52.0123 16.56 51.9377 16.368 51.895 16.048L51.767 15.216L51.703 15.184C50.6363 16.528 50.0283 18.0533 49.879 19.76C49.8363 20.1867 49.7937 20.464 49.751 20.592C49.6443 20.7627 49.687 21.0293 49.879 21.392V21.584C49.879 21.6693 49.7617 21.8293 49.527 22.064C49.271 22.0853 49.1217 22.096 49.079 22.096H48.727C48.6843 22.096 48.599 22.128 48.471 22.192C48.343 22.192 48.2363 22.2133 48.151 22.256C48.0657 22.2987 47.9483 22.288 47.799 22.224C47.415 22.2027 47.191 22.1707 47.127 22.128C47.063 22.1067 46.967 22.0747 46.839 22.032C46.711 22.0107 46.6043 21.9467 46.519 21.84C46.4123 21.84 46.3377 21.776 46.295 21.648C45.7403 21.0933 45.463 20.624 45.463 20.24V20.016L45.431 19.76C45.4737 19.4187 45.4523 19.1093 45.367 18.832ZM65.153 16.336C64.7477 18.512 64.5663 19.7067 64.609 19.92C64.6517 20.112 64.7157 20.2293 64.801 20.272C64.9077 20.3147 65.0143 20.3147 65.121 20.272C65.5263 20.1013 65.8143 19.7707 65.985 19.28L66.721 18.128C66.7637 18.0853 66.817 17.9467 66.881 17.712C67.0517 17.4133 67.201 17.0827 67.329 16.72C67.521 16.528 67.6597 16.2827 67.745 15.984C68.0437 15.3867 68.2037 15.056 68.225 14.992C68.3317 14.8853 68.3957 14.5973 68.417 14.128C68.4597 13.6373 68.4703 13.3707 68.449 13.328C68.3423 12.944 68.2677 12.688 68.225 12.56C68.1183 12.496 67.873 12.4213 67.489 12.336C67.1263 12.2293 66.913 12.2187 66.849 12.304C66.8063 12.304 66.6997 12.4427 66.529 12.72C66.3797 12.9973 66.2303 13.3707 66.081 13.84C65.8463 14.352 65.7183 14.6187 65.697 14.64L65.153 16.336ZM71.937 10.736L71.841 12.784C71.841 12.8693 71.8303 13.0187 71.809 13.232L71.841 15.568L72.033 17.456C72.033 17.6693 72.065 17.9573 72.129 18.32C72.193 18.6827 72.225 18.896 72.225 18.96C72.3317 20.048 72.449 20.72 72.577 20.976C72.705 21.5307 72.7583 21.904 72.737 22.096C72.7157 22.288 72.5983 22.5013 72.385 22.736C71.489 23.0347 70.9237 23.1093 70.689 22.96C70.4117 22.9173 70.145 22.7893 69.889 22.576C69.633 22.3627 69.4623 22.192 69.377 22.064C69.3557 22.0427 69.2383 21.648 69.025 20.88C69.025 20.8587 68.993 20.624 68.929 20.176C68.8223 20.0053 68.7903 19.7707 68.833 19.472C68.4703 20.112 68.289 20.4533 68.289 20.496C68.289 20.5173 68.2783 20.5493 68.257 20.592C68.2357 20.6133 68.2037 20.6773 68.161 20.784C68.1183 20.8693 68.0117 21.04 67.841 21.296C67.7557 21.4453 67.6277 21.68 67.457 22C66.9877 22.576 66.305 22.864 65.409 22.864C64.385 22.864 63.521 22.6613 62.817 22.256C62.7743 22.256 62.7423 22.2347 62.721 22.192C62.6143 22.1067 62.433 22 62.177 21.872C61.857 21.616 61.5903 21.1573 61.377 20.496C61.3557 20.4747 61.345 20.4 61.345 20.272L61.313 20.016C61.313 19.696 61.2917 19.4933 61.249 19.408C61.249 19.0667 61.3663 18.3947 61.601 17.392L62.689 14.416C62.689 14.2027 62.785 13.8507 62.977 13.36C63.2543 12.5493 63.4997 11.984 63.713 11.664C63.713 11.4507 64.0117 10.9813 64.609 10.256C64.6943 10.0427 64.865 9.904 65.121 9.84C65.8677 9.66933 66.5183 9.66933 67.073 9.84C67.1797 9.84 67.2863 9.86133 67.393 9.904C67.521 9.94667 67.6597 9.98933 67.809 10.032C67.9583 10.0747 68.2037 10.192 68.545 10.384C68.6517 10.4907 68.769 10.5653 68.897 10.608C69.1957 8.28267 69.3557 6.96 69.377 6.64C69.4197 6.34133 69.5583 5.75467 69.793 4.88L69.921 3.888C70.0703 3.33333 70.273 2.864 70.529 2.48C70.5503 2.288 70.6783 2.11733 70.913 1.968C71.2117 1.66933 71.6917 1.76533 72.353 2.256C72.3957 2.29867 72.5877 2.42667 72.929 2.64C73.185 2.72533 73.345 2.832 73.409 2.96C73.4943 3.32267 73.5157 3.70667 73.473 4.112C73.473 4.60267 73.3983 5.22133 73.249 5.968C73.0997 6.71467 72.9397 7.32267 72.769 7.792C72.6197 8.496 72.3423 9.47733 71.937 10.736ZM88.2003 17.168C88.2429 17.104 88.2536 16.944 88.2323 16.688C88.1043 15.8773 88.0829 15.3333 88.1683 15.056C88.0829 13.8827 88.0509 13.1893 88.0723 12.976C88.1149 12.7627 88.1789 12.6453 88.2643 12.624C88.1789 12.496 88.0936 12.016 88.0083 11.184C87.9443 10.3307 87.9336 9.76533 87.9763 9.488C87.8696 9.01867 87.8909 8.63467 88.0403 8.336C87.9976 8.29333 87.9656 8.12267 87.9443 7.824V6.32C87.9869 5.76533 88.0083 5.47733 88.0083 5.456V4.752L88.2003 3.728C88.1363 3.6 88.1896 3.39733 88.3603 3.12C88.1256 2.65067 88.3496 2.07467 89.0323 1.392C89.0536 1.34933 89.2989 1.21067 89.7683 0.976C90.1523 0.954666 90.4083 0.954666 90.5363 0.976C90.6856 0.997333 90.8989 1.01867 91.1763 1.04C91.4749 1.06133 91.6883 1.09333 91.8163 1.136C92.2216 1.264 92.4243 1.616 92.4243 2.192V2.768C92.4669 3.536 92.4883 4.12267 92.4883 4.528V5.264C92.4883 5.56267 92.4669 5.73333 92.4243 5.776C92.4456 5.86133 92.4456 6.064 92.4243 6.384V6.96C92.3603 7.64267 92.3389 8.03733 92.3603 8.144L92.1363 9.808C92.2856 9.91467 92.4989 9.968 92.7763 9.968C93.0323 9.92533 93.7576 9.91467 94.9523 9.936L96.7123 9.872H97.1283C97.5336 9.872 97.8109 9.81867 97.9603 9.712C97.9603 9.22133 98.0136 8.63467 98.1203 7.952C98.2483 7.84533 98.2803 7.376 98.2163 6.544C98.2163 6.45867 98.2589 6.288 98.3443 6.032C98.3443 5.712 98.3869 5.36 98.4723 4.976C98.4723 4.528 98.5363 4.144 98.6643 3.824C98.8136 3.504 98.9203 3.23733 98.9843 3.024C99.0696 2.66133 99.3149 2.352 99.7203 2.096C100.296 1.66933 100.808 1.41333 101.256 1.328H101.832C102.408 1.43467 102.6 2 102.408 3.024C102.408 3.36533 102.323 3.792 102.152 4.304C101.96 5.34933 101.864 6.02133 101.864 6.32C101.864 6.66133 101.779 7.22667 101.608 8.016C101.651 8.464 101.651 8.752 101.608 8.88C101.587 8.98667 101.576 9.14667 101.576 9.36C101.534 9.82933 101.512 10.16 101.512 10.352C101.47 10.992 101.448 11.5147 101.448 11.92C101.448 12.3253 101.416 12.7627 101.352 13.232C101.352 13.7013 101.278 14.1707 101.128 14.64L101.032 16.784C101.032 16.9547 101.107 18.0853 101.256 20.176C101.384 20.3253 101.427 20.592 101.384 20.976C101.342 21.36 101.267 21.6267 101.16 21.776C101.054 21.9253 100.936 22.0107 100.808 22.032C100.702 22.0533 100.531 22.064 100.296 22.064C99.8269 22.3627 99.4323 22.48 99.1123 22.416C98.8776 22.416 98.5789 22.3093 98.2163 22.096C97.8536 21.8827 97.6083 21.6053 97.4803 21.264C97.4803 21.0933 97.4483 20.9013 97.3843 20.688C97.3416 20.4747 97.3416 20.24 97.3843 19.984C97.4269 19.728 97.4376 19.4613 97.4163 19.184C97.4163 18.8853 97.4163 18.544 97.4163 18.16L97.4483 17.776C97.4056 17.6907 97.4269 17.552 97.5123 17.36C97.5976 17.1467 97.6083 16.9867 97.5443 16.88V15.984L97.7043 14.288C97.4909 14.1173 97.4803 13.7547 97.6723 13.2L97.7363 12.944C97.4803 13.008 97.2456 13.04 97.0323 13.04C96.4349 13.1893 95.7736 13.264 95.0483 13.264L92.1683 13.2C92.1683 13.3707 92.1789 13.4773 92.2003 13.52C92.1576 13.8613 92.1469 14.3947 92.1683 15.12V15.76C92.1896 16.336 92.2003 17.1467 92.2003 18.192C92.2856 19.3867 92.3283 20.2187 92.3283 20.688L92.2963 20.912C92.2963 21.104 92.2749 21.264 92.2323 21.392C92.2323 21.8187 92.1256 22.1067 91.9123 22.256C91.7203 22.4053 91.4003 22.5013 90.9523 22.544C90.5043 22.5867 90.0989 22.4693 89.7363 22.192C89.2456 21.936 88.9683 21.6907 88.9043 21.456C88.9043 21.3067 88.8509 21.0933 88.7443 20.816C88.6376 20.6453 88.5629 20.432 88.5203 20.176C88.5203 19.472 88.5096 19.0773 88.4883 18.992C88.4243 18.9067 88.3923 18.7467 88.3923 18.512C88.3923 18.2347 88.3283 17.7867 88.2003 17.168ZM111.648 8.88C111.968 9.15733 112.138 9.54133 112.16 10.032C112.202 10.5227 112.192 10.864 112.128 11.056C112.085 11.248 112 11.9093 111.872 13.04C111.808 13.1893 111.776 13.392 111.776 13.648L111.456 16.496C111.456 17.6267 111.466 18.288 111.488 18.48C111.509 18.672 111.552 18.8213 111.616 18.928C111.637 19.0133 111.733 19.0773 111.904 19.12C112.074 19.1627 112.192 19.12 112.256 18.992C112.256 18.8 112.32 18.6507 112.448 18.544C112.448 18.5013 112.586 18.2027 112.864 17.648C112.864 17.5627 112.896 17.4453 112.96 17.296C113.045 17.1467 113.098 17.0187 113.12 16.912C113.162 16.784 113.194 16.6987 113.216 16.656C113.301 16.592 113.408 16.3573 113.536 15.952C113.536 15.7173 113.664 15.472 113.92 15.216C113.92 15.152 114.026 14.896 114.24 14.448L114.304 14.16C114.688 13.3493 114.869 12.784 114.848 12.464L115.008 10.896L115.328 9.616C115.626 8.93333 116.053 8.51733 116.608 8.368C116.864 8.26133 117.205 8.304 117.632 8.496C118.08 8.688 118.357 8.88 118.464 9.072C118.592 9.24267 118.656 9.41333 118.656 9.584V10.16L118.624 10.512V12.24C118.624 13.52 118.645 14.4907 118.688 15.152C118.816 17.072 119.189 18.7147 119.808 20.08C120.106 20.7627 119.978 21.2853 119.424 21.648C119.104 21.8613 118.73 21.968 118.304 21.968C117.578 21.968 117.077 21.6907 116.8 21.136C116.65 20.9227 116.512 20.6347 116.384 20.272C116.256 19.9093 116.17 19.6747 116.128 19.568C116 19.1413 115.914 18.9067 115.872 18.864L115.616 18.256C115.274 19.344 114.688 20.624 113.856 22.096C113.685 22.3733 113.386 22.608 112.96 22.8C112.576 22.7147 112.16 22.5973 111.712 22.448C111.434 22.3413 110.976 22.192 110.336 22C109.909 21.9573 109.664 21.8933 109.6 21.808C109.536 21.7013 109.482 21.6373 109.44 21.616C109.418 21.5733 109.408 21.5413 109.408 21.52C109.344 21.4133 109.237 21.36 109.088 21.36C109.002 21.168 108.874 21.008 108.704 20.88C108.704 20.8587 108.672 20.752 108.608 20.56C108.373 20.4107 108.181 19.9627 108.032 19.216C107.925 19.1093 107.84 18.4267 107.776 17.168C107.733 15.888 107.722 15.088 107.744 14.768C107.786 14.448 107.808 14.1813 107.808 13.968C107.765 13.8827 107.776 13.6907 107.84 13.392C107.904 13.0933 107.925 12.8907 107.904 12.784L108.032 11.44L108.288 10.288C108.288 9.968 108.394 9.63733 108.608 9.296C108.821 8.95467 108.97 8.752 109.056 8.688C109.141 8.51733 109.44 8.37867 109.952 8.272C110.058 8.29333 110.197 8.31467 110.368 8.336C110.538 8.336 110.698 8.35733 110.848 8.4C110.997 8.42133 111.264 8.58133 111.648 8.88ZM131.934 11.952L131.838 11.92C131.881 11.9413 131.913 11.952 131.934 11.952ZM127.902 20.144V20.432C128.393 21.0933 128.649 21.424 128.67 21.424C128.777 21.424 129.022 21.36 129.406 21.232C129.428 21.232 129.534 21.136 129.726 20.944C129.94 20.7307 130.089 20.592 130.174 20.528C130.43 20.3787 130.601 20.2827 130.686 20.24C130.686 20.0693 130.761 19.8987 130.91 19.728C131.06 19.536 131.188 19.3547 131.294 19.184C131.422 18.992 131.508 18.8533 131.55 18.768C131.678 18.5973 131.721 18.512 131.678 18.512C131.721 18.4267 131.785 18.2453 131.87 17.968L132.19 17.232L132.542 15.632C132.585 15.4827 132.532 15.0133 132.382 14.224V13.936C132.34 13.872 132.318 13.808 132.318 13.744V13.712L132.286 13.392C132.286 13.2853 132.254 13.104 132.19 12.848C132.148 12.656 132.02 12.3467 131.806 11.92H131.454C131.07 12.112 130.782 12.3147 130.59 12.528C130.356 12.8267 130.057 13.36 129.694 14.128C129.332 14.896 129.086 15.5893 128.958 16.208L128.766 16.976C128.489 17.552 128.308 18.2133 128.222 18.96L128.062 19.408L127.902 20.144ZM135.198 10.96C135.625 11.8773 135.838 12.6453 135.838 13.264C135.838 14.5013 135.732 15.44 135.518 16.08C135.518 16.3147 135.497 16.496 135.454 16.624C135.262 18.032 135.017 19.0773 134.718 19.76C134.612 19.9093 134.494 20.144 134.366 20.464C134.238 20.8267 133.918 21.2427 133.406 21.712C133.406 21.776 133.246 21.968 132.926 22.288C132.606 22.6293 132.105 22.9067 131.422 23.12C130.633 23.376 130.121 23.504 129.886 23.504C128.67 23.696 127.785 23.5147 127.23 22.96L127.198 22.992C126.772 23.7387 126.26 23.9627 125.662 23.664C125.3 23.472 125.086 23.344 125.022 23.28C124.98 23.216 124.948 23.0773 124.926 22.864C124.777 22.48 124.724 22.032 124.766 21.52L124.926 20.464C124.862 20.1013 124.852 19.7813 124.894 19.504V19.28C124.937 18.8533 124.969 18.0427 124.99 16.848C125.012 15.632 125.044 14.896 125.086 14.64C125.15 14.3627 125.182 14.1067 125.182 13.872C125.438 10.9493 125.577 9.392 125.598 9.2C125.641 8.98667 125.662 8.29333 125.662 7.12V5.36C125.662 5.01867 125.652 4.76267 125.63 4.592C125.63 4.42133 125.673 4.304 125.758 4.24C125.588 3.74933 125.556 3.19467 125.662 2.576V2.192C125.62 1.78667 125.705 1.40267 125.918 1.04C126.068 0.847999 126.366 0.666665 126.814 0.495998C127.262 0.325333 127.636 0.229333 127.934 0.207998H128.094C128.372 0.207998 128.617 0.282665 128.83 0.431999C129.086 0.538666 129.214 0.794666 129.214 1.2C129.257 1.328 129.257 1.46667 129.214 1.616C129.236 1.76533 129.129 3.28 128.894 6.16C128.681 9.01867 128.574 10.5867 128.574 10.864C128.574 11.12 128.564 11.2907 128.542 11.376C128.542 11.44 128.542 11.4827 128.542 11.504C128.649 11.4613 128.713 11.3867 128.734 11.28C128.756 11.1733 128.798 11.0987 128.862 11.056C129.225 10.8 129.406 10.6187 129.406 10.512C129.406 10.4907 129.46 10.4373 129.566 10.352C129.673 10.2667 129.737 10.224 129.758 10.224C129.801 10.16 129.876 10.1173 129.982 10.096L130.558 9.808C130.58 9.68 130.889 9.62667 131.486 9.648C132.084 9.648 132.446 9.69067 132.574 9.776C132.788 9.88267 132.926 9.95733 132.99 10C133.076 10.0213 133.15 10.0427 133.214 10.064C133.3 10.064 133.598 10.1493 134.11 10.32C134.345 10.32 134.462 10.352 134.462 10.416C134.548 10.4587 134.612 10.48 134.654 10.48C135.017 10.6933 135.198 10.8533 135.198 10.96Z" fill="white"/>
</svg>
