<svg width="357" height="71" viewBox="0 0 357 71" fill="none" xmlns="http://www.w3.org/2000/svg">
<g filter="url(#filter0_d_1797_322)">
<mask id="path-1-outside-1_1797_322" maskUnits="userSpaceOnUse" x="4" y="0" width="349" height="63" fill="black">
<rect fill="white" x="4" width="349" height="63"/>
<path d="M7 13.4196L8.656 2H50.8071L49.1515 13.4196H34.0296L27.406 60.1761H15.5228L22.1462 13.4196H7ZM44.5307 60.1761L50.7646 16.5441H62.3313L61.1868 24.4977H61.5763C62.6639 21.6192 64.0843 19.4794 65.8377 18.078C67.5911 16.6577 69.4902 15.9478 71.5357 15.9478C72.0877 15.9478 72.6397 15.995 73.1917 16.0898C73.7599 16.1654 74.2957 16.2789 74.7987 16.4305L73.0457 28.5317C72.4937 28.2853 71.7712 28.1053 70.8784 27.9918C69.9856 27.8594 69.1738 27.793 68.4431 27.793C67.0309 27.793 65.716 28.1621 64.4985 28.9009C63.2972 29.6204 62.2744 30.6335 61.4303 31.9402C60.6023 33.228 60.0585 34.7431 59.7986 36.4853L56.4383 60.1761H44.5307ZM88.8371 61C84.9247 61 81.6778 60.1005 79.0968 58.3011C76.5319 56.4833 74.7298 53.8983 73.6909 50.5463C72.6517 47.1754 72.4652 43.1702 73.1307 38.5307C73.7801 34.0235 75.1032 30.0843 77.1 26.7135C79.1129 23.3238 81.6456 20.6913 84.6974 18.8167C87.7495 16.9229 91.1503 15.9762 94.9005 15.9762C97.5628 15.9762 99.9248 16.4589 101.986 17.4248C104.048 18.3907 105.753 19.8298 107.1 21.7424C108.448 23.6362 109.365 25.9656 109.852 28.7305C110.339 31.4954 110.323 34.6675 109.803 38.2463L109.34 41.712H76.8566L77.9523 33.6448H99.381C99.5758 32.1677 99.4702 30.8515 99.0642 29.6964C98.6586 28.5409 98.001 27.6414 97.0921 26.9975C96.199 26.3347 95.1032 26.0036 93.8048 26.0036C92.4896 26.0036 91.2559 26.3631 90.1033 27.083C88.967 27.7834 88.0008 28.7305 87.2054 29.9236C86.41 31.1166 85.8905 32.4609 85.6471 33.9571L84.3566 42.2235C84.0967 44.0601 84.1697 45.632 84.5757 46.9386C84.9816 48.2453 85.6797 49.2492 86.6699 49.9499C87.66 50.6314 88.9345 50.9726 90.4927 50.9726C91.532 50.9726 92.506 50.8114 93.4149 50.4895C94.3242 50.1487 95.1357 49.6467 95.8499 48.984C96.5806 48.3021 97.173 47.4786 97.6277 46.5127L108.488 46.8818C107.611 49.7415 106.256 52.2317 104.421 54.3527C102.587 56.4549 100.347 58.0931 97.7007 59.267C95.071 60.4224 92.1162 61 88.8371 61ZM128.304 35.2922L124.749 60.1761H112.841L119.075 16.5441H130.398L129.278 24.5549H129.692C130.86 21.8844 132.557 19.7918 134.781 18.2767C137.005 16.7429 139.505 15.9762 142.281 15.9762C144.893 15.9762 147.077 16.6577 148.833 18.0212C150.585 19.3846 151.826 21.2976 152.556 23.7594C153.286 26.2023 153.41 29.0712 152.923 32.3665L148.929 60.1761H137.021L140.601 35.0934C140.958 32.6885 140.706 30.8039 139.846 29.4404C139.002 28.0581 137.622 27.367 135.706 27.367C134.456 27.367 133.312 27.689 132.273 28.3329C131.25 28.9577 130.39 29.8572 129.692 31.0314C129.01 32.2053 128.547 33.6256 128.304 35.2922ZM169.84 60.8008C167.08 60.8008 164.686 59.9677 162.657 58.3011C160.627 56.6348 159.173 54.1351 158.299 50.8018C157.438 47.469 157.356 43.3314 158.056 38.3887C158.786 33.2564 160.082 29.0332 161.95 25.7192C163.816 22.4051 165.993 19.953 168.475 18.3623C170.978 16.7713 173.525 15.9762 176.121 15.9762C178.085 15.9762 179.711 16.3737 180.993 17.1693C182.292 17.9456 183.307 18.9491 184.037 20.1801C184.768 21.4112 185.272 22.6895 185.546 24.015H185.813L188.954 2H200.862L192.585 60.1761H180.797L181.795 53.1028H181.432C180.732 54.4475 179.841 55.7069 178.754 56.8808C177.664 58.0551 176.375 59.0018 174.88 59.7217C173.402 60.4412 171.722 60.8008 169.84 60.8008ZM175.466 49.9783C176.909 49.9783 178.216 49.5048 179.385 48.5581C180.554 47.5922 181.538 46.2383 182.333 44.4957C183.143 42.7535 183.712 40.7085 184.037 38.3603C184.377 35.9741 184.394 33.9191 184.085 32.1961C183.777 30.4727 183.167 29.1472 182.258 28.2189C181.367 27.291 180.191 26.8271 178.727 26.8271C177.266 26.8271 175.96 27.3006 174.808 28.2473C173.656 29.1944 172.696 30.5295 171.935 32.2529C171.17 33.9759 170.618 36.0117 170.278 38.3603C169.953 40.7085 169.922 42.7535 170.182 44.4957C170.457 46.2383 171.033 47.5922 171.911 48.5581C172.802 49.5048 173.988 49.9783 175.466 49.9783ZM214.888 60.1761L223.168 2H235.223L231.911 25.35H251.56L254.872 2H266.903L258.623 60.1761H246.592L249.904 36.7977H230.255L226.943 60.1761H214.888ZM292.995 41.3428L296.55 16.5441H308.434L302.2 60.1761H290.852L291.997 52.0521H291.606C290.454 54.7222 288.757 56.8432 286.518 58.4151C284.276 59.9677 281.752 60.744 278.944 60.744C276.393 60.744 274.251 60.0625 272.516 58.699C270.777 57.3356 269.543 55.4322 268.813 52.9892C268.1 50.5275 267.969 47.649 268.425 44.3537L272.416 16.5441H284.324L280.744 41.6268C280.436 43.9941 280.707 45.8595 281.55 47.223C282.411 48.5865 283.758 49.268 285.592 49.268C286.775 49.268 287.89 48.9652 288.928 48.3593C289.967 47.7341 290.842 46.8346 291.558 45.6604C292.288 44.4673 292.768 43.0282 292.995 41.3428ZM309.778 60.1761L318.058 2H329.965L326.873 24.015H327.116C327.764 22.6895 328.625 21.4112 329.698 20.1801C330.785 18.9491 332.091 17.9456 333.617 17.1693C335.142 16.3737 336.888 15.9762 338.852 15.9762C341.451 15.9762 343.762 16.7713 345.792 18.3623C347.821 19.953 349.299 22.4051 350.225 25.7192C351.151 29.0332 351.246 33.2564 350.516 38.3887C349.82 43.3314 348.562 47.469 346.741 50.8018C344.924 54.1351 342.757 56.6348 340.241 58.3011C337.741 59.9677 335.112 60.8008 332.352 60.8008C330.469 60.8008 328.885 60.4412 327.603 59.7217C326.338 59.0018 325.323 58.0551 324.558 56.8808C323.811 55.7069 323.293 54.4475 323.002 53.1028H322.539L321.565 60.1761H309.778ZM324.558 38.3603C324.233 40.7085 324.219 42.7535 324.51 44.4957C324.819 46.2383 325.412 47.5922 326.286 48.5581C327.181 49.5048 328.357 49.9783 329.818 49.9783C331.278 49.9783 332.588 49.5048 333.74 48.5581C334.892 47.5922 335.859 46.2383 336.637 44.4957C337.416 42.7535 337.968 40.7085 338.293 38.3603C338.619 36.0117 338.633 33.9759 338.341 32.2529C338.067 30.5295 337.488 29.1944 336.613 28.2473C335.736 27.3006 334.56 26.8271 333.082 26.8271C331.621 26.8271 330.305 27.291 329.136 28.2189C327.984 29.1472 327.01 30.4727 326.214 32.1961C325.436 33.9191 324.884 35.9741 324.558 38.3603Z"/>
</mask>
<path d="M7 13.4196L8.656 2H50.8071L49.1515 13.4196H34.0296L27.406 60.1761H15.5228L22.1462 13.4196H7ZM44.5307 60.1761L50.7646 16.5441H62.3313L61.1868 24.4977H61.5763C62.6639 21.6192 64.0843 19.4794 65.8377 18.078C67.5911 16.6577 69.4902 15.9478 71.5357 15.9478C72.0877 15.9478 72.6397 15.995 73.1917 16.0898C73.7599 16.1654 74.2957 16.2789 74.7987 16.4305L73.0457 28.5317C72.4937 28.2853 71.7712 28.1053 70.8784 27.9918C69.9856 27.8594 69.1738 27.793 68.4431 27.793C67.0309 27.793 65.716 28.1621 64.4985 28.9009C63.2972 29.6204 62.2744 30.6335 61.4303 31.9402C60.6023 33.228 60.0585 34.7431 59.7986 36.4853L56.4383 60.1761H44.5307ZM88.8371 61C84.9247 61 81.6778 60.1005 79.0968 58.3011C76.5319 56.4833 74.7298 53.8983 73.6909 50.5463C72.6517 47.1754 72.4652 43.1702 73.1307 38.5307C73.7801 34.0235 75.1032 30.0843 77.1 26.7135C79.1129 23.3238 81.6456 20.6913 84.6974 18.8167C87.7495 16.9229 91.1503 15.9762 94.9005 15.9762C97.5628 15.9762 99.9248 16.4589 101.986 17.4248C104.048 18.3907 105.753 19.8298 107.1 21.7424C108.448 23.6362 109.365 25.9656 109.852 28.7305C110.339 31.4954 110.323 34.6675 109.803 38.2463L109.34 41.712H76.8566L77.9523 33.6448H99.381C99.5758 32.1677 99.4702 30.8515 99.0642 29.6964C98.6586 28.5409 98.001 27.6414 97.0921 26.9975C96.199 26.3347 95.1032 26.0036 93.8048 26.0036C92.4896 26.0036 91.2559 26.3631 90.1033 27.083C88.967 27.7834 88.0008 28.7305 87.2054 29.9236C86.41 31.1166 85.8905 32.4609 85.6471 33.9571L84.3566 42.2235C84.0967 44.0601 84.1697 45.632 84.5757 46.9386C84.9816 48.2453 85.6797 49.2492 86.6699 49.9499C87.66 50.6314 88.9345 50.9726 90.4927 50.9726C91.532 50.9726 92.506 50.8114 93.4149 50.4895C94.3242 50.1487 95.1357 49.6467 95.8499 48.984C96.5806 48.3021 97.173 47.4786 97.6277 46.5127L108.488 46.8818C107.611 49.7415 106.256 52.2317 104.421 54.3527C102.587 56.4549 100.347 58.0931 97.7007 59.267C95.071 60.4224 92.1162 61 88.8371 61ZM128.304 35.2922L124.749 60.1761H112.841L119.075 16.5441H130.398L129.278 24.5549H129.692C130.86 21.8844 132.557 19.7918 134.781 18.2767C137.005 16.7429 139.505 15.9762 142.281 15.9762C144.893 15.9762 147.077 16.6577 148.833 18.0212C150.585 19.3846 151.826 21.2976 152.556 23.7594C153.286 26.2023 153.41 29.0712 152.923 32.3665L148.929 60.1761H137.021L140.601 35.0934C140.958 32.6885 140.706 30.8039 139.846 29.4404C139.002 28.0581 137.622 27.367 135.706 27.367C134.456 27.367 133.312 27.689 132.273 28.3329C131.25 28.9577 130.39 29.8572 129.692 31.0314C129.01 32.2053 128.547 33.6256 128.304 35.2922ZM169.84 60.8008C167.08 60.8008 164.686 59.9677 162.657 58.3011C160.627 56.6348 159.173 54.1351 158.299 50.8018C157.438 47.469 157.356 43.3314 158.056 38.3887C158.786 33.2564 160.082 29.0332 161.95 25.7192C163.816 22.4051 165.993 19.953 168.475 18.3623C170.978 16.7713 173.525 15.9762 176.121 15.9762C178.085 15.9762 179.711 16.3737 180.993 17.1693C182.292 17.9456 183.307 18.9491 184.037 20.1801C184.768 21.4112 185.272 22.6895 185.546 24.015H185.813L188.954 2H200.862L192.585 60.1761H180.797L181.795 53.1028H181.432C180.732 54.4475 179.841 55.7069 178.754 56.8808C177.664 58.0551 176.375 59.0018 174.88 59.7217C173.402 60.4412 171.722 60.8008 169.84 60.8008ZM175.466 49.9783C176.909 49.9783 178.216 49.5048 179.385 48.5581C180.554 47.5922 181.538 46.2383 182.333 44.4957C183.143 42.7535 183.712 40.7085 184.037 38.3603C184.377 35.9741 184.394 33.9191 184.085 32.1961C183.777 30.4727 183.167 29.1472 182.258 28.2189C181.367 27.291 180.191 26.8271 178.727 26.8271C177.266 26.8271 175.96 27.3006 174.808 28.2473C173.656 29.1944 172.696 30.5295 171.935 32.2529C171.17 33.9759 170.618 36.0117 170.278 38.3603C169.953 40.7085 169.922 42.7535 170.182 44.4957C170.457 46.2383 171.033 47.5922 171.911 48.5581C172.802 49.5048 173.988 49.9783 175.466 49.9783ZM214.888 60.1761L223.168 2H235.223L231.911 25.35H251.56L254.872 2H266.903L258.623 60.1761H246.592L249.904 36.7977H230.255L226.943 60.1761H214.888ZM292.995 41.3428L296.55 16.5441H308.434L302.2 60.1761H290.852L291.997 52.0521H291.606C290.454 54.7222 288.757 56.8432 286.518 58.4151C284.276 59.9677 281.752 60.744 278.944 60.744C276.393 60.744 274.251 60.0625 272.516 58.699C270.777 57.3356 269.543 55.4322 268.813 52.9892C268.1 50.5275 267.969 47.649 268.425 44.3537L272.416 16.5441H284.324L280.744 41.6268C280.436 43.9941 280.707 45.8595 281.55 47.223C282.411 48.5865 283.758 49.268 285.592 49.268C286.775 49.268 287.89 48.9652 288.928 48.3593C289.967 47.7341 290.842 46.8346 291.558 45.6604C292.288 44.4673 292.768 43.0282 292.995 41.3428ZM309.778 60.1761L318.058 2H329.965L326.873 24.015H327.116C327.764 22.6895 328.625 21.4112 329.698 20.1801C330.785 18.9491 332.091 17.9456 333.617 17.1693C335.142 16.3737 336.888 15.9762 338.852 15.9762C341.451 15.9762 343.762 16.7713 345.792 18.3623C347.821 19.953 349.299 22.4051 350.225 25.7192C351.151 29.0332 351.246 33.2564 350.516 38.3887C349.82 43.3314 348.562 47.469 346.741 50.8018C344.924 54.1351 342.757 56.6348 340.241 58.3011C337.741 59.9677 335.112 60.8008 332.352 60.8008C330.469 60.8008 328.885 60.4412 327.603 59.7217C326.338 59.0018 325.323 58.0551 324.558 56.8808C323.811 55.7069 323.293 54.4475 323.002 53.1028H322.539L321.565 60.1761H309.778ZM324.558 38.3603C324.233 40.7085 324.219 42.7535 324.51 44.4957C324.819 46.2383 325.412 47.5922 326.286 48.5581C327.181 49.5048 328.357 49.9783 329.818 49.9783C331.278 49.9783 332.588 49.5048 333.74 48.5581C334.892 47.5922 335.859 46.2383 336.637 44.4957C337.416 42.7535 337.968 40.7085 338.293 38.3603C338.619 36.0117 338.633 33.9759 338.341 32.2529C338.067 30.5295 337.488 29.1944 336.613 28.2473C335.736 27.3006 334.56 26.8271 333.082 26.8271C331.621 26.8271 330.305 27.291 329.136 28.2189C327.984 29.1472 327.01 30.4727 326.214 32.1961C325.436 33.9191 324.884 35.9741 324.558 38.3603Z" fill="#EC4399"/>
<path d="M7 13.4196L8.656 2H50.8071L49.1515 13.4196H34.0296L27.406 60.1761H15.5228L22.1462 13.4196H7ZM44.5307 60.1761L50.7646 16.5441H62.3313L61.1868 24.4977H61.5763C62.6639 21.6192 64.0843 19.4794 65.8377 18.078C67.5911 16.6577 69.4902 15.9478 71.5357 15.9478C72.0877 15.9478 72.6397 15.995 73.1917 16.0898C73.7599 16.1654 74.2957 16.2789 74.7987 16.4305L73.0457 28.5317C72.4937 28.2853 71.7712 28.1053 70.8784 27.9918C69.9856 27.8594 69.1738 27.793 68.4431 27.793C67.0309 27.793 65.716 28.1621 64.4985 28.9009C63.2972 29.6204 62.2744 30.6335 61.4303 31.9402C60.6023 33.228 60.0585 34.7431 59.7986 36.4853L56.4383 60.1761H44.5307ZM88.8371 61C84.9247 61 81.6778 60.1005 79.0968 58.3011C76.5319 56.4833 74.7298 53.8983 73.6909 50.5463C72.6517 47.1754 72.4652 43.1702 73.1307 38.5307C73.7801 34.0235 75.1032 30.0843 77.1 26.7135C79.1129 23.3238 81.6456 20.6913 84.6974 18.8167C87.7495 16.9229 91.1503 15.9762 94.9005 15.9762C97.5628 15.9762 99.9248 16.4589 101.986 17.4248C104.048 18.3907 105.753 19.8298 107.1 21.7424C108.448 23.6362 109.365 25.9656 109.852 28.7305C110.339 31.4954 110.323 34.6675 109.803 38.2463L109.34 41.712H76.8566L77.9523 33.6448H99.381C99.5758 32.1677 99.4702 30.8515 99.0642 29.6964C98.6586 28.5409 98.001 27.6414 97.0921 26.9975C96.199 26.3347 95.1032 26.0036 93.8048 26.0036C92.4896 26.0036 91.2559 26.3631 90.1033 27.083C88.967 27.7834 88.0008 28.7305 87.2054 29.9236C86.41 31.1166 85.8905 32.4609 85.6471 33.9571L84.3566 42.2235C84.0967 44.0601 84.1697 45.632 84.5757 46.9386C84.9816 48.2453 85.6797 49.2492 86.6699 49.9499C87.66 50.6314 88.9345 50.9726 90.4927 50.9726C91.532 50.9726 92.506 50.8114 93.4149 50.4895C94.3242 50.1487 95.1357 49.6467 95.8499 48.984C96.5806 48.3021 97.173 47.4786 97.6277 46.5127L108.488 46.8818C107.611 49.7415 106.256 52.2317 104.421 54.3527C102.587 56.4549 100.347 58.0931 97.7007 59.267C95.071 60.4224 92.1162 61 88.8371 61ZM128.304 35.2922L124.749 60.1761H112.841L119.075 16.5441H130.398L129.278 24.5549H129.692C130.86 21.8844 132.557 19.7918 134.781 18.2767C137.005 16.7429 139.505 15.9762 142.281 15.9762C144.893 15.9762 147.077 16.6577 148.833 18.0212C150.585 19.3846 151.826 21.2976 152.556 23.7594C153.286 26.2023 153.41 29.0712 152.923 32.3665L148.929 60.1761H137.021L140.601 35.0934C140.958 32.6885 140.706 30.8039 139.846 29.4404C139.002 28.0581 137.622 27.367 135.706 27.367C134.456 27.367 133.312 27.689 132.273 28.3329C131.25 28.9577 130.39 29.8572 129.692 31.0314C129.01 32.2053 128.547 33.6256 128.304 35.2922ZM169.84 60.8008C167.08 60.8008 164.686 59.9677 162.657 58.3011C160.627 56.6348 159.173 54.1351 158.299 50.8018C157.438 47.469 157.356 43.3314 158.056 38.3887C158.786 33.2564 160.082 29.0332 161.95 25.7192C163.816 22.4051 165.993 19.953 168.475 18.3623C170.978 16.7713 173.525 15.9762 176.121 15.9762C178.085 15.9762 179.711 16.3737 180.993 17.1693C182.292 17.9456 183.307 18.9491 184.037 20.1801C184.768 21.4112 185.272 22.6895 185.546 24.015H185.813L188.954 2H200.862L192.585 60.1761H180.797L181.795 53.1028H181.432C180.732 54.4475 179.841 55.7069 178.754 56.8808C177.664 58.0551 176.375 59.0018 174.88 59.7217C173.402 60.4412 171.722 60.8008 169.84 60.8008ZM175.466 49.9783C176.909 49.9783 178.216 49.5048 179.385 48.5581C180.554 47.5922 181.538 46.2383 182.333 44.4957C183.143 42.7535 183.712 40.7085 184.037 38.3603C184.377 35.9741 184.394 33.9191 184.085 32.1961C183.777 30.4727 183.167 29.1472 182.258 28.2189C181.367 27.291 180.191 26.8271 178.727 26.8271C177.266 26.8271 175.96 27.3006 174.808 28.2473C173.656 29.1944 172.696 30.5295 171.935 32.2529C171.17 33.9759 170.618 36.0117 170.278 38.3603C169.953 40.7085 169.922 42.7535 170.182 44.4957C170.457 46.2383 171.033 47.5922 171.911 48.5581C172.802 49.5048 173.988 49.9783 175.466 49.9783ZM214.888 60.1761L223.168 2H235.223L231.911 25.35H251.56L254.872 2H266.903L258.623 60.1761H246.592L249.904 36.7977H230.255L226.943 60.1761H214.888ZM292.995 41.3428L296.55 16.5441H308.434L302.2 60.1761H290.852L291.997 52.0521H291.606C290.454 54.7222 288.757 56.8432 286.518 58.4151C284.276 59.9677 281.752 60.744 278.944 60.744C276.393 60.744 274.251 60.0625 272.516 58.699C270.777 57.3356 269.543 55.4322 268.813 52.9892C268.1 50.5275 267.969 47.649 268.425 44.3537L272.416 16.5441H284.324L280.744 41.6268C280.436 43.9941 280.707 45.8595 281.55 47.223C282.411 48.5865 283.758 49.268 285.592 49.268C286.775 49.268 287.89 48.9652 288.928 48.3593C289.967 47.7341 290.842 46.8346 291.558 45.6604C292.288 44.4673 292.768 43.0282 292.995 41.3428ZM309.778 60.1761L318.058 2H329.965L326.873 24.015H327.116C327.764 22.6895 328.625 21.4112 329.698 20.1801C330.785 18.9491 332.091 17.9456 333.617 17.1693C335.142 16.3737 336.888 15.9762 338.852 15.9762C341.451 15.9762 343.762 16.7713 345.792 18.3623C347.821 19.953 349.299 22.4051 350.225 25.7192C351.151 29.0332 351.246 33.2564 350.516 38.3887C349.82 43.3314 348.562 47.469 346.741 50.8018C344.924 54.1351 342.757 56.6348 340.241 58.3011C337.741 59.9677 335.112 60.8008 332.352 60.8008C330.469 60.8008 328.885 60.4412 327.603 59.7217C326.338 59.0018 325.323 58.0551 324.558 56.8808C323.811 55.7069 323.293 54.4475 323.002 53.1028H322.539L321.565 60.1761H309.778ZM324.558 38.3603C324.233 40.7085 324.219 42.7535 324.51 44.4957C324.819 46.2383 325.412 47.5922 326.286 48.5581C327.181 49.5048 328.357 49.9783 329.818 49.9783C331.278 49.9783 332.588 49.5048 333.74 48.5581C334.892 47.5922 335.859 46.2383 336.637 44.4957C337.416 42.7535 337.968 40.7085 338.293 38.3603C338.619 36.0117 338.633 33.9759 338.341 32.2529C338.067 30.5295 337.488 29.1944 336.613 28.2473C335.736 27.3006 334.56 26.8271 333.082 26.8271C331.621 26.8271 330.305 27.291 329.136 28.2189C327.984 29.1472 327.01 30.4727 326.214 32.1961C325.436 33.9191 324.884 35.9741 324.558 38.3603Z" stroke="white" stroke-width="4" mask="url(#path-1-outside-1_1797_322)"/>
</g>
<defs>
<filter id="filter0_d_1797_322" x="0.689453" y="0" width="356.311" height="71" filterUnits="userSpaceOnUse" color-interpolation-filters="sRGB">
<feFlood flood-opacity="0" result="BackgroundImageFix"/>
<feColorMatrix in="SourceAlpha" type="matrix" values="0 0 0 0 0 0 0 0 0 0 0 0 0 0 0 0 0 0 127 0" result="hardAlpha"/>
<feOffset dy="4"/>
<feGaussianBlur stdDeviation="2"/>
<feComposite in2="hardAlpha" operator="out"/>
<feColorMatrix type="matrix" values="0 0 0 0 0 0 0 0 0 0 0 0 0 0 0 0 0 0 0.25 0"/>
<feBlend mode="normal" in2="BackgroundImageFix" result="effect1_dropShadow_1797_322"/>
<feBlend mode="normal" in="SourceGraphic" in2="effect1_dropShadow_1797_322" result="shape"/>
</filter>
</defs>
</svg>
