<svg width="148" height="37" viewBox="0 0 148 37" fill="none" xmlns="http://www.w3.org/2000/svg">
<g filter="url(#filter0_d_1797_322)">
<mask id="path-1-outside-1_1797_322" maskUnits="userSpaceOnUse" x="4" y="0" width="140" height="29" fill="black">
<rect fill="white" x="4" width="140" height="29"/>
<path d="M7 6.83883L7.64988 2H24.1918L23.542 6.83883H17.6076L15.0081 26.6509H10.3447L12.944 6.83883H7ZM21.7286 26.6509L24.1751 8.16276H28.7143L28.2652 11.5329H28.418C28.8448 10.3132 29.4023 9.40653 30.0904 8.8127C30.7785 8.21089 31.5238 7.91007 32.3265 7.91007C32.5431 7.91007 32.7598 7.93008 32.9764 7.97024C33.1994 8.00227 33.4097 8.0504 33.607 8.11463L32.9191 13.2422C32.7025 13.1378 32.4189 13.0616 32.0686 13.0135C31.7182 12.9574 31.3996 12.9292 31.1129 12.9292C30.5586 12.9292 30.0426 13.0857 29.5648 13.3987C29.0934 13.7036 28.692 14.1328 28.3607 14.6865C28.0358 15.2322 27.8224 15.8742 27.7204 16.6124L26.4016 26.6509H21.7286ZM39.1163 27C37.5809 27 36.3067 26.6189 35.2938 25.8564C34.2872 25.0861 33.58 23.9908 33.1723 22.5705C32.7645 21.1421 32.6913 19.445 32.9525 17.4791C33.2073 15.5693 33.7265 13.9001 34.5102 12.4718C35.3001 11.0355 36.2941 9.92004 37.4917 9.12571C38.6895 8.32325 40.0241 7.92211 41.4959 7.92211C42.5406 7.92211 43.4676 8.12666 44.2766 8.53594C45.0857 8.94523 45.7547 9.55499 46.2835 10.3654C46.8123 11.1679 47.1722 12.1549 47.3634 13.3265C47.5545 14.4981 47.5482 15.8422 47.3443 17.3586L47.1627 18.8271H34.4146L34.8447 15.4088H43.2542C43.3306 14.7829 43.2892 14.2252 43.1299 13.7358C42.9707 13.2461 42.7126 12.865 42.3559 12.5921C42.0054 12.3113 41.5754 12.171 41.0658 12.171C40.5497 12.171 40.0656 12.3234 39.6132 12.6284C39.1673 12.9252 38.7881 13.3265 38.476 13.832C38.1638 14.3376 37.96 14.9072 37.8644 15.5412L37.358 19.0439C37.256 19.8221 37.2846 20.4881 37.4439 21.0418C37.6033 21.5955 37.8772 22.0208 38.2658 22.3178C38.6544 22.6065 39.1545 22.7511 39.766 22.7511C40.1739 22.7511 40.5561 22.6828 40.9128 22.5464C41.2697 22.402 41.5882 22.1893 41.8684 21.9085C42.1552 21.6195 42.3877 21.2706 42.5661 20.8613L46.8282 21.0177C46.4841 22.2295 45.9522 23.2846 45.2322 24.1833C44.5124 25.0741 43.6332 25.7683 42.5947 26.2657C41.5627 26.7553 40.4031 27 39.1163 27ZM54.6046 16.1069L53.2094 26.6509H48.5364L50.9827 8.16276H55.4265L54.9869 11.5572H55.1493C55.608 10.4256 56.2737 9.53889 57.1466 8.89692C58.0194 8.24699 59.0004 7.92211 60.0898 7.92211C61.1151 7.92211 61.9722 8.21089 62.6611 8.78863C63.3486 9.36637 63.8357 10.177 64.1223 11.2201C64.4089 12.2552 64.4573 13.4709 64.2663 14.8672L62.6987 26.6509H58.0257L59.4305 16.0226C59.5707 15.0036 59.4719 14.205 59.1343 13.6273C58.8031 13.0416 58.2615 12.7487 57.5097 12.7487C57.0192 12.7487 56.57 12.8852 56.1623 13.158C55.761 13.4227 55.4232 13.8039 55.1493 14.3015C54.8818 14.7989 54.7001 15.4007 54.6046 16.1069ZM70.9051 26.9156C69.8219 26.9156 68.8828 26.5626 68.0862 25.8564C67.2897 25.1504 66.7192 24.0911 66.3761 22.6787C66.0383 21.2665 66.006 19.5133 66.2805 17.4189C66.5671 15.2442 67.0757 13.4548 67.809 12.0505C68.541 10.6462 69.3954 9.60719 70.3696 8.93319C71.3518 8.25902 72.3515 7.92211 73.3701 7.92211C74.1411 7.92211 74.7789 8.09057 75.2821 8.42765C75.792 8.7566 76.1903 9.18181 76.4769 9.70345C76.7635 10.2251 76.9613 10.7667 77.0689 11.3284H77.1739L78.4064 2H83.0794L79.8313 26.6509H75.2054L75.5969 23.6537H75.4543C75.1798 24.2235 74.83 24.7572 74.4035 25.2546C73.9756 25.7522 73.4697 26.1533 72.883 26.4584C72.3031 26.7632 71.6438 26.9156 70.9051 26.9156ZM73.1131 22.3298C73.6796 22.3298 74.1922 22.1291 74.651 21.728C75.1099 21.3187 75.496 20.745 75.8082 20.0066C76.1257 19.2684 76.3491 18.4019 76.4769 17.4069C76.6101 16.3958 76.6168 15.5251 76.4957 14.795C76.3746 14.0647 76.1351 13.5031 75.7786 13.1097C75.4287 12.7165 74.9672 12.5199 74.3927 12.5199C73.8195 12.5199 73.3068 12.7206 72.8548 13.1218C72.4027 13.5231 72.0259 14.0888 71.7272 14.819C71.4272 15.5491 71.2105 16.4118 71.0773 17.4069C70.9495 18.4019 70.9374 19.2684 71.0396 20.0066C71.1473 20.745 71.3733 21.3187 71.7178 21.728C72.0676 22.1291 72.5332 22.3298 73.1131 22.3298ZM88.5839 26.6509L91.8334 2H96.5642L95.2645 11.8941H102.976L104.275 2H108.997L105.747 26.6509H101.026L102.326 16.7448H94.6146L93.3148 26.6509H88.5839ZM119.236 18.6707L120.632 8.16276H125.295L122.849 26.6509H118.395L118.845 23.2085H118.691C118.239 24.3399 117.573 25.2387 116.695 25.9047C115.815 26.5626 114.824 26.8915 113.722 26.8915C112.721 26.8915 111.88 26.6028 111.199 26.025C110.517 25.4473 110.033 24.6407 109.746 23.6056C109.466 22.5625 109.415 21.3428 109.594 19.9465L111.16 8.16276H115.833L114.429 18.791C114.308 19.7941 114.414 20.5845 114.745 21.1623C115.083 21.74 115.611 22.0288 116.331 22.0288C116.796 22.0288 117.233 21.9005 117.641 21.6438C118.048 21.3789 118.391 20.9977 118.673 20.5002C118.959 19.9946 119.147 19.3848 119.236 18.6707ZM125.823 26.6509L129.072 2H133.745L132.531 11.3284H132.627C132.881 10.7667 133.219 10.2251 133.64 9.70345C134.067 9.18181 134.579 8.7566 135.178 8.42765C135.777 8.09057 136.462 7.92211 137.233 7.92211C138.253 7.92211 139.159 8.25902 139.956 8.93319C140.753 9.60719 141.332 10.6462 141.696 12.0505C142.059 13.4548 142.097 15.2442 141.81 17.4189C141.537 19.5133 141.043 21.2665 140.329 22.6787C139.616 24.0911 138.765 25.1504 137.778 25.8564C136.797 26.5626 135.765 26.9156 134.682 26.9156C133.943 26.9156 133.321 26.7632 132.818 26.4584C132.322 26.1533 131.923 25.7522 131.623 25.2546C131.33 24.7572 131.127 24.2235 131.012 23.6537H130.831L130.449 26.6509H125.823ZM131.623 17.4069C131.495 18.4019 131.49 19.2684 131.604 20.0066C131.725 20.745 131.958 21.3187 132.301 21.728C132.653 22.1291 133.114 22.3298 133.687 22.3298C134.26 22.3298 134.774 22.1291 135.227 21.728C135.679 21.3187 136.058 20.745 136.363 20.0066C136.669 19.2684 136.886 18.4019 137.013 17.4069C137.141 16.4118 137.147 15.5491 137.032 14.819C136.925 14.0888 136.697 13.5231 136.354 13.1218C136.01 12.7206 135.548 12.5199 134.968 12.5199C134.395 12.5199 133.878 12.7165 133.419 13.1097C132.967 13.5031 132.585 14.0647 132.273 14.795C131.968 15.5251 131.751 16.3958 131.623 17.4069Z"/>
</mask>
<path d="M7 6.83883L7.64988 2H24.1918L23.542 6.83883H17.6076L15.0081 26.6509H10.3447L12.944 6.83883H7ZM21.7286 26.6509L24.1751 8.16276H28.7143L28.2652 11.5329H28.418C28.8448 10.3132 29.4023 9.40653 30.0904 8.8127C30.7785 8.21089 31.5238 7.91007 32.3265 7.91007C32.5431 7.91007 32.7598 7.93008 32.9764 7.97024C33.1994 8.00227 33.4097 8.0504 33.607 8.11463L32.9191 13.2422C32.7025 13.1378 32.4189 13.0616 32.0686 13.0135C31.7182 12.9574 31.3996 12.9292 31.1129 12.9292C30.5586 12.9292 30.0426 13.0857 29.5648 13.3987C29.0934 13.7036 28.692 14.1328 28.3607 14.6865C28.0358 15.2322 27.8224 15.8742 27.7204 16.6124L26.4016 26.6509H21.7286ZM39.1163 27C37.5809 27 36.3067 26.6189 35.2938 25.8564C34.2872 25.0861 33.58 23.9908 33.1723 22.5705C32.7645 21.1421 32.6913 19.445 32.9525 17.4791C33.2073 15.5693 33.7265 13.9001 34.5102 12.4718C35.3001 11.0355 36.2941 9.92004 37.4917 9.12571C38.6895 8.32325 40.0241 7.92211 41.4959 7.92211C42.5406 7.92211 43.4676 8.12666 44.2766 8.53594C45.0857 8.94523 45.7547 9.55499 46.2835 10.3654C46.8123 11.1679 47.1722 12.1549 47.3634 13.3265C47.5545 14.4981 47.5482 15.8422 47.3443 17.3586L47.1627 18.8271H34.4146L34.8447 15.4088H43.2542C43.3306 14.7829 43.2892 14.2252 43.1299 13.7358C42.9707 13.2461 42.7126 12.865 42.3559 12.5921C42.0054 12.3113 41.5754 12.171 41.0658 12.171C40.5497 12.171 40.0656 12.3234 39.6132 12.6284C39.1673 12.9252 38.7881 13.3265 38.476 13.832C38.1638 14.3376 37.96 14.9072 37.8644 15.5412L37.358 19.0439C37.256 19.8221 37.2846 20.4881 37.4439 21.0418C37.6033 21.5955 37.8772 22.0208 38.2658 22.3178C38.6544 22.6065 39.1545 22.7511 39.766 22.7511C40.1739 22.7511 40.5561 22.6828 40.9128 22.5464C41.2697 22.402 41.5882 22.1893 41.8684 21.9085C42.1552 21.6195 42.3877 21.2706 42.5661 20.8613L46.8282 21.0177C46.4841 22.2295 45.9522 23.2846 45.2322 24.1833C44.5124 25.0741 43.6332 25.7683 42.5947 26.2657C41.5627 26.7553 40.4031 27 39.1163 27ZM54.6046 16.1069L53.2094 26.6509H48.5364L50.9827 8.16276H55.4265L54.9869 11.5572H55.1493C55.608 10.4256 56.2737 9.53889 57.1466 8.89692C58.0194 8.24699 59.0004 7.92211 60.0898 7.92211C61.1151 7.92211 61.9722 8.21089 62.6611 8.78863C63.3486 9.36637 63.8357 10.177 64.1223 11.2201C64.4089 12.2552 64.4573 13.4709 64.2663 14.8672L62.6987 26.6509H58.0257L59.4305 16.0226C59.5707 15.0036 59.4719 14.205 59.1343 13.6273C58.8031 13.0416 58.2615 12.7487 57.5097 12.7487C57.0192 12.7487 56.57 12.8852 56.1623 13.158C55.761 13.4227 55.4232 13.8039 55.1493 14.3015C54.8818 14.7989 54.7001 15.4007 54.6046 16.1069ZM70.9051 26.9156C69.8219 26.9156 68.8828 26.5626 68.0862 25.8564C67.2897 25.1504 66.7192 24.0911 66.3761 22.6787C66.0383 21.2665 66.006 19.5133 66.2805 17.4189C66.5671 15.2442 67.0757 13.4548 67.809 12.0505C68.541 10.6462 69.3954 9.60719 70.3696 8.93319C71.3518 8.25902 72.3515 7.92211 73.3701 7.92211C74.1411 7.92211 74.7789 8.09057 75.2821 8.42765C75.792 8.7566 76.1903 9.18181 76.4769 9.70345C76.7635 10.2251 76.9613 10.7667 77.0689 11.3284H77.1739L78.4064 2H83.0794L79.8313 26.6509H75.2054L75.5969 23.6537H75.4543C75.1798 24.2235 74.83 24.7572 74.4035 25.2546C73.9756 25.7522 73.4697 26.1533 72.883 26.4584C72.3031 26.7632 71.6438 26.9156 70.9051 26.9156ZM73.1131 22.3298C73.6796 22.3298 74.1922 22.1291 74.651 21.728C75.1099 21.3187 75.496 20.745 75.8082 20.0066C76.1257 19.2684 76.3491 18.4019 76.4769 17.4069C76.6101 16.3958 76.6168 15.5251 76.4957 14.795C76.3746 14.0647 76.1351 13.5031 75.7786 13.1097C75.4287 12.7165 74.9672 12.5199 74.3927 12.5199C73.8195 12.5199 73.3068 12.7206 72.8548 13.1218C72.4027 13.5231 72.0259 14.0888 71.7272 14.819C71.4272 15.5491 71.2105 16.4118 71.0773 17.4069C70.9495 18.4019 70.9374 19.2684 71.0396 20.0066C71.1473 20.745 71.3733 21.3187 71.7178 21.728C72.0676 22.1291 72.5332 22.3298 73.1131 22.3298ZM88.5839 26.6509L91.8334 2H96.5642L95.2645 11.8941H102.976L104.275 2H108.997L105.747 26.6509H101.026L102.326 16.7448H94.6146L93.3148 26.6509H88.5839ZM119.236 18.6707L120.632 8.16276H125.295L122.849 26.6509H118.395L118.845 23.2085H118.691C118.239 24.3399 117.573 25.2387 116.695 25.9047C115.815 26.5626 114.824 26.8915 113.722 26.8915C112.721 26.8915 111.88 26.6028 111.199 26.025C110.517 25.4473 110.033 24.6407 109.746 23.6056C109.466 22.5625 109.415 21.3428 109.594 19.9465L111.16 8.16276H115.833L114.429 18.791C114.308 19.7941 114.414 20.5845 114.745 21.1623C115.083 21.74 115.611 22.0288 116.331 22.0288C116.796 22.0288 117.233 21.9005 117.641 21.6438C118.048 21.3789 118.391 20.9977 118.673 20.5002C118.959 19.9946 119.147 19.3848 119.236 18.6707ZM125.823 26.6509L129.072 2H133.745L132.531 11.3284H132.627C132.881 10.7667 133.219 10.2251 133.64 9.70345C134.067 9.18181 134.579 8.7566 135.178 8.42765C135.777 8.09057 136.462 7.92211 137.233 7.92211C138.253 7.92211 139.159 8.25902 139.956 8.93319C140.753 9.60719 141.332 10.6462 141.696 12.0505C142.059 13.4548 142.097 15.2442 141.81 17.4189C141.537 19.5133 141.043 21.2665 140.329 22.6787C139.616 24.0911 138.765 25.1504 137.778 25.8564C136.797 26.5626 135.765 26.9156 134.682 26.9156C133.943 26.9156 133.321 26.7632 132.818 26.4584C132.322 26.1533 131.923 25.7522 131.623 25.2546C131.33 24.7572 131.127 24.2235 131.012 23.6537H130.831L130.449 26.6509H125.823ZM131.623 17.4069C131.495 18.4019 131.49 19.2684 131.604 20.0066C131.725 20.745 131.958 21.3187 132.301 21.728C132.653 22.1291 133.114 22.3298 133.687 22.3298C134.26 22.3298 134.774 22.1291 135.227 21.728C135.679 21.3187 136.058 20.745 136.363 20.0066C136.669 19.2684 136.886 18.4019 137.013 17.4069C137.141 16.4118 137.147 15.5491 137.032 14.819C136.925 14.0888 136.697 13.5231 136.354 13.1218C136.01 12.7206 135.548 12.5199 134.968 12.5199C134.395 12.5199 133.878 12.7165 133.419 13.1097C132.967 13.5031 132.585 14.0647 132.273 14.795C131.968 15.5251 131.751 16.3958 131.623 17.4069Z" fill="#EC4399"/>
<path d="M7 6.83883L7.64988 2H24.1918L23.542 6.83883H17.6076L15.0081 26.6509H10.3447L12.944 6.83883H7ZM21.7286 26.6509L24.1751 8.16276H28.7143L28.2652 11.5329H28.418C28.8448 10.3132 29.4023 9.40653 30.0904 8.8127C30.7785 8.21089 31.5238 7.91007 32.3265 7.91007C32.5431 7.91007 32.7598 7.93008 32.9764 7.97024C33.1994 8.00227 33.4097 8.0504 33.607 8.11463L32.9191 13.2422C32.7025 13.1378 32.4189 13.0616 32.0686 13.0135C31.7182 12.9574 31.3996 12.9292 31.1129 12.9292C30.5586 12.9292 30.0426 13.0857 29.5648 13.3987C29.0934 13.7036 28.692 14.1328 28.3607 14.6865C28.0358 15.2322 27.8224 15.8742 27.7204 16.6124L26.4016 26.6509H21.7286ZM39.1163 27C37.5809 27 36.3067 26.6189 35.2938 25.8564C34.2872 25.0861 33.58 23.9908 33.1723 22.5705C32.7645 21.1421 32.6913 19.445 32.9525 17.4791C33.2073 15.5693 33.7265 13.9001 34.5102 12.4718C35.3001 11.0355 36.2941 9.92004 37.4917 9.12571C38.6895 8.32325 40.0241 7.92211 41.4959 7.92211C42.5406 7.92211 43.4676 8.12666 44.2766 8.53594C45.0857 8.94523 45.7547 9.55499 46.2835 10.3654C46.8123 11.1679 47.1722 12.1549 47.3634 13.3265C47.5545 14.4981 47.5482 15.8422 47.3443 17.3586L47.1627 18.8271H34.4146L34.8447 15.4088H43.2542C43.3306 14.7829 43.2892 14.2252 43.1299 13.7358C42.9707 13.2461 42.7126 12.865 42.3559 12.5921C42.0054 12.3113 41.5754 12.171 41.0658 12.171C40.5497 12.171 40.0656 12.3234 39.6132 12.6284C39.1673 12.9252 38.7881 13.3265 38.476 13.832C38.1638 14.3376 37.96 14.9072 37.8644 15.5412L37.358 19.0439C37.256 19.8221 37.2846 20.4881 37.4439 21.0418C37.6033 21.5955 37.8772 22.0208 38.2658 22.3178C38.6544 22.6065 39.1545 22.7511 39.766 22.7511C40.1739 22.7511 40.5561 22.6828 40.9128 22.5464C41.2697 22.402 41.5882 22.1893 41.8684 21.9085C42.1552 21.6195 42.3877 21.2706 42.5661 20.8613L46.8282 21.0177C46.4841 22.2295 45.9522 23.2846 45.2322 24.1833C44.5124 25.0741 43.6332 25.7683 42.5947 26.2657C41.5627 26.7553 40.4031 27 39.1163 27ZM54.6046 16.1069L53.2094 26.6509H48.5364L50.9827 8.16276H55.4265L54.9869 11.5572H55.1493C55.608 10.4256 56.2737 9.53889 57.1466 8.89692C58.0194 8.24699 59.0004 7.92211 60.0898 7.92211C61.1151 7.92211 61.9722 8.21089 62.6611 8.78863C63.3486 9.36637 63.8357 10.177 64.1223 11.2201C64.4089 12.2552 64.4573 13.4709 64.2663 14.8672L62.6987 26.6509H58.0257L59.4305 16.0226C59.5707 15.0036 59.4719 14.205 59.1343 13.6273C58.8031 13.0416 58.2615 12.7487 57.5097 12.7487C57.0192 12.7487 56.57 12.8852 56.1623 13.158C55.761 13.4227 55.4232 13.8039 55.1493 14.3015C54.8818 14.7989 54.7001 15.4007 54.6046 16.1069ZM70.9051 26.9156C69.8219 26.9156 68.8828 26.5626 68.0862 25.8564C67.2897 25.1504 66.7192 24.0911 66.3761 22.6787C66.0383 21.2665 66.006 19.5133 66.2805 17.4189C66.5671 15.2442 67.0757 13.4548 67.809 12.0505C68.541 10.6462 69.3954 9.60719 70.3696 8.93319C71.3518 8.25902 72.3515 7.92211 73.3701 7.92211C74.1411 7.92211 74.7789 8.09057 75.2821 8.42765C75.792 8.7566 76.1903 9.18181 76.4769 9.70345C76.7635 10.2251 76.9613 10.7667 77.0689 11.3284H77.1739L78.4064 2H83.0794L79.8313 26.6509H75.2054L75.5969 23.6537H75.4543C75.1798 24.2235 74.83 24.7572 74.4035 25.2546C73.9756 25.7522 73.4697 26.1533 72.883 26.4584C72.3031 26.7632 71.6438 26.9156 70.9051 26.9156ZM73.1131 22.3298C73.6796 22.3298 74.1922 22.1291 74.651 21.728C75.1099 21.3187 75.496 20.745 75.8082 20.0066C76.1257 19.2684 76.3491 18.4019 76.4769 17.4069C76.6101 16.3958 76.6168 15.5251 76.4957 14.795C76.3746 14.0647 76.1351 13.5031 75.7786 13.1097C75.4287 12.7165 74.9672 12.5199 74.3927 12.5199C73.8195 12.5199 73.3068 12.7206 72.8548 13.1218C72.4027 13.5231 72.0259 14.0888 71.7272 14.819C71.4272 15.5491 71.2105 16.4118 71.0773 17.4069C70.9495 18.4019 70.9374 19.2684 71.0396 20.0066C71.1473 20.745 71.3733 21.3187 71.7178 21.728C72.0676 22.1291 72.5332 22.3298 73.1131 22.3298ZM88.5839 26.6509L91.8334 2H96.5642L95.2645 11.8941H102.976L104.275 2H108.997L105.747 26.6509H101.026L102.326 16.7448H94.6146L93.3148 26.6509H88.5839ZM119.236 18.6707L120.632 8.16276H125.295L122.849 26.6509H118.395L118.845 23.2085H118.691C118.239 24.3399 117.573 25.2387 116.695 25.9047C115.815 26.5626 114.824 26.8915 113.722 26.8915C112.721 26.8915 111.88 26.6028 111.199 26.025C110.517 25.4473 110.033 24.6407 109.746 23.6056C109.466 22.5625 109.415 21.3428 109.594 19.9465L111.16 8.16276H115.833L114.429 18.791C114.308 19.7941 114.414 20.5845 114.745 21.1623C115.083 21.74 115.611 22.0288 116.331 22.0288C116.796 22.0288 117.233 21.9005 117.641 21.6438C118.048 21.3789 118.391 20.9977 118.673 20.5002C118.959 19.9946 119.147 19.3848 119.236 18.6707ZM125.823 26.6509L129.072 2H133.745L132.531 11.3284H132.627C132.881 10.7667 133.219 10.2251 133.64 9.70345C134.067 9.18181 134.579 8.7566 135.178 8.42765C135.777 8.09057 136.462 7.92211 137.233 7.92211C138.253 7.92211 139.159 8.25902 139.956 8.93319C140.753 9.60719 141.332 10.6462 141.696 12.0505C142.059 13.4548 142.097 15.2442 141.81 17.4189C141.537 19.5133 141.043 21.2665 140.329 22.6787C139.616 24.0911 138.765 25.1504 137.778 25.8564C136.797 26.5626 135.765 26.9156 134.682 26.9156C133.943 26.9156 133.321 26.7632 132.818 26.4584C132.322 26.1533 131.923 25.7522 131.623 25.2546C131.33 24.7572 131.127 24.2235 131.012 23.6537H130.831L130.449 26.6509H125.823ZM131.623 17.4069C131.495 18.4019 131.49 19.2684 131.604 20.0066C131.725 20.745 131.958 21.3187 132.301 21.728C132.653 22.1291 133.114 22.3298 133.687 22.3298C134.26 22.3298 134.774 22.1291 135.227 21.728C135.679 21.3187 136.058 20.745 136.363 20.0066C136.669 19.2684 136.886 18.4019 137.013 17.4069C137.141 16.4118 137.147 15.5491 137.032 14.819C136.925 14.0888 136.697 13.5231 136.354 13.1218C136.01 12.7206 135.548 12.5199 134.968 12.5199C134.395 12.5199 133.878 12.7165 133.419 13.1097C132.967 13.5031 132.585 14.0647 132.273 14.795C131.968 15.5251 131.751 16.3958 131.623 17.4069Z" stroke="white" stroke-width="4" mask="url(#path-1-outside-1_1797_322)"/>
</g>
<defs>
<filter id="filter0_d_1797_322" x="0.713867" y="0" width="147.286" height="37" filterUnits="userSpaceOnUse" color-interpolation-filters="sRGB">
<feFlood flood-opacity="0" result="BackgroundImageFix"/>
<feColorMatrix in="SourceAlpha" type="matrix" values="0 0 0 0 0 0 0 0 0 0 0 0 0 0 0 0 0 0 127 0" result="hardAlpha"/>
<feOffset dy="4"/>
<feGaussianBlur stdDeviation="2"/>
<feComposite in2="hardAlpha" operator="out"/>
<feColorMatrix type="matrix" values="0 0 0 0 0 0 0 0 0 0 0 0 0 0 0 0 0 0 0.25 0"/>
<feBlend mode="normal" in2="BackgroundImageFix" result="effect1_dropShadow_1797_322"/>
<feBlend mode="normal" in="SourceGraphic" in2="effect1_dropShadow_1797_322" result="shape"/>
</filter>
</defs>
</svg>
