<svg width="240" height="47" viewBox="0 0 240 47" fill="none" xmlns="http://www.w3.org/2000/svg">
<g filter="url(#filter0_d_1797_322)">
<mask id="path-1-outside-1_1797_322" maskUnits="userSpaceOnUse" x="4" y="0" width="232" height="39" fill="black">
<rect fill="white" x="4" width="232" height="39"/>
<path d="M7 8.77436L8.09277 2H35.9076L34.8151 8.77436H24.8364L20.4656 36.5112H12.624L16.9947 8.77436H7ZM31.7659 36.5112L35.8796 10.6279H43.5122L42.757 15.3461H43.014C43.7317 13.6385 44.669 12.3691 45.8261 11.5378C46.9831 10.6952 48.2363 10.2741 49.5861 10.2741C49.9503 10.2741 50.3146 10.3021 50.6788 10.3583C51.0537 10.4032 51.4074 10.4706 51.7393 10.5605L50.5825 17.7391C50.2182 17.593 49.7415 17.4862 49.1523 17.4188C48.5632 17.3403 48.0275 17.3009 47.5453 17.3009C46.6134 17.3009 45.7458 17.5199 44.9423 17.9581C44.1496 18.385 43.4747 18.986 42.9177 19.7611C42.3713 20.5251 42.0124 21.4239 41.8409 22.4574L39.6235 36.5112H31.7659ZM61.0029 37C58.4212 37 56.2787 36.4664 54.5755 35.3989C52.8829 34.3206 51.6938 32.7871 51.0083 30.7986C50.3225 28.799 50.1994 26.423 50.6386 23.6707C51.0671 20.997 51.9402 18.6602 53.2578 16.6605C54.5861 14.6497 56.2574 13.0881 58.2712 11.976C60.2853 10.8526 62.5294 10.291 65.0041 10.291C66.7609 10.291 68.3196 10.5773 69.68 11.1503C71.0404 11.7233 72.1653 12.577 73.0545 13.7116C73.9436 14.835 74.5488 16.2169 74.8703 17.8571C75.1916 19.4973 75.181 21.379 74.8382 23.502L74.5328 25.5579H53.0972L53.8203 20.7723H67.9607C68.0892 19.8961 68.0196 19.1153 67.7517 18.4301C67.484 17.7446 67.0501 17.211 66.4503 16.829C65.8609 16.4359 65.1379 16.2394 64.2811 16.2394C63.4132 16.2394 62.5991 16.4527 61.8385 16.8798C61.0887 17.2952 60.4511 17.8571 59.9262 18.5648C59.4013 19.2726 59.0586 20.07 58.898 20.9576L58.0464 25.8614C57.8749 26.9509 57.9231 27.8834 58.1909 28.6585C58.4588 29.4336 58.9194 30.0292 59.5729 30.4449C60.2263 30.8492 61.0672 31.0516 62.0955 31.0516C62.7813 31.0516 63.424 30.9559 64.0238 30.7649C64.6238 30.5628 65.1593 30.265 65.6306 29.8719C66.1127 29.4673 66.5037 28.9788 66.8037 28.4058L73.9703 28.6248C73.3918 30.3213 72.4974 31.7985 71.2868 33.0567C70.0764 34.3037 68.5981 35.2756 66.8519 35.9719C65.1166 36.6574 63.1668 37 61.0029 37ZM87.0463 21.7496L84.7003 36.5112H76.8428L80.9562 10.6279H88.4282L87.6891 15.38H87.9621C88.7334 13.7958 89.8529 12.5544 91.3206 11.6557C92.7882 10.7458 94.4378 10.291 96.2695 10.291C97.9935 10.291 99.4347 10.6952 100.593 11.5041C101.749 12.3129 102.568 13.4477 103.05 14.9081C103.532 16.3573 103.613 18.0592 103.292 20.014L100.656 36.5112H92.7988L95.1609 21.6317C95.3966 20.205 95.2305 19.087 94.6629 18.2782C94.1059 17.4582 93.1952 17.0482 91.9312 17.0482C91.1063 17.0482 90.3511 17.2392 89.6655 17.6212C88.9906 17.9918 88.4228 18.5254 87.9621 19.222C87.5123 19.9184 87.2069 20.7609 87.0463 21.7496ZM114.455 36.8818C112.634 36.8818 111.055 36.3876 109.715 35.3989C108.376 34.4105 107.417 32.9276 106.84 30.9502C106.272 28.9731 106.218 26.5186 106.679 23.5865C107.161 20.5419 108.016 18.0367 109.249 16.0707C110.48 14.1047 111.917 12.6501 113.555 11.7065C115.206 10.7626 116.887 10.291 118.6 10.291C119.896 10.291 120.969 10.5268 121.815 10.9987C122.673 11.4592 123.342 12.0545 123.824 12.7848C124.306 13.5151 124.639 14.2734 124.82 15.0597H124.996L127.069 2H134.926L129.464 36.5112H121.686L122.344 32.3152H122.105C121.643 33.1129 121.055 33.86 120.338 34.5564C119.618 35.253 118.768 35.8146 117.781 36.2417C116.806 36.6685 115.697 36.8818 114.455 36.8818ZM118.168 30.4617C119.12 30.4617 119.982 30.1808 120.754 29.6192C121.525 29.0462 122.175 28.2431 122.7 27.2093C123.234 26.1758 123.609 24.9626 123.824 23.5697C124.048 22.1542 124.059 20.9351 123.856 19.913C123.652 18.8906 123.249 18.1043 122.65 17.5536C122.062 17.0031 121.286 16.7279 120.32 16.7279C119.356 16.7279 118.494 17.0088 117.734 17.5704C116.973 18.1323 116.34 18.9243 115.838 19.9466C115.333 20.9688 114.969 22.1765 114.745 23.5697C114.53 24.9626 114.51 26.1758 114.681 27.2093C114.862 28.2431 115.243 29.0462 115.822 29.6192C116.41 30.1808 117.193 30.4617 118.168 30.4617ZM144.182 36.5112L149.646 2H157.601L155.415 15.8517H168.381L170.567 2H178.506L173.042 36.5112H165.103L167.288 22.6427H154.322L152.137 36.5112H144.182ZM195.723 25.3389L198.069 10.6279H205.911L201.798 36.5112H194.309L195.065 31.6919H194.807C194.047 33.2759 192.927 34.5341 191.449 35.4666C189.97 36.3876 188.305 36.8481 186.452 36.8481C184.768 36.8481 183.354 36.4438 182.209 35.635C181.062 34.8262 180.248 33.697 179.766 32.2478C179.295 30.7875 179.209 29.0799 179.51 27.1251L182.144 10.6279H190.001L187.639 25.5074C187.436 26.9118 187.615 28.0184 188.171 28.8272C188.739 29.636 189.628 30.0403 190.839 30.0403C191.619 30.0403 192.354 29.8607 193.04 29.5013C193.725 29.1304 194.302 28.5968 194.775 27.9002C195.257 27.1925 195.574 26.3388 195.723 25.3389ZM206.798 36.5112L212.262 2H220.119L218.079 15.0597H218.239C218.667 14.2734 219.235 13.5151 219.943 12.7848C220.66 12.0545 221.522 11.4592 222.529 10.9987C223.536 10.5268 224.687 10.291 225.984 10.291C227.699 10.291 229.224 10.7626 230.563 11.7065C231.902 12.6501 232.878 14.1047 233.488 16.0707C234.099 18.0367 234.163 20.5419 233.681 23.5865C233.221 26.5186 232.391 28.9731 231.19 30.9502C229.991 32.9276 228.561 34.4105 226.9 35.3989C225.251 36.3876 223.515 36.8818 221.694 36.8818C220.452 36.8818 219.407 36.6685 218.561 36.2417C217.726 35.8146 217.056 35.253 216.552 34.5564C216.058 33.86 215.717 33.1129 215.524 32.3152H215.219L214.576 36.5112H206.798ZM216.552 23.5697C216.337 24.9626 216.328 26.1758 216.52 27.2093C216.724 28.2431 217.115 29.0462 217.692 29.6192C218.282 30.1808 219.058 30.4617 220.022 30.4617C220.986 30.4617 221.85 30.1808 222.61 29.6192C223.371 29.0462 224.009 28.2431 224.522 27.2093C225.036 26.1758 225.4 24.9626 225.615 23.5697C225.83 22.1765 225.839 20.9688 225.647 19.9466C225.466 18.9243 225.083 18.1323 224.506 17.5704C223.927 17.0088 223.151 16.7279 222.176 16.7279C221.212 16.7279 220.343 17.0031 219.572 17.5536C218.812 18.1043 218.169 18.8906 217.644 19.913C217.131 20.9351 216.767 22.1542 216.552 23.5697Z"/>
</mask>
<path d="M7 8.77436L8.09277 2H35.9076L34.8151 8.77436H24.8364L20.4656 36.5112H12.624L16.9947 8.77436H7ZM31.7659 36.5112L35.8796 10.6279H43.5122L42.757 15.3461H43.014C43.7317 13.6385 44.669 12.3691 45.8261 11.5378C46.9831 10.6952 48.2363 10.2741 49.5861 10.2741C49.9503 10.2741 50.3146 10.3021 50.6788 10.3583C51.0537 10.4032 51.4074 10.4706 51.7393 10.5605L50.5825 17.7391C50.2182 17.593 49.7415 17.4862 49.1523 17.4188C48.5632 17.3403 48.0275 17.3009 47.5453 17.3009C46.6134 17.3009 45.7458 17.5199 44.9423 17.9581C44.1496 18.385 43.4747 18.986 42.9177 19.7611C42.3713 20.5251 42.0124 21.4239 41.8409 22.4574L39.6235 36.5112H31.7659ZM61.0029 37C58.4212 37 56.2787 36.4664 54.5755 35.3989C52.8829 34.3206 51.6938 32.7871 51.0083 30.7986C50.3225 28.799 50.1994 26.423 50.6386 23.6707C51.0671 20.997 51.9402 18.6602 53.2578 16.6605C54.5861 14.6497 56.2574 13.0881 58.2712 11.976C60.2853 10.8526 62.5294 10.291 65.0041 10.291C66.7609 10.291 68.3196 10.5773 69.68 11.1503C71.0404 11.7233 72.1653 12.577 73.0545 13.7116C73.9436 14.835 74.5488 16.2169 74.8703 17.8571C75.1916 19.4973 75.181 21.379 74.8382 23.502L74.5328 25.5579H53.0972L53.8203 20.7723H67.9607C68.0892 19.8961 68.0196 19.1153 67.7517 18.4301C67.484 17.7446 67.0501 17.211 66.4503 16.829C65.8609 16.4359 65.1379 16.2394 64.2811 16.2394C63.4132 16.2394 62.5991 16.4527 61.8385 16.8798C61.0887 17.2952 60.4511 17.8571 59.9262 18.5648C59.4013 19.2726 59.0586 20.07 58.898 20.9576L58.0464 25.8614C57.8749 26.9509 57.9231 27.8834 58.1909 28.6585C58.4588 29.4336 58.9194 30.0292 59.5729 30.4449C60.2263 30.8492 61.0672 31.0516 62.0955 31.0516C62.7813 31.0516 63.424 30.9559 64.0238 30.7649C64.6238 30.5628 65.1593 30.265 65.6306 29.8719C66.1127 29.4673 66.5037 28.9788 66.8037 28.4058L73.9703 28.6248C73.3918 30.3213 72.4974 31.7985 71.2868 33.0567C70.0764 34.3037 68.5981 35.2756 66.8519 35.9719C65.1166 36.6574 63.1668 37 61.0029 37ZM87.0463 21.7496L84.7003 36.5112H76.8428L80.9562 10.6279H88.4282L87.6891 15.38H87.9621C88.7334 13.7958 89.8529 12.5544 91.3206 11.6557C92.7882 10.7458 94.4378 10.291 96.2695 10.291C97.9935 10.291 99.4347 10.6952 100.593 11.5041C101.749 12.3129 102.568 13.4477 103.05 14.9081C103.532 16.3573 103.613 18.0592 103.292 20.014L100.656 36.5112H92.7988L95.1609 21.6317C95.3966 20.205 95.2305 19.087 94.6629 18.2782C94.1059 17.4582 93.1952 17.0482 91.9312 17.0482C91.1063 17.0482 90.3511 17.2392 89.6655 17.6212C88.9906 17.9918 88.4228 18.5254 87.9621 19.222C87.5123 19.9184 87.2069 20.7609 87.0463 21.7496ZM114.455 36.8818C112.634 36.8818 111.055 36.3876 109.715 35.3989C108.376 34.4105 107.417 32.9276 106.84 30.9502C106.272 28.9731 106.218 26.5186 106.679 23.5865C107.161 20.5419 108.016 18.0367 109.249 16.0707C110.48 14.1047 111.917 12.6501 113.555 11.7065C115.206 10.7626 116.887 10.291 118.6 10.291C119.896 10.291 120.969 10.5268 121.815 10.9987C122.673 11.4592 123.342 12.0545 123.824 12.7848C124.306 13.5151 124.639 14.2734 124.82 15.0597H124.996L127.069 2H134.926L129.464 36.5112H121.686L122.344 32.3152H122.105C121.643 33.1129 121.055 33.86 120.338 34.5564C119.618 35.253 118.768 35.8146 117.781 36.2417C116.806 36.6685 115.697 36.8818 114.455 36.8818ZM118.168 30.4617C119.12 30.4617 119.982 30.1808 120.754 29.6192C121.525 29.0462 122.175 28.2431 122.7 27.2093C123.234 26.1758 123.609 24.9626 123.824 23.5697C124.048 22.1542 124.059 20.9351 123.856 19.913C123.652 18.8906 123.249 18.1043 122.65 17.5536C122.062 17.0031 121.286 16.7279 120.32 16.7279C119.356 16.7279 118.494 17.0088 117.734 17.5704C116.973 18.1323 116.34 18.9243 115.838 19.9466C115.333 20.9688 114.969 22.1765 114.745 23.5697C114.53 24.9626 114.51 26.1758 114.681 27.2093C114.862 28.2431 115.243 29.0462 115.822 29.6192C116.41 30.1808 117.193 30.4617 118.168 30.4617ZM144.182 36.5112L149.646 2H157.601L155.415 15.8517H168.381L170.567 2H178.506L173.042 36.5112H165.103L167.288 22.6427H154.322L152.137 36.5112H144.182ZM195.723 25.3389L198.069 10.6279H205.911L201.798 36.5112H194.309L195.065 31.6919H194.807C194.047 33.2759 192.927 34.5341 191.449 35.4666C189.97 36.3876 188.305 36.8481 186.452 36.8481C184.768 36.8481 183.354 36.4438 182.209 35.635C181.062 34.8262 180.248 33.697 179.766 32.2478C179.295 30.7875 179.209 29.0799 179.51 27.1251L182.144 10.6279H190.001L187.639 25.5074C187.436 26.9118 187.615 28.0184 188.171 28.8272C188.739 29.636 189.628 30.0403 190.839 30.0403C191.619 30.0403 192.354 29.8607 193.04 29.5013C193.725 29.1304 194.302 28.5968 194.775 27.9002C195.257 27.1925 195.574 26.3388 195.723 25.3389ZM206.798 36.5112L212.262 2H220.119L218.079 15.0597H218.239C218.667 14.2734 219.235 13.5151 219.943 12.7848C220.66 12.0545 221.522 11.4592 222.529 10.9987C223.536 10.5268 224.687 10.291 225.984 10.291C227.699 10.291 229.224 10.7626 230.563 11.7065C231.902 12.6501 232.878 14.1047 233.488 16.0707C234.099 18.0367 234.163 20.5419 233.681 23.5865C233.221 26.5186 232.391 28.9731 231.19 30.9502C229.991 32.9276 228.561 34.4105 226.9 35.3989C225.251 36.3876 223.515 36.8818 221.694 36.8818C220.452 36.8818 219.407 36.6685 218.561 36.2417C217.726 35.8146 217.056 35.253 216.552 34.5564C216.058 33.86 215.717 33.1129 215.524 32.3152H215.219L214.576 36.5112H206.798ZM216.552 23.5697C216.337 24.9626 216.328 26.1758 216.52 27.2093C216.724 28.2431 217.115 29.0462 217.692 29.6192C218.282 30.1808 219.058 30.4617 220.022 30.4617C220.986 30.4617 221.85 30.1808 222.61 29.6192C223.371 29.0462 224.009 28.2431 224.522 27.2093C225.036 26.1758 225.4 24.9626 225.615 23.5697C225.83 22.1765 225.839 20.9688 225.647 19.9466C225.466 18.9243 225.083 18.1323 224.506 17.5704C223.927 17.0088 223.151 16.7279 222.176 16.7279C221.212 16.7279 220.343 17.0031 219.572 17.5536C218.812 18.1043 218.169 18.8906 217.644 19.913C217.131 20.9351 216.767 22.1542 216.552 23.5697Z" fill="#EC4399"/>
<path d="M7 8.77436L8.09277 2H35.9076L34.8151 8.77436H24.8364L20.4656 36.5112H12.624L16.9947 8.77436H7ZM31.7659 36.5112L35.8796 10.6279H43.5122L42.757 15.3461H43.014C43.7317 13.6385 44.669 12.3691 45.8261 11.5378C46.9831 10.6952 48.2363 10.2741 49.5861 10.2741C49.9503 10.2741 50.3146 10.3021 50.6788 10.3583C51.0537 10.4032 51.4074 10.4706 51.7393 10.5605L50.5825 17.7391C50.2182 17.593 49.7415 17.4862 49.1523 17.4188C48.5632 17.3403 48.0275 17.3009 47.5453 17.3009C46.6134 17.3009 45.7458 17.5199 44.9423 17.9581C44.1496 18.385 43.4747 18.986 42.9177 19.7611C42.3713 20.5251 42.0124 21.4239 41.8409 22.4574L39.6235 36.5112H31.7659ZM61.0029 37C58.4212 37 56.2787 36.4664 54.5755 35.3989C52.8829 34.3206 51.6938 32.7871 51.0083 30.7986C50.3225 28.799 50.1994 26.423 50.6386 23.6707C51.0671 20.997 51.9402 18.6602 53.2578 16.6605C54.5861 14.6497 56.2574 13.0881 58.2712 11.976C60.2853 10.8526 62.5294 10.291 65.0041 10.291C66.7609 10.291 68.3196 10.5773 69.68 11.1503C71.0404 11.7233 72.1653 12.577 73.0545 13.7116C73.9436 14.835 74.5488 16.2169 74.8703 17.8571C75.1916 19.4973 75.181 21.379 74.8382 23.502L74.5328 25.5579H53.0972L53.8203 20.7723H67.9607C68.0892 19.8961 68.0196 19.1153 67.7517 18.4301C67.484 17.7446 67.0501 17.211 66.4503 16.829C65.8609 16.4359 65.1379 16.2394 64.2811 16.2394C63.4132 16.2394 62.5991 16.4527 61.8385 16.8798C61.0887 17.2952 60.4511 17.8571 59.9262 18.5648C59.4013 19.2726 59.0586 20.07 58.898 20.9576L58.0464 25.8614C57.8749 26.9509 57.9231 27.8834 58.1909 28.6585C58.4588 29.4336 58.9194 30.0292 59.5729 30.4449C60.2263 30.8492 61.0672 31.0516 62.0955 31.0516C62.7813 31.0516 63.424 30.9559 64.0238 30.7649C64.6238 30.5628 65.1593 30.265 65.6306 29.8719C66.1127 29.4673 66.5037 28.9788 66.8037 28.4058L73.9703 28.6248C73.3918 30.3213 72.4974 31.7985 71.2868 33.0567C70.0764 34.3037 68.5981 35.2756 66.8519 35.9719C65.1166 36.6574 63.1668 37 61.0029 37ZM87.0463 21.7496L84.7003 36.5112H76.8428L80.9562 10.6279H88.4282L87.6891 15.38H87.9621C88.7334 13.7958 89.8529 12.5544 91.3206 11.6557C92.7882 10.7458 94.4378 10.291 96.2695 10.291C97.9935 10.291 99.4347 10.6952 100.593 11.5041C101.749 12.3129 102.568 13.4477 103.05 14.9081C103.532 16.3573 103.613 18.0592 103.292 20.014L100.656 36.5112H92.7988L95.1609 21.6317C95.3966 20.205 95.2305 19.087 94.6629 18.2782C94.1059 17.4582 93.1952 17.0482 91.9312 17.0482C91.1063 17.0482 90.3511 17.2392 89.6655 17.6212C88.9906 17.9918 88.4228 18.5254 87.9621 19.222C87.5123 19.9184 87.2069 20.7609 87.0463 21.7496ZM114.455 36.8818C112.634 36.8818 111.055 36.3876 109.715 35.3989C108.376 34.4105 107.417 32.9276 106.84 30.9502C106.272 28.9731 106.218 26.5186 106.679 23.5865C107.161 20.5419 108.016 18.0367 109.249 16.0707C110.48 14.1047 111.917 12.6501 113.555 11.7065C115.206 10.7626 116.887 10.291 118.6 10.291C119.896 10.291 120.969 10.5268 121.815 10.9987C122.673 11.4592 123.342 12.0545 123.824 12.7848C124.306 13.5151 124.639 14.2734 124.82 15.0597H124.996L127.069 2H134.926L129.464 36.5112H121.686L122.344 32.3152H122.105C121.643 33.1129 121.055 33.86 120.338 34.5564C119.618 35.253 118.768 35.8146 117.781 36.2417C116.806 36.6685 115.697 36.8818 114.455 36.8818ZM118.168 30.4617C119.12 30.4617 119.982 30.1808 120.754 29.6192C121.525 29.0462 122.175 28.2431 122.7 27.2093C123.234 26.1758 123.609 24.9626 123.824 23.5697C124.048 22.1542 124.059 20.9351 123.856 19.913C123.652 18.8906 123.249 18.1043 122.65 17.5536C122.062 17.0031 121.286 16.7279 120.32 16.7279C119.356 16.7279 118.494 17.0088 117.734 17.5704C116.973 18.1323 116.34 18.9243 115.838 19.9466C115.333 20.9688 114.969 22.1765 114.745 23.5697C114.53 24.9626 114.51 26.1758 114.681 27.2093C114.862 28.2431 115.243 29.0462 115.822 29.6192C116.41 30.1808 117.193 30.4617 118.168 30.4617ZM144.182 36.5112L149.646 2H157.601L155.415 15.8517H168.381L170.567 2H178.506L173.042 36.5112H165.103L167.288 22.6427H154.322L152.137 36.5112H144.182ZM195.723 25.3389L198.069 10.6279H205.911L201.798 36.5112H194.309L195.065 31.6919H194.807C194.047 33.2759 192.927 34.5341 191.449 35.4666C189.97 36.3876 188.305 36.8481 186.452 36.8481C184.768 36.8481 183.354 36.4438 182.209 35.635C181.062 34.8262 180.248 33.697 179.766 32.2478C179.295 30.7875 179.209 29.0799 179.51 27.1251L182.144 10.6279H190.001L187.639 25.5074C187.436 26.9118 187.615 28.0184 188.171 28.8272C188.739 29.636 189.628 30.0403 190.839 30.0403C191.619 30.0403 192.354 29.8607 193.04 29.5013C193.725 29.1304 194.302 28.5968 194.775 27.9002C195.257 27.1925 195.574 26.3388 195.723 25.3389ZM206.798 36.5112L212.262 2H220.119L218.079 15.0597H218.239C218.667 14.2734 219.235 13.5151 219.943 12.7848C220.66 12.0545 221.522 11.4592 222.529 10.9987C223.536 10.5268 224.687 10.291 225.984 10.291C227.699 10.291 229.224 10.7626 230.563 11.7065C231.902 12.6501 232.878 14.1047 233.488 16.0707C234.099 18.0367 234.163 20.5419 233.681 23.5865C233.221 26.5186 232.391 28.9731 231.19 30.9502C229.991 32.9276 228.561 34.4105 226.9 35.3989C225.251 36.3876 223.515 36.8818 221.694 36.8818C220.452 36.8818 219.407 36.6685 218.561 36.2417C217.726 35.8146 217.056 35.253 216.552 34.5564C216.058 33.86 215.717 33.1129 215.524 32.3152H215.219L214.576 36.5112H206.798ZM216.552 23.5697C216.337 24.9626 216.328 26.1758 216.52 27.2093C216.724 28.2431 217.115 29.0462 217.692 29.6192C218.282 30.1808 219.058 30.4617 220.022 30.4617C220.986 30.4617 221.85 30.1808 222.61 29.6192C223.371 29.0462 224.009 28.2431 224.522 27.2093C225.036 26.1758 225.4 24.9626 225.615 23.5697C225.83 22.1765 225.839 20.9688 225.647 19.9466C225.466 18.9243 225.083 18.1323 224.506 17.5704C223.927 17.0088 223.151 16.7279 222.176 16.7279C221.212 16.7279 220.343 17.0031 219.572 17.5536C218.812 18.1043 218.169 18.8906 217.644 19.913C217.131 20.9351 216.767 22.1542 216.552 23.5697Z" stroke="white" stroke-width="4" mask="url(#path-1-outside-1_1797_322)"/>
</g>
<defs>
<filter id="filter0_d_1797_322" x="0.651367" y="0" width="239.349" height="47" filterUnits="userSpaceOnUse" color-interpolation-filters="sRGB">
<feFlood flood-opacity="0" result="BackgroundImageFix"/>
<feColorMatrix in="SourceAlpha" type="matrix" values="0 0 0 0 0 0 0 0 0 0 0 0 0 0 0 0 0 0 127 0" result="hardAlpha"/>
<feOffset dy="4"/>
<feGaussianBlur stdDeviation="2"/>
<feComposite in2="hardAlpha" operator="out"/>
<feColorMatrix type="matrix" values="0 0 0 0 0 0 0 0 0 0 0 0 0 0 0 0 0 0 0.25 0"/>
<feBlend mode="normal" in2="BackgroundImageFix" result="effect1_dropShadow_1797_322"/>
<feBlend mode="normal" in="SourceGraphic" in2="effect1_dropShadow_1797_322" result="shape"/>
</filter>
</defs>
</svg>
