<svg width="291" height="47" viewBox="0 0 291 47" fill="none" xmlns="http://www.w3.org/2000/svg">
<g filter="url(#filter0_d_1797_322)">
<mask id="path-1-outside-1_1797_322" maskUnits="userSpaceOnUse" x="4" y="0" width="283" height="39" fill="black">
<rect fill="white" x="4" width="283" height="39"/>
<path d="M7 8.77436L8.33828 2H42.4023L41.0643 8.77436H28.8437L23.4909 36.5112H13.8876L19.2402 8.77436H7ZM37.3301 36.5112L42.3679 10.6279H51.7154L50.7905 15.3461H51.1053C51.9842 13.6385 53.1321 12.3691 54.5491 11.5378C55.9661 10.6952 57.5008 10.2741 59.1539 10.2741C59.6 10.2741 60.0461 10.3021 60.4922 10.3583C60.9513 10.4032 61.3843 10.4706 61.7908 10.5605L60.3741 17.7391C59.928 17.593 59.3442 17.4862 58.6227 17.4188C57.9012 17.3403 57.2451 17.3009 56.6546 17.3009C55.5133 17.3009 54.4507 17.5199 53.4668 17.9581C52.496 18.385 51.6694 18.986 50.9873 19.7611C50.3181 20.5251 49.8787 21.4239 49.6686 22.4574L46.953 36.5112H37.3301ZM73.1358 37C69.974 37 67.3501 36.4664 65.2643 35.3989C63.1914 34.3206 61.7351 32.7871 60.8956 30.7986C60.0558 28.799 59.905 26.423 60.4428 23.6707C60.9676 20.997 62.0369 18.6602 63.6506 16.6605C65.2773 14.6497 67.3241 13.0881 69.7903 11.976C72.2569 10.8526 75.0052 10.291 78.0359 10.291C80.1874 10.291 82.0962 10.5773 83.7623 11.1503C85.4284 11.7233 86.806 12.577 87.8949 13.7116C88.9838 14.835 89.725 16.2169 90.1187 17.8571C90.5122 19.4973 90.4992 21.379 90.0794 23.502L89.7053 25.5579H63.4538L64.3394 20.7723H81.6568C81.8141 19.8961 81.7288 19.1153 81.4007 18.4301C81.073 17.7446 80.5415 17.211 79.807 16.829C79.0852 16.4359 78.1997 16.2394 77.1504 16.2394C76.0875 16.2394 75.0906 16.4527 74.159 16.8798C73.2408 17.2952 72.46 17.8571 71.8172 18.5648C71.1743 19.2726 70.7546 20.07 70.5578 20.9576L69.5149 25.8614C69.3049 26.9509 69.3639 27.8834 69.692 28.6585C70.02 29.4336 70.5842 30.0292 71.3844 30.4449C72.1846 30.8492 73.2145 31.0516 74.4738 31.0516C75.3136 31.0516 76.1008 30.9559 76.8353 30.7649C77.5701 30.5628 78.226 30.265 78.8031 29.8719C79.3936 29.4673 79.8724 28.9788 80.2398 28.4058L89.0165 28.6248C88.308 30.3213 87.2127 31.7985 85.7301 33.0567C84.2477 34.3037 82.4373 35.2756 80.2988 35.9719C78.1736 36.6574 75.7857 37 73.1358 37ZM105.03 21.7496L102.157 36.5112H92.5343L97.5719 10.6279H106.723L105.817 15.38H106.152C107.096 13.7958 108.467 12.5544 110.265 11.6557C112.062 10.7458 114.082 10.291 116.326 10.291C118.437 10.291 120.202 10.6952 121.621 11.5041C123.036 12.3129 124.039 13.4477 124.63 14.9081C125.22 16.3573 125.32 18.0592 124.926 20.014L121.698 36.5112H112.075L114.968 21.6317C115.257 20.205 115.053 19.087 114.358 18.2782C113.676 17.4582 112.561 17.0482 111.013 17.0482C110.002 17.0482 109.078 17.2392 108.238 17.6212C107.411 17.9918 106.716 18.5254 106.152 19.222C105.601 19.9184 105.227 20.7609 105.03 21.7496ZM138.597 36.8818C136.367 36.8818 134.433 36.3876 132.792 35.3989C131.152 34.4105 129.977 32.9276 129.271 30.9502C128.575 28.9731 128.509 26.5186 129.074 23.5865C129.664 20.5419 130.712 18.0367 132.222 16.0707C133.729 14.1047 135.488 12.6501 137.494 11.7065C139.517 10.7626 141.576 10.291 143.673 10.291C145.261 10.291 146.574 10.5268 147.611 10.9987C148.661 11.4592 149.481 12.0545 150.071 12.7848C150.661 13.5151 151.068 14.2734 151.29 15.0597H151.506L154.044 2H163.667L156.979 36.5112H147.453L148.259 32.3152H147.965C147.4 33.1129 146.68 33.86 145.801 34.5564C144.92 35.253 143.878 35.8146 142.67 36.2417C141.476 36.6685 140.118 36.8818 138.597 36.8818ZM143.144 30.4617C144.311 30.4617 145.366 30.1808 146.311 29.6192C147.256 29.0462 148.051 28.2431 148.694 27.2093C149.348 26.1758 149.808 24.9626 150.071 23.5697C150.345 22.1542 150.359 20.9351 150.11 19.913C149.86 18.8906 149.367 18.1043 148.633 17.5536C147.913 17.0031 146.962 16.7279 145.779 16.7279C144.599 16.7279 143.543 17.0088 142.612 17.5704C141.681 18.1323 140.905 18.9243 140.29 19.9466C139.672 20.9688 139.226 22.1765 138.952 23.5697C138.689 24.9626 138.664 26.1758 138.874 27.2093C139.096 28.2431 139.561 29.0462 140.271 29.6192C140.991 30.1808 141.95 30.4617 143.144 30.4617ZM175.002 36.5112L181.694 2H191.436L188.759 15.8517H204.639L207.315 2H217.038L210.347 36.5112H200.624L203.3 22.6427H187.421L184.745 36.5112H175.002ZM238.124 25.3389L240.997 10.6279H250.6L245.563 36.5112H236.392L237.317 31.6919H237.001C236.07 33.2759 234.699 34.5341 232.89 35.4666C231.078 36.3876 229.038 36.8481 226.769 36.8481C224.707 36.8481 222.976 36.4438 221.574 35.635C220.169 34.8262 219.171 33.697 218.581 32.2478C218.005 30.7875 217.9 29.0799 218.268 27.1251L221.493 10.6279H231.116L228.224 25.5074C227.974 26.9118 228.193 28.0184 228.875 28.8272C229.57 29.636 230.659 30.0403 232.141 30.0403C233.097 30.0403 233.998 29.8607 234.837 29.5013C235.677 29.1304 236.384 28.5968 236.963 27.9002C237.553 27.1925 237.941 26.3388 238.124 25.3389ZM251.687 36.5112L258.378 2H268.001L265.502 15.0597H265.698C266.222 14.2734 266.918 13.5151 267.785 12.7848C268.663 12.0545 269.719 11.4592 270.952 10.9987C272.185 10.5268 273.595 10.291 275.183 10.291C277.283 10.291 279.151 10.7626 280.791 11.7065C282.431 12.6501 283.625 14.1047 284.374 16.0707C285.122 18.0367 285.199 20.5419 284.609 23.5865C284.047 26.5186 283.03 28.9731 281.558 30.9502C280.09 32.9276 278.339 34.4105 276.305 35.3989C274.285 36.3876 272.16 36.8818 269.929 36.8818C268.408 36.8818 267.128 36.6685 266.092 36.2417C265.069 35.8146 264.249 35.253 263.631 34.5564C263.027 33.86 262.609 33.1129 262.374 32.3152H261.999L261.213 36.5112H251.687ZM263.631 23.5697C263.368 24.9626 263.357 26.1758 263.593 27.2093C263.842 28.2431 264.321 29.0462 265.028 29.6192C265.751 30.1808 266.701 30.4617 267.882 30.4617C269.062 30.4617 270.121 30.1808 271.052 29.6192C271.983 29.0462 272.764 28.2431 273.393 27.2093C274.022 26.1758 274.468 24.9626 274.731 23.5697C274.994 22.1765 275.006 20.9688 274.77 19.9466C274.548 18.9243 274.08 18.1323 273.374 17.5704C272.664 17.0088 271.714 16.7279 270.52 16.7279C269.339 16.7279 268.275 17.0031 267.33 17.5536C266.399 18.1043 265.613 18.8906 264.97 19.913C264.341 20.9351 263.895 22.1542 263.631 23.5697Z"/>
</mask>
<path d="M7 8.77436L8.33828 2H42.4023L41.0643 8.77436H28.8437L23.4909 36.5112H13.8876L19.2402 8.77436H7ZM37.3301 36.5112L42.3679 10.6279H51.7154L50.7905 15.3461H51.1053C51.9842 13.6385 53.1321 12.3691 54.5491 11.5378C55.9661 10.6952 57.5008 10.2741 59.1539 10.2741C59.6 10.2741 60.0461 10.3021 60.4922 10.3583C60.9513 10.4032 61.3843 10.4706 61.7908 10.5605L60.3741 17.7391C59.928 17.593 59.3442 17.4862 58.6227 17.4188C57.9012 17.3403 57.2451 17.3009 56.6546 17.3009C55.5133 17.3009 54.4507 17.5199 53.4668 17.9581C52.496 18.385 51.6694 18.986 50.9873 19.7611C50.3181 20.5251 49.8787 21.4239 49.6686 22.4574L46.953 36.5112H37.3301ZM73.1358 37C69.974 37 67.3501 36.4664 65.2643 35.3989C63.1914 34.3206 61.7351 32.7871 60.8956 30.7986C60.0558 28.799 59.905 26.423 60.4428 23.6707C60.9676 20.997 62.0369 18.6602 63.6506 16.6605C65.2773 14.6497 67.3241 13.0881 69.7903 11.976C72.2569 10.8526 75.0052 10.291 78.0359 10.291C80.1874 10.291 82.0962 10.5773 83.7623 11.1503C85.4284 11.7233 86.806 12.577 87.8949 13.7116C88.9838 14.835 89.725 16.2169 90.1187 17.8571C90.5122 19.4973 90.4992 21.379 90.0794 23.502L89.7053 25.5579H63.4538L64.3394 20.7723H81.6568C81.8141 19.8961 81.7288 19.1153 81.4007 18.4301C81.073 17.7446 80.5415 17.211 79.807 16.829C79.0852 16.4359 78.1997 16.2394 77.1504 16.2394C76.0875 16.2394 75.0906 16.4527 74.159 16.8798C73.2408 17.2952 72.46 17.8571 71.8172 18.5648C71.1743 19.2726 70.7546 20.07 70.5578 20.9576L69.5149 25.8614C69.3049 26.9509 69.3639 27.8834 69.692 28.6585C70.02 29.4336 70.5842 30.0292 71.3844 30.4449C72.1846 30.8492 73.2145 31.0516 74.4738 31.0516C75.3136 31.0516 76.1008 30.9559 76.8353 30.7649C77.5701 30.5628 78.226 30.265 78.8031 29.8719C79.3936 29.4673 79.8724 28.9788 80.2398 28.4058L89.0165 28.6248C88.308 30.3213 87.2127 31.7985 85.7301 33.0567C84.2477 34.3037 82.4373 35.2756 80.2988 35.9719C78.1736 36.6574 75.7857 37 73.1358 37ZM105.03 21.7496L102.157 36.5112H92.5343L97.5719 10.6279H106.723L105.817 15.38H106.152C107.096 13.7958 108.467 12.5544 110.265 11.6557C112.062 10.7458 114.082 10.291 116.326 10.291C118.437 10.291 120.202 10.6952 121.621 11.5041C123.036 12.3129 124.039 13.4477 124.63 14.9081C125.22 16.3573 125.32 18.0592 124.926 20.014L121.698 36.5112H112.075L114.968 21.6317C115.257 20.205 115.053 19.087 114.358 18.2782C113.676 17.4582 112.561 17.0482 111.013 17.0482C110.002 17.0482 109.078 17.2392 108.238 17.6212C107.411 17.9918 106.716 18.5254 106.152 19.222C105.601 19.9184 105.227 20.7609 105.03 21.7496ZM138.597 36.8818C136.367 36.8818 134.433 36.3876 132.792 35.3989C131.152 34.4105 129.977 32.9276 129.271 30.9502C128.575 28.9731 128.509 26.5186 129.074 23.5865C129.664 20.5419 130.712 18.0367 132.222 16.0707C133.729 14.1047 135.488 12.6501 137.494 11.7065C139.517 10.7626 141.576 10.291 143.673 10.291C145.261 10.291 146.574 10.5268 147.611 10.9987C148.661 11.4592 149.481 12.0545 150.071 12.7848C150.661 13.5151 151.068 14.2734 151.29 15.0597H151.506L154.044 2H163.667L156.979 36.5112H147.453L148.259 32.3152H147.965C147.4 33.1129 146.68 33.86 145.801 34.5564C144.92 35.253 143.878 35.8146 142.67 36.2417C141.476 36.6685 140.118 36.8818 138.597 36.8818ZM143.144 30.4617C144.311 30.4617 145.366 30.1808 146.311 29.6192C147.256 29.0462 148.051 28.2431 148.694 27.2093C149.348 26.1758 149.808 24.9626 150.071 23.5697C150.345 22.1542 150.359 20.9351 150.11 19.913C149.86 18.8906 149.367 18.1043 148.633 17.5536C147.913 17.0031 146.962 16.7279 145.779 16.7279C144.599 16.7279 143.543 17.0088 142.612 17.5704C141.681 18.1323 140.905 18.9243 140.29 19.9466C139.672 20.9688 139.226 22.1765 138.952 23.5697C138.689 24.9626 138.664 26.1758 138.874 27.2093C139.096 28.2431 139.561 29.0462 140.271 29.6192C140.991 30.1808 141.95 30.4617 143.144 30.4617ZM175.002 36.5112L181.694 2H191.436L188.759 15.8517H204.639L207.315 2H217.038L210.347 36.5112H200.624L203.3 22.6427H187.421L184.745 36.5112H175.002ZM238.124 25.3389L240.997 10.6279H250.6L245.563 36.5112H236.392L237.317 31.6919H237.001C236.07 33.2759 234.699 34.5341 232.89 35.4666C231.078 36.3876 229.038 36.8481 226.769 36.8481C224.707 36.8481 222.976 36.4438 221.574 35.635C220.169 34.8262 219.171 33.697 218.581 32.2478C218.005 30.7875 217.9 29.0799 218.268 27.1251L221.493 10.6279H231.116L228.224 25.5074C227.974 26.9118 228.193 28.0184 228.875 28.8272C229.57 29.636 230.659 30.0403 232.141 30.0403C233.097 30.0403 233.998 29.8607 234.837 29.5013C235.677 29.1304 236.384 28.5968 236.963 27.9002C237.553 27.1925 237.941 26.3388 238.124 25.3389ZM251.687 36.5112L258.378 2H268.001L265.502 15.0597H265.698C266.222 14.2734 266.918 13.5151 267.785 12.7848C268.663 12.0545 269.719 11.4592 270.952 10.9987C272.185 10.5268 273.595 10.291 275.183 10.291C277.283 10.291 279.151 10.7626 280.791 11.7065C282.431 12.6501 283.625 14.1047 284.374 16.0707C285.122 18.0367 285.199 20.5419 284.609 23.5865C284.047 26.5186 283.03 28.9731 281.558 30.9502C280.09 32.9276 278.339 34.4105 276.305 35.3989C274.285 36.3876 272.16 36.8818 269.929 36.8818C268.408 36.8818 267.128 36.6685 266.092 36.2417C265.069 35.8146 264.249 35.253 263.631 34.5564C263.027 33.86 262.609 33.1129 262.374 32.3152H261.999L261.213 36.5112H251.687ZM263.631 23.5697C263.368 24.9626 263.357 26.1758 263.593 27.2093C263.842 28.2431 264.321 29.0462 265.028 29.6192C265.751 30.1808 266.701 30.4617 267.882 30.4617C269.062 30.4617 270.121 30.1808 271.052 29.6192C271.983 29.0462 272.764 28.2431 273.393 27.2093C274.022 26.1758 274.468 24.9626 274.731 23.5697C274.994 22.1765 275.006 20.9688 274.77 19.9466C274.548 18.9243 274.08 18.1323 273.374 17.5704C272.664 17.0088 271.714 16.7279 270.52 16.7279C269.339 16.7279 268.275 17.0031 267.33 17.5536C266.399 18.1043 265.613 18.8906 264.97 19.913C264.341 20.9351 263.895 22.1542 263.631 23.5697Z" fill="#EC4399"/>
<path d="M7 8.77436L8.33828 2H42.4023L41.0643 8.77436H28.8437L23.4909 36.5112H13.8876L19.2402 8.77436H7ZM37.3301 36.5112L42.3679 10.6279H51.7154L50.7905 15.3461H51.1053C51.9842 13.6385 53.1321 12.3691 54.5491 11.5378C55.9661 10.6952 57.5008 10.2741 59.1539 10.2741C59.6 10.2741 60.0461 10.3021 60.4922 10.3583C60.9513 10.4032 61.3843 10.4706 61.7908 10.5605L60.3741 17.7391C59.928 17.593 59.3442 17.4862 58.6227 17.4188C57.9012 17.3403 57.2451 17.3009 56.6546 17.3009C55.5133 17.3009 54.4507 17.5199 53.4668 17.9581C52.496 18.385 51.6694 18.986 50.9873 19.7611C50.3181 20.5251 49.8787 21.4239 49.6686 22.4574L46.953 36.5112H37.3301ZM73.1358 37C69.974 37 67.3501 36.4664 65.2643 35.3989C63.1914 34.3206 61.7351 32.7871 60.8956 30.7986C60.0558 28.799 59.905 26.423 60.4428 23.6707C60.9676 20.997 62.0369 18.6602 63.6506 16.6605C65.2773 14.6497 67.3241 13.0881 69.7903 11.976C72.2569 10.8526 75.0052 10.291 78.0359 10.291C80.1874 10.291 82.0962 10.5773 83.7623 11.1503C85.4284 11.7233 86.806 12.577 87.8949 13.7116C88.9838 14.835 89.725 16.2169 90.1187 17.8571C90.5122 19.4973 90.4992 21.379 90.0794 23.502L89.7053 25.5579H63.4538L64.3394 20.7723H81.6568C81.8141 19.8961 81.7288 19.1153 81.4007 18.4301C81.073 17.7446 80.5415 17.211 79.807 16.829C79.0852 16.4359 78.1997 16.2394 77.1504 16.2394C76.0875 16.2394 75.0906 16.4527 74.159 16.8798C73.2408 17.2952 72.46 17.8571 71.8172 18.5648C71.1743 19.2726 70.7546 20.07 70.5578 20.9576L69.5149 25.8614C69.3049 26.9509 69.3639 27.8834 69.692 28.6585C70.02 29.4336 70.5842 30.0292 71.3844 30.4449C72.1846 30.8492 73.2145 31.0516 74.4738 31.0516C75.3136 31.0516 76.1008 30.9559 76.8353 30.7649C77.5701 30.5628 78.226 30.265 78.8031 29.8719C79.3936 29.4673 79.8724 28.9788 80.2398 28.4058L89.0165 28.6248C88.308 30.3213 87.2127 31.7985 85.7301 33.0567C84.2477 34.3037 82.4373 35.2756 80.2988 35.9719C78.1736 36.6574 75.7857 37 73.1358 37ZM105.03 21.7496L102.157 36.5112H92.5343L97.5719 10.6279H106.723L105.817 15.38H106.152C107.096 13.7958 108.467 12.5544 110.265 11.6557C112.062 10.7458 114.082 10.291 116.326 10.291C118.437 10.291 120.202 10.6952 121.621 11.5041C123.036 12.3129 124.039 13.4477 124.63 14.9081C125.22 16.3573 125.32 18.0592 124.926 20.014L121.698 36.5112H112.075L114.968 21.6317C115.257 20.205 115.053 19.087 114.358 18.2782C113.676 17.4582 112.561 17.0482 111.013 17.0482C110.002 17.0482 109.078 17.2392 108.238 17.6212C107.411 17.9918 106.716 18.5254 106.152 19.222C105.601 19.9184 105.227 20.7609 105.03 21.7496ZM138.597 36.8818C136.367 36.8818 134.433 36.3876 132.792 35.3989C131.152 34.4105 129.977 32.9276 129.271 30.9502C128.575 28.9731 128.509 26.5186 129.074 23.5865C129.664 20.5419 130.712 18.0367 132.222 16.0707C133.729 14.1047 135.488 12.6501 137.494 11.7065C139.517 10.7626 141.576 10.291 143.673 10.291C145.261 10.291 146.574 10.5268 147.611 10.9987C148.661 11.4592 149.481 12.0545 150.071 12.7848C150.661 13.5151 151.068 14.2734 151.29 15.0597H151.506L154.044 2H163.667L156.979 36.5112H147.453L148.259 32.3152H147.965C147.4 33.1129 146.68 33.86 145.801 34.5564C144.92 35.253 143.878 35.8146 142.67 36.2417C141.476 36.6685 140.118 36.8818 138.597 36.8818ZM143.144 30.4617C144.311 30.4617 145.366 30.1808 146.311 29.6192C147.256 29.0462 148.051 28.2431 148.694 27.2093C149.348 26.1758 149.808 24.9626 150.071 23.5697C150.345 22.1542 150.359 20.9351 150.11 19.913C149.86 18.8906 149.367 18.1043 148.633 17.5536C147.913 17.0031 146.962 16.7279 145.779 16.7279C144.599 16.7279 143.543 17.0088 142.612 17.5704C141.681 18.1323 140.905 18.9243 140.29 19.9466C139.672 20.9688 139.226 22.1765 138.952 23.5697C138.689 24.9626 138.664 26.1758 138.874 27.2093C139.096 28.2431 139.561 29.0462 140.271 29.6192C140.991 30.1808 141.95 30.4617 143.144 30.4617ZM175.002 36.5112L181.694 2H191.436L188.759 15.8517H204.639L207.315 2H217.038L210.347 36.5112H200.624L203.3 22.6427H187.421L184.745 36.5112H175.002ZM238.124 25.3389L240.997 10.6279H250.6L245.563 36.5112H236.392L237.317 31.6919H237.001C236.07 33.2759 234.699 34.5341 232.89 35.4666C231.078 36.3876 229.038 36.8481 226.769 36.8481C224.707 36.8481 222.976 36.4438 221.574 35.635C220.169 34.8262 219.171 33.697 218.581 32.2478C218.005 30.7875 217.9 29.0799 218.268 27.1251L221.493 10.6279H231.116L228.224 25.5074C227.974 26.9118 228.193 28.0184 228.875 28.8272C229.57 29.636 230.659 30.0403 232.141 30.0403C233.097 30.0403 233.998 29.8607 234.837 29.5013C235.677 29.1304 236.384 28.5968 236.963 27.9002C237.553 27.1925 237.941 26.3388 238.124 25.3389ZM251.687 36.5112L258.378 2H268.001L265.502 15.0597H265.698C266.222 14.2734 266.918 13.5151 267.785 12.7848C268.663 12.0545 269.719 11.4592 270.952 10.9987C272.185 10.5268 273.595 10.291 275.183 10.291C277.283 10.291 279.151 10.7626 280.791 11.7065C282.431 12.6501 283.625 14.1047 284.374 16.0707C285.122 18.0367 285.199 20.5419 284.609 23.5865C284.047 26.5186 283.03 28.9731 281.558 30.9502C280.09 32.9276 278.339 34.4105 276.305 35.3989C274.285 36.3876 272.16 36.8818 269.929 36.8818C268.408 36.8818 267.128 36.6685 266.092 36.2417C265.069 35.8146 264.249 35.253 263.631 34.5564C263.027 33.86 262.609 33.1129 262.374 32.3152H261.999L261.213 36.5112H251.687ZM263.631 23.5697C263.368 24.9626 263.357 26.1758 263.593 27.2093C263.842 28.2431 264.321 29.0462 265.028 29.6192C265.751 30.1808 266.701 30.4617 267.882 30.4617C269.062 30.4617 270.121 30.1808 271.052 29.6192C271.983 29.0462 272.764 28.2431 273.393 27.2093C274.022 26.1758 274.468 24.9626 274.731 23.5697C274.994 22.1765 275.006 20.9688 274.77 19.9466C274.548 18.9243 274.08 18.1323 273.374 17.5704C272.664 17.0088 271.714 16.7279 270.52 16.7279C269.339 16.7279 268.275 17.0031 267.33 17.5536C266.399 18.1043 265.613 18.8906 264.97 19.913C264.341 20.9351 263.895 22.1542 263.631 23.5697Z" stroke="white" stroke-width="4" mask="url(#path-1-outside-1_1797_322)"/>
</g>
<defs>
<filter id="filter0_d_1797_322" x="0.566406" y="0" width="290.434" height="47" filterUnits="userSpaceOnUse" color-interpolation-filters="sRGB">
<feFlood flood-opacity="0" result="BackgroundImageFix"/>
<feColorMatrix in="SourceAlpha" type="matrix" values="0 0 0 0 0 0 0 0 0 0 0 0 0 0 0 0 0 0 127 0" result="hardAlpha"/>
<feOffset dy="4"/>
<feGaussianBlur stdDeviation="2"/>
<feComposite in2="hardAlpha" operator="out"/>
<feColorMatrix type="matrix" values="0 0 0 0 0 0 0 0 0 0 0 0 0 0 0 0 0 0 0.25 0"/>
<feBlend mode="normal" in2="BackgroundImageFix" result="effect1_dropShadow_1797_322"/>
<feBlend mode="normal" in="SourceGraphic" in2="effect1_dropShadow_1797_322" result="shape"/>
</filter>
</defs>
</svg>
