<svg width="114" height="26" viewBox="0 0 114 26" fill="none" xmlns="http://www.w3.org/2000/svg">
<g filter="url(#filter0_d_1797_322)">
<mask id="path-1-outside-1_1797_322" maskUnits="userSpaceOnUse" x="4" y="0" width="106" height="18" fill="black">
<rect fill="white" x="4" width="106" height="18"/>
<path d="M7 4.55778L7.483 2H19.777L19.2941 4.55778H14.8836L12.9517 15.0303H9.4858L11.4176 4.55778H7ZM17.9464 15.0303L19.7646 5.25761H23.1382L22.8044 7.03906H22.918C23.2352 6.39433 23.6495 5.91506 24.1609 5.60116C24.6723 5.28305 25.2262 5.12404 25.8228 5.12404C25.9838 5.12404 26.1448 5.13461 26.3058 5.15584C26.4715 5.17277 26.6278 5.19821 26.7745 5.23217L26.2632 7.9426C26.1022 7.88742 25.8915 7.8471 25.6311 7.82166C25.3707 7.79201 25.1339 7.77714 24.9208 7.77714C24.5089 7.77714 24.1254 7.85983 23.7703 8.02529C23.4199 8.18645 23.1216 8.41336 22.8754 8.70603C22.6339 8.99449 22.4753 9.33383 22.3995 9.72405L21.4194 15.0303H17.9464ZM30.869 15.2149C29.7279 15.2149 28.7809 15.0134 28.0281 14.6104C27.28 14.2032 26.7544 13.6242 26.4514 12.8734C26.1483 12.1184 26.0939 11.2214 26.288 10.1822C26.4774 9.17267 26.8633 8.29036 27.4457 7.53535C28.0328 6.77613 28.7715 6.1865 29.6616 5.76662C30.5518 5.34244 31.5437 5.1304 32.6375 5.1304C33.414 5.1304 34.1029 5.23853 34.7042 5.45487C35.3055 5.67121 35.8027 5.99354 36.1957 6.42192C36.5887 6.8461 36.8562 7.36783 36.9983 7.98712C37.1403 8.60641 37.1356 9.3169 36.9841 10.1185L36.8491 10.8947H27.3747L27.6943 9.08783H33.9443C34.0011 8.757 33.9703 8.46218 33.8519 8.20347C33.7336 7.94466 33.5418 7.74319 33.2767 7.59896C33.0162 7.45052 32.6966 7.37634 32.3179 7.37634C31.9343 7.37634 31.5745 7.45688 31.2383 7.61813C30.9069 7.77499 30.6251 7.98712 30.3931 8.25435C30.1611 8.52158 30.0096 8.82267 29.9386 9.1578L29.5622 11.0093C29.4864 11.4207 29.5077 11.7727 29.6261 12.0654C29.7445 12.3581 29.9481 12.5829 30.2369 12.7399C30.5257 12.8925 30.8974 12.9689 31.3519 12.9689C31.655 12.9689 31.9391 12.9328 32.2042 12.8607C32.4694 12.7844 32.7061 12.672 32.9144 12.5235C33.1275 12.3708 33.3003 12.1863 33.4329 11.97L36.6005 12.0527C36.3448 12.6932 35.9495 13.251 35.4144 13.726C34.8794 14.1969 34.226 14.5638 33.4542 14.8267C32.6872 15.0855 31.8254 15.2149 30.869 15.2149ZM42.38 9.45683L41.3431 15.0303H37.8701L39.6882 5.25761H42.9908L42.6641 7.05187H42.7848C43.1257 6.45372 43.6205 5.98502 44.2692 5.64568C44.9179 5.30213 45.647 5.1304 46.4566 5.1304C47.2186 5.1304 47.8556 5.28305 48.3676 5.58844C48.8786 5.89383 49.2406 6.32231 49.4536 6.87369C49.6666 7.42087 49.7026 8.06345 49.5606 8.80153L48.3956 15.0303H44.9226L45.9666 9.4123C46.0708 8.87364 45.9974 8.45152 45.7465 8.14613C45.5003 7.83653 45.0978 7.68173 44.5391 7.68173C44.1745 7.68173 43.8407 7.75385 43.5377 7.89808C43.2394 8.03801 42.9884 8.23948 42.7848 8.5025C42.586 8.76542 42.451 9.08353 42.38 9.45683ZM54.4946 15.1703C53.6896 15.1703 52.9916 14.9837 52.3996 14.6104C51.8076 14.2372 51.3836 13.6773 51.1286 12.9307C50.8776 12.1842 50.8536 11.2575 51.0576 10.1504C51.2706 9.00085 51.6486 8.05494 52.1936 7.31265C52.7376 6.57036 53.3726 6.02113 54.0966 5.66485C54.8266 5.30849 55.5696 5.1304 56.3266 5.1304C56.8996 5.1304 57.3736 5.21945 57.7476 5.39763C58.1266 5.57151 58.4226 5.79627 58.6356 6.07201C58.8486 6.34775 58.9956 6.63406 59.0756 6.93093H59.1536L60.0696 2H63.5426L61.1286 15.0303H57.6906L57.9816 13.4461H57.8756C57.6716 13.7472 57.4116 14.0293 57.0946 14.2923C56.7766 14.5553 56.4006 14.7673 55.9646 14.9286C55.5336 15.0897 55.0436 15.1703 54.4946 15.1703ZM56.1356 12.7462C56.5566 12.7462 56.9376 12.6402 57.2786 12.4281C57.6196 12.2118 57.9066 11.9085 58.1386 11.5182C58.3746 11.128 58.5406 10.67 58.6356 10.144C58.7346 9.60957 58.7396 9.14929 58.6496 8.76336C58.5596 8.37735 58.3816 8.08047 58.1166 7.87255C57.8566 7.66471 57.5136 7.5608 57.0866 7.5608C56.6606 7.5608 56.2796 7.66686 55.9436 7.87891C55.6076 8.09104 55.3276 8.39007 55.1056 8.77608C54.8826 9.16201 54.7216 9.61799 54.6226 10.144C54.5276 10.67 54.5186 11.128 54.5946 11.5182C54.6746 11.9085 54.8426 12.2118 55.0986 12.4281C55.3586 12.6402 55.7046 12.7462 56.1356 12.7462ZM67.6336 15.0303L70.0486 2H73.5646L72.5986 7.22997H78.3296L79.2956 2H82.8046L80.3896 15.0303H76.8806L77.8466 9.79402H72.1156L71.1496 15.0303H67.6336ZM90.4146 10.812L91.4516 5.25761H94.9176L93.0996 15.0303H89.7896L90.1236 13.2107H90.0096C89.6736 13.8088 89.1786 14.2838 88.5256 14.6359C87.8716 14.9837 87.1356 15.1576 86.3166 15.1576C85.5726 15.1576 84.9476 15.0049 84.4416 14.6995C83.9346 14.3941 83.5746 13.9678 83.3616 13.4206C83.1536 12.8692 83.1156 12.2245 83.2486 11.4864L84.4126 5.25761H87.8856L86.8416 10.8756C86.7516 11.4059 86.8306 11.8237 87.0766 12.1291C87.3276 12.4345 87.7206 12.5871 88.2556 12.5871C88.6006 12.5871 88.9256 12.5193 89.2286 12.3836C89.5316 12.2436 89.7866 12.0421 89.9956 11.7791C90.2086 11.5119 90.3486 11.1895 90.4146 10.812ZM95.3096 15.0303L97.7246 2H101.198L100.296 6.93093H100.367C100.556 6.63406 100.807 6.34775 101.12 6.07201C101.437 5.79627 101.818 5.57151 102.263 5.39763C102.708 5.21945 103.217 5.1304 103.79 5.1304C104.548 5.1304 105.222 5.30849 105.814 5.66485C106.406 6.02113 106.837 6.57036 107.107 7.31265C107.377 8.05494 107.405 9.00085 107.192 10.1504C106.989 11.2575 106.622 12.1842 106.091 12.9307C105.561 13.6773 104.929 14.2372 104.195 14.6104C103.466 14.9837 102.699 15.1703 101.894 15.1703C101.345 15.1703 100.883 15.0897 100.509 14.9286C100.14 14.7673 99.8436 14.5553 99.6206 14.2923C99.4026 14.0293 99.2516 13.7472 99.1666 13.4461H99.0316L98.7476 15.0303H95.3096ZM99.6206 10.144C99.5256 10.67 99.5216 11.128 99.6066 11.5182C99.6966 11.9085 99.8696 12.2118 100.125 12.4281C100.386 12.6402 100.729 12.7462 101.155 12.7462C101.581 12.7462 101.963 12.6402 102.299 12.4281C102.635 12.2118 102.917 11.9085 103.144 11.5182C103.371 11.128 103.532 10.67 103.627 10.144C103.722 9.61799 103.726 9.16201 103.641 8.77608C103.561 8.39007 103.392 8.09104 103.137 7.87891C102.881 7.66686 102.538 7.5608 102.107 7.5608C101.681 7.5608 101.297 7.66471 100.956 7.87255C100.62 8.08047 100.336 8.37735 100.104 8.76336C99.8766 9.14929 99.7156 9.60957 99.6206 10.144Z"/>
</mask>
<path d="M7 4.55778L7.483 2H19.777L19.2941 4.55778H14.8836L12.9517 15.0303H9.4858L11.4176 4.55778H7ZM17.9464 15.0303L19.7646 5.25761H23.1382L22.8044 7.03906H22.918C23.2352 6.39433 23.6495 5.91506 24.1609 5.60116C24.6723 5.28305 25.2262 5.12404 25.8228 5.12404C25.9838 5.12404 26.1448 5.13461 26.3058 5.15584C26.4715 5.17277 26.6278 5.19821 26.7745 5.23217L26.2632 7.9426C26.1022 7.88742 25.8915 7.8471 25.6311 7.82166C25.3707 7.79201 25.1339 7.77714 24.9208 7.77714C24.5089 7.77714 24.1254 7.85983 23.7703 8.02529C23.4199 8.18645 23.1216 8.41336 22.8754 8.70603C22.6339 8.99449 22.4753 9.33383 22.3995 9.72405L21.4194 15.0303H17.9464ZM30.869 15.2149C29.7279 15.2149 28.7809 15.0134 28.0281 14.6104C27.28 14.2032 26.7544 13.6242 26.4514 12.8734C26.1483 12.1184 26.0939 11.2214 26.288 10.1822C26.4774 9.17267 26.8633 8.29036 27.4457 7.53535C28.0328 6.77613 28.7715 6.1865 29.6616 5.76662C30.5518 5.34244 31.5437 5.1304 32.6375 5.1304C33.414 5.1304 34.1029 5.23853 34.7042 5.45487C35.3055 5.67121 35.8027 5.99354 36.1957 6.42192C36.5887 6.8461 36.8562 7.36783 36.9983 7.98712C37.1403 8.60641 37.1356 9.3169 36.9841 10.1185L36.8491 10.8947H27.3747L27.6943 9.08783H33.9443C34.0011 8.757 33.9703 8.46218 33.8519 8.20347C33.7336 7.94466 33.5418 7.74319 33.2767 7.59896C33.0162 7.45052 32.6966 7.37634 32.3179 7.37634C31.9343 7.37634 31.5745 7.45688 31.2383 7.61813C30.9069 7.77499 30.6251 7.98712 30.3931 8.25435C30.1611 8.52158 30.0096 8.82267 29.9386 9.1578L29.5622 11.0093C29.4864 11.4207 29.5077 11.7727 29.6261 12.0654C29.7445 12.3581 29.9481 12.5829 30.2369 12.7399C30.5257 12.8925 30.8974 12.9689 31.3519 12.9689C31.655 12.9689 31.9391 12.9328 32.2042 12.8607C32.4694 12.7844 32.7061 12.672 32.9144 12.5235C33.1275 12.3708 33.3003 12.1863 33.4329 11.97L36.6005 12.0527C36.3448 12.6932 35.9495 13.251 35.4144 13.726C34.8794 14.1969 34.226 14.5638 33.4542 14.8267C32.6872 15.0855 31.8254 15.2149 30.869 15.2149ZM42.38 9.45683L41.3431 15.0303H37.8701L39.6882 5.25761H42.9908L42.6641 7.05187H42.7848C43.1257 6.45372 43.6205 5.98502 44.2692 5.64568C44.9179 5.30213 45.647 5.1304 46.4566 5.1304C47.2186 5.1304 47.8556 5.28305 48.3676 5.58844C48.8786 5.89383 49.2406 6.32231 49.4536 6.87369C49.6666 7.42087 49.7026 8.06345 49.5606 8.80153L48.3956 15.0303H44.9226L45.9666 9.4123C46.0708 8.87364 45.9974 8.45152 45.7465 8.14613C45.5003 7.83653 45.0978 7.68173 44.5391 7.68173C44.1745 7.68173 43.8407 7.75385 43.5377 7.89808C43.2394 8.03801 42.9884 8.23948 42.7848 8.5025C42.586 8.76542 42.451 9.08353 42.38 9.45683ZM54.4946 15.1703C53.6896 15.1703 52.9916 14.9837 52.3996 14.6104C51.8076 14.2372 51.3836 13.6773 51.1286 12.9307C50.8776 12.1842 50.8536 11.2575 51.0576 10.1504C51.2706 9.00085 51.6486 8.05494 52.1936 7.31265C52.7376 6.57036 53.3726 6.02113 54.0966 5.66485C54.8266 5.30849 55.5696 5.1304 56.3266 5.1304C56.8996 5.1304 57.3736 5.21945 57.7476 5.39763C58.1266 5.57151 58.4226 5.79627 58.6356 6.07201C58.8486 6.34775 58.9956 6.63406 59.0756 6.93093H59.1536L60.0696 2H63.5426L61.1286 15.0303H57.6906L57.9816 13.4461H57.8756C57.6716 13.7472 57.4116 14.0293 57.0946 14.2923C56.7766 14.5553 56.4006 14.7673 55.9646 14.9286C55.5336 15.0897 55.0436 15.1703 54.4946 15.1703ZM56.1356 12.7462C56.5566 12.7462 56.9376 12.6402 57.2786 12.4281C57.6196 12.2118 57.9066 11.9085 58.1386 11.5182C58.3746 11.128 58.5406 10.67 58.6356 10.144C58.7346 9.60957 58.7396 9.14929 58.6496 8.76336C58.5596 8.37735 58.3816 8.08047 58.1166 7.87255C57.8566 7.66471 57.5136 7.5608 57.0866 7.5608C56.6606 7.5608 56.2796 7.66686 55.9436 7.87891C55.6076 8.09104 55.3276 8.39007 55.1056 8.77608C54.8826 9.16201 54.7216 9.61799 54.6226 10.144C54.5276 10.67 54.5186 11.128 54.5946 11.5182C54.6746 11.9085 54.8426 12.2118 55.0986 12.4281C55.3586 12.6402 55.7046 12.7462 56.1356 12.7462ZM67.6336 15.0303L70.0486 2H73.5646L72.5986 7.22997H78.3296L79.2956 2H82.8046L80.3896 15.0303H76.8806L77.8466 9.79402H72.1156L71.1496 15.0303H67.6336ZM90.4146 10.812L91.4516 5.25761H94.9176L93.0996 15.0303H89.7896L90.1236 13.2107H90.0096C89.6736 13.8088 89.1786 14.2838 88.5256 14.6359C87.8716 14.9837 87.1356 15.1576 86.3166 15.1576C85.5726 15.1576 84.9476 15.0049 84.4416 14.6995C83.9346 14.3941 83.5746 13.9678 83.3616 13.4206C83.1536 12.8692 83.1156 12.2245 83.2486 11.4864L84.4126 5.25761H87.8856L86.8416 10.8756C86.7516 11.4059 86.8306 11.8237 87.0766 12.1291C87.3276 12.4345 87.7206 12.5871 88.2556 12.5871C88.6006 12.5871 88.9256 12.5193 89.2286 12.3836C89.5316 12.2436 89.7866 12.0421 89.9956 11.7791C90.2086 11.5119 90.3486 11.1895 90.4146 10.812ZM95.3096 15.0303L97.7246 2H101.198L100.296 6.93093H100.367C100.556 6.63406 100.807 6.34775 101.12 6.07201C101.437 5.79627 101.818 5.57151 102.263 5.39763C102.708 5.21945 103.217 5.1304 103.79 5.1304C104.548 5.1304 105.222 5.30849 105.814 5.66485C106.406 6.02113 106.837 6.57036 107.107 7.31265C107.377 8.05494 107.405 9.00085 107.192 10.1504C106.989 11.2575 106.622 12.1842 106.091 12.9307C105.561 13.6773 104.929 14.2372 104.195 14.6104C103.466 14.9837 102.699 15.1703 101.894 15.1703C101.345 15.1703 100.883 15.0897 100.509 14.9286C100.14 14.7673 99.8436 14.5553 99.6206 14.2923C99.4026 14.0293 99.2516 13.7472 99.1666 13.4461H99.0316L98.7476 15.0303H95.3096ZM99.6206 10.144C99.5256 10.67 99.5216 11.128 99.6066 11.5182C99.6966 11.9085 99.8696 12.2118 100.125 12.4281C100.386 12.6402 100.729 12.7462 101.155 12.7462C101.581 12.7462 101.963 12.6402 102.299 12.4281C102.635 12.2118 102.917 11.9085 103.144 11.5182C103.371 11.128 103.532 10.67 103.627 10.144C103.722 9.61799 103.726 9.16201 103.641 8.77608C103.561 8.39007 103.392 8.09104 103.137 7.87891C102.881 7.66686 102.538 7.5608 102.107 7.5608C101.681 7.5608 101.297 7.66471 100.956 7.87255C100.62 8.08047 100.336 8.37735 100.104 8.76336C99.8766 9.14929 99.7156 9.60957 99.6206 10.144Z" fill="#EC4399"/>
<path d="M7 4.55778L7.483 2H19.777L19.2941 4.55778H14.8836L12.9517 15.0303H9.4858L11.4176 4.55778H7ZM17.9464 15.0303L19.7646 5.25761H23.1382L22.8044 7.03906H22.918C23.2352 6.39433 23.6495 5.91506 24.1609 5.60116C24.6723 5.28305 25.2262 5.12404 25.8228 5.12404C25.9838 5.12404 26.1448 5.13461 26.3058 5.15584C26.4715 5.17277 26.6278 5.19821 26.7745 5.23217L26.2632 7.9426C26.1022 7.88742 25.8915 7.8471 25.6311 7.82166C25.3707 7.79201 25.1339 7.77714 24.9208 7.77714C24.5089 7.77714 24.1254 7.85983 23.7703 8.02529C23.4199 8.18645 23.1216 8.41336 22.8754 8.70603C22.6339 8.99449 22.4753 9.33383 22.3995 9.72405L21.4194 15.0303H17.9464ZM30.869 15.2149C29.7279 15.2149 28.7809 15.0134 28.0281 14.6104C27.28 14.2032 26.7544 13.6242 26.4514 12.8734C26.1483 12.1184 26.0939 11.2214 26.288 10.1822C26.4774 9.17267 26.8633 8.29036 27.4457 7.53535C28.0328 6.77613 28.7715 6.1865 29.6616 5.76662C30.5518 5.34244 31.5437 5.1304 32.6375 5.1304C33.414 5.1304 34.1029 5.23853 34.7042 5.45487C35.3055 5.67121 35.8027 5.99354 36.1957 6.42192C36.5887 6.8461 36.8562 7.36783 36.9983 7.98712C37.1403 8.60641 37.1356 9.3169 36.9841 10.1185L36.8491 10.8947H27.3747L27.6943 9.08783H33.9443C34.0011 8.757 33.9703 8.46218 33.8519 8.20347C33.7336 7.94466 33.5418 7.74319 33.2767 7.59896C33.0162 7.45052 32.6966 7.37634 32.3179 7.37634C31.9343 7.37634 31.5745 7.45688 31.2383 7.61813C30.9069 7.77499 30.6251 7.98712 30.3931 8.25435C30.1611 8.52158 30.0096 8.82267 29.9386 9.1578L29.5622 11.0093C29.4864 11.4207 29.5077 11.7727 29.6261 12.0654C29.7445 12.3581 29.9481 12.5829 30.2369 12.7399C30.5257 12.8925 30.8974 12.9689 31.3519 12.9689C31.655 12.9689 31.9391 12.9328 32.2042 12.8607C32.4694 12.7844 32.7061 12.672 32.9144 12.5235C33.1275 12.3708 33.3003 12.1863 33.4329 11.97L36.6005 12.0527C36.3448 12.6932 35.9495 13.251 35.4144 13.726C34.8794 14.1969 34.226 14.5638 33.4542 14.8267C32.6872 15.0855 31.8254 15.2149 30.869 15.2149ZM42.38 9.45683L41.3431 15.0303H37.8701L39.6882 5.25761H42.9908L42.6641 7.05187H42.7848C43.1257 6.45372 43.6205 5.98502 44.2692 5.64568C44.9179 5.30213 45.647 5.1304 46.4566 5.1304C47.2186 5.1304 47.8556 5.28305 48.3676 5.58844C48.8786 5.89383 49.2406 6.32231 49.4536 6.87369C49.6666 7.42087 49.7026 8.06345 49.5606 8.80153L48.3956 15.0303H44.9226L45.9666 9.4123C46.0708 8.87364 45.9974 8.45152 45.7465 8.14613C45.5003 7.83653 45.0978 7.68173 44.5391 7.68173C44.1745 7.68173 43.8407 7.75385 43.5377 7.89808C43.2394 8.03801 42.9884 8.23948 42.7848 8.5025C42.586 8.76542 42.451 9.08353 42.38 9.45683ZM54.4946 15.1703C53.6896 15.1703 52.9916 14.9837 52.3996 14.6104C51.8076 14.2372 51.3836 13.6773 51.1286 12.9307C50.8776 12.1842 50.8536 11.2575 51.0576 10.1504C51.2706 9.00085 51.6486 8.05494 52.1936 7.31265C52.7376 6.57036 53.3726 6.02113 54.0966 5.66485C54.8266 5.30849 55.5696 5.1304 56.3266 5.1304C56.8996 5.1304 57.3736 5.21945 57.7476 5.39763C58.1266 5.57151 58.4226 5.79627 58.6356 6.07201C58.8486 6.34775 58.9956 6.63406 59.0756 6.93093H59.1536L60.0696 2H63.5426L61.1286 15.0303H57.6906L57.9816 13.4461H57.8756C57.6716 13.7472 57.4116 14.0293 57.0946 14.2923C56.7766 14.5553 56.4006 14.7673 55.9646 14.9286C55.5336 15.0897 55.0436 15.1703 54.4946 15.1703ZM56.1356 12.7462C56.5566 12.7462 56.9376 12.6402 57.2786 12.4281C57.6196 12.2118 57.9066 11.9085 58.1386 11.5182C58.3746 11.128 58.5406 10.67 58.6356 10.144C58.7346 9.60957 58.7396 9.14929 58.6496 8.76336C58.5596 8.37735 58.3816 8.08047 58.1166 7.87255C57.8566 7.66471 57.5136 7.5608 57.0866 7.5608C56.6606 7.5608 56.2796 7.66686 55.9436 7.87891C55.6076 8.09104 55.3276 8.39007 55.1056 8.77608C54.8826 9.16201 54.7216 9.61799 54.6226 10.144C54.5276 10.67 54.5186 11.128 54.5946 11.5182C54.6746 11.9085 54.8426 12.2118 55.0986 12.4281C55.3586 12.6402 55.7046 12.7462 56.1356 12.7462ZM67.6336 15.0303L70.0486 2H73.5646L72.5986 7.22997H78.3296L79.2956 2H82.8046L80.3896 15.0303H76.8806L77.8466 9.79402H72.1156L71.1496 15.0303H67.6336ZM90.4146 10.812L91.4516 5.25761H94.9176L93.0996 15.0303H89.7896L90.1236 13.2107H90.0096C89.6736 13.8088 89.1786 14.2838 88.5256 14.6359C87.8716 14.9837 87.1356 15.1576 86.3166 15.1576C85.5726 15.1576 84.9476 15.0049 84.4416 14.6995C83.9346 14.3941 83.5746 13.9678 83.3616 13.4206C83.1536 12.8692 83.1156 12.2245 83.2486 11.4864L84.4126 5.25761H87.8856L86.8416 10.8756C86.7516 11.4059 86.8306 11.8237 87.0766 12.1291C87.3276 12.4345 87.7206 12.5871 88.2556 12.5871C88.6006 12.5871 88.9256 12.5193 89.2286 12.3836C89.5316 12.2436 89.7866 12.0421 89.9956 11.7791C90.2086 11.5119 90.3486 11.1895 90.4146 10.812ZM95.3096 15.0303L97.7246 2H101.198L100.296 6.93093H100.367C100.556 6.63406 100.807 6.34775 101.12 6.07201C101.437 5.79627 101.818 5.57151 102.263 5.39763C102.708 5.21945 103.217 5.1304 103.79 5.1304C104.548 5.1304 105.222 5.30849 105.814 5.66485C106.406 6.02113 106.837 6.57036 107.107 7.31265C107.377 8.05494 107.405 9.00085 107.192 10.1504C106.989 11.2575 106.622 12.1842 106.091 12.9307C105.561 13.6773 104.929 14.2372 104.195 14.6104C103.466 14.9837 102.699 15.1703 101.894 15.1703C101.345 15.1703 100.883 15.0897 100.509 14.9286C100.14 14.7673 99.8436 14.5553 99.6206 14.2923C99.4026 14.0293 99.2516 13.7472 99.1666 13.4461H99.0316L98.7476 15.0303H95.3096ZM99.6206 10.144C99.5256 10.67 99.5216 11.128 99.6066 11.5182C99.6966 11.9085 99.8696 12.2118 100.125 12.4281C100.386 12.6402 100.729 12.7462 101.155 12.7462C101.581 12.7462 101.963 12.6402 102.299 12.4281C102.635 12.2118 102.917 11.9085 103.144 11.5182C103.371 11.128 103.532 10.67 103.627 10.144C103.722 9.61799 103.726 9.16201 103.641 8.77608C103.561 8.39007 103.392 8.09104 103.137 7.87891C102.881 7.66686 102.538 7.5608 102.107 7.5608C101.681 7.5608 101.297 7.66471 100.956 7.87255C100.62 8.08047 100.336 8.37735 100.104 8.76336C99.8766 9.14929 99.7156 9.60957 99.6206 10.144Z" stroke="white" stroke-width="4" mask="url(#path-1-outside-1_1797_322)"/>
</g>
<defs>
<filter id="filter0_d_1797_322" x="0.586914" y="0" width="112.746" height="25.2148" filterUnits="userSpaceOnUse" color-interpolation-filters="sRGB">
<feFlood flood-opacity="0" result="BackgroundImageFix"/>
<feColorMatrix in="SourceAlpha" type="matrix" values="0 0 0 0 0 0 0 0 0 0 0 0 0 0 0 0 0 0 127 0" result="hardAlpha"/>
<feOffset dy="4"/>
<feGaussianBlur stdDeviation="2"/>
<feComposite in2="hardAlpha" operator="out"/>
<feColorMatrix type="matrix" values="0 0 0 0 0 0 0 0 0 0 0 0 0 0 0 0 0 0 0.25 0"/>
<feBlend mode="normal" in2="BackgroundImageFix" result="effect1_dropShadow_1797_322"/>
<feBlend mode="normal" in="SourceGraphic" in2="effect1_dropShadow_1797_322" result="shape"/>
</filter>
</defs>
</svg>
