<svg width="96" height="94" viewBox="0 0 96 94" fill="none" xmlns="http://www.w3.org/2000/svg">
<path fill-rule="evenodd" clip-rule="evenodd" d="M48 15.6668C42.4031 15.6658 36.9037 17.1022 32.0509 19.8327C27.1981 22.5632 23.1615 26.4922 20.3441 31.2276C17.5267 35.963 16.027 41.3391 15.9947 46.8193C15.9624 52.2996 17.3986 57.6923 20.16 62.4592C22.0265 60.0841 24.4258 58.161 27.1724 56.8387C29.919 55.5165 32.9394 54.8304 36 54.8335H60C63.0607 54.8304 66.0811 55.5165 68.8277 56.8387C71.5743 58.161 73.9736 60.0841 75.84 62.4592C78.6014 57.6923 80.0377 52.2996 80.0054 46.8193C79.9731 41.3391 78.4734 35.963 75.656 31.2276C72.8386 26.4922 68.802 22.5632 63.9492 19.8327C59.0964 17.1022 53.597 15.6658 48 15.6668ZM79.772 70.7978C85.1202 63.971 88.013 55.6042 88 47.0002C88 25.3684 70.092 7.8335 48 7.8335C25.908 7.8335 8.00005 25.3684 8.00005 47.0002C7.98684 55.6042 10.8797 63.9711 16.228 70.7978L16.208 70.8683L17.628 72.4859C21.3796 76.7806 26.0376 80.2276 31.281 82.5895C36.5244 84.9514 42.2284 86.1718 48 86.1668C56.1094 86.1815 64.0296 83.7695 70.7 79.2539C73.5438 77.3301 76.1223 75.0553 78.372 72.4859L79.792 70.8683L79.772 70.7978ZM48 23.5002C44.8174 23.5002 41.7652 24.7381 39.5148 26.9417C37.2643 29.1452 36 32.1339 36 35.2502C36 38.3665 37.2643 41.3551 39.5148 43.5587C41.7652 45.7622 44.8174 47.0002 48 47.0002C51.1826 47.0002 54.2349 45.7622 56.4853 43.5587C58.7358 41.3551 60 38.3665 60 35.2502C60 32.1339 58.7358 29.1452 56.4853 26.9417C54.2349 24.7381 51.1826 23.5002 48 23.5002Z" fill="#6E6E6E"/>
</svg>
