<svg width="98" height="96" viewBox="0 0 98 96" fill="none" xmlns="http://www.w3.org/2000/svg">
<g filter="url(#filter0_d_1832_303)">
<path d="M43 86.1668C22.0132 86.1668 5 68.6313 5 47.0002C5 25.369 22.0132 7.8335 43 7.8335C63.9868 7.8335 81 25.369 81 47.0002C81 68.6313 63.9868 86.1668 43 86.1668Z" stroke="#54514F" stroke-width="2" stroke-linecap="round" stroke-linejoin="round"/>
<path d="M53 34.4668C50.4542 32.4454 47.2777 31.3395 44 31.3335C35.716 31.3335 29 38.3443 29 47.0002C29 55.656 35.716 62.6668 44 62.6668C47.376 62.6668 50.492 61.4997 53 59.5335" stroke="#54514F" stroke-width="2" stroke-linecap="round" stroke-linejoin="round"/>
<path d="M41 7.8335C58.332 7.8335 93 11.7502 93 47.0002C93 82.2502 58.332 86.1668 41 86.1668" stroke="#54514F" stroke-width="2"/>
</g>
<defs>
<filter id="filter0_d_1832_303" x="-3" y="0" width="104" height="102" filterUnits="userSpaceOnUse" color-interpolation-filters="sRGB">
<feFlood flood-opacity="0" result="BackgroundImageFix"/>
<feColorMatrix in="SourceAlpha" type="matrix" values="0 0 0 0 0 0 0 0 0 0 0 0 0 0 0 0 0 0 127 0" result="hardAlpha"/>
<feOffset dy="4"/>
<feGaussianBlur stdDeviation="2"/>
<feComposite in2="hardAlpha" operator="out"/>
<feColorMatrix type="matrix" values="0 0 0 0 0 0 0 0 0 0 0 0 0 0 0 0 0 0 0.25 0"/>
<feBlend mode="normal" in2="BackgroundImageFix" result="effect1_dropShadow_1832_303"/>
<feBlend mode="normal" in="SourceGraphic" in2="effect1_dropShadow_1832_303" result="shape"/>
</filter>
</defs>
</svg>
