<svg width="96" height="94" viewBox="0 0 96 94" fill="none" xmlns="http://www.w3.org/2000/svg">
<path d="M69.1 79.3125L83 65.8L78.8 61.6875L69.1 70.9896L65.2 67.1708L61 71.3813L69.1 79.3125ZM24 35.25H72V27.4167H24V35.25ZM72 90.0833C66.4667 90.0833 61.7493 88.1733 57.848 84.3533C53.9467 80.5332 51.9973 75.9155 52 70.5C52 65.082 53.9507 60.4629 57.852 56.6428C61.7533 52.8228 66.4693 50.9141 72 50.9167C77.5333 50.9167 82.2507 52.8267 86.152 56.6468C90.0533 60.4668 92.0027 65.0846 92 70.5C92 75.9181 90.0493 80.5371 86.148 84.3572C82.2467 88.1772 77.5307 90.086 72 90.0833ZM12 86.1667V19.5833C12 17.4292 12.784 15.5844 14.352 14.0491C15.92 12.5138 17.8027 11.7474 20 11.75H76C78.2 11.75 80.084 12.5177 81.652 14.053C83.22 15.5883 84.0027 17.4318 84 19.5833V45.7271C82.1333 44.8132 80.1827 44.1435 78.148 43.7178C76.1133 43.2922 74.064 43.0807 72 43.0833H24V50.9167H52.4C51.2667 52.0264 50.2173 53.234 49.252 54.5396C48.2867 55.8451 47.436 57.2486 46.7 58.75H24V66.5833H44.3C44.1667 67.2361 44.0827 67.8732 44.048 68.4947C44.0133 69.1161 43.9973 69.7846 44 70.5C44 73.2417 44.384 75.8698 45.152 78.3843C45.92 80.8988 47.0693 83.2971 48.6 85.5792L48 86.1667L42 80.2917L36 86.1667L30 80.2917L24 86.1667L18 80.2917L12 86.1667Z" fill="#919191"/>
</svg>
