<svg width="25" height="25" viewBox="0 0 25 25" fill="none" xmlns="http://www.w3.org/2000/svg">
<path fill-rule="evenodd" clip-rule="evenodd" d="M12.4999 2.83317C10.8091 2.83286 9.14784 3.27601 7.68188 4.11839C6.21592 4.96077 4.99654 6.17291 4.14545 7.63382C3.29436 9.09474 2.84133 10.7533 2.83157 12.4441C2.82182 14.1348 3.25568 15.7985 4.08985 17.2691C4.65367 16.5364 5.37845 15.9431 6.20816 15.5351C7.03787 15.1272 7.95028 14.9155 8.87485 14.9165H16.1249C17.0494 14.9155 17.9618 15.1272 18.7915 15.5351C19.6212 15.9431 20.346 16.5364 20.9099 17.2691C21.744 15.7985 22.1779 14.1348 22.1681 12.4441C22.1584 10.7533 21.7053 9.09474 20.8542 7.63382C20.0032 6.17291 18.7838 4.96077 17.3178 4.11839C15.8519 3.27601 14.1906 2.83286 12.4999 2.83317ZM22.0976 19.8417C23.7132 17.7355 24.5871 15.1543 24.5832 12.4998C24.5832 5.82621 19.1735 0.416504 12.4999 0.416504C5.82623 0.416504 0.416518 5.82621 0.416518 12.4998C0.412528 15.1543 1.2864 17.7355 2.90206 19.8417L2.89602 19.8634L3.32498 20.3625C4.45825 21.6874 5.86536 22.7509 7.4493 23.4795C9.03324 24.2082 10.7563 24.5847 12.4999 24.5832C14.9495 24.5877 17.3421 23.8436 19.3571 22.4505C20.2162 21.8569 20.9951 21.1552 21.6747 20.3625L22.1037 19.8634L22.0976 19.8417ZM12.4999 5.24984C11.5384 5.24984 10.6164 5.63176 9.93659 6.31158C9.25677 6.99139 8.87485 7.91343 8.87485 8.87484C8.87485 9.83625 9.25677 10.7583 9.93659 11.4381C10.6164 12.1179 11.5384 12.4998 12.4999 12.4998C13.4613 12.4998 14.3833 12.1179 15.0631 11.4381C15.7429 10.7583 16.1249 9.83625 16.1249 8.87484C16.1249 7.91343 15.7429 6.99139 15.0631 6.31158C14.3833 5.63176 13.4613 5.24984 12.4999 5.24984Z" fill="#F36823"/>
</svg>
