<svg width="33" height="29" viewBox="0 0 33 29" fill="none" xmlns="http://www.w3.org/2000/svg">
<g clip-path="url(#clip0_1118_337)">
<path d="M32.16 7.48945L28.3257 4.83595C28.0651 4.68572 27.7819 4.56998 27.4846 4.4923C27.1885 4.40623 26.8803 4.35838 26.5692 4.3502H15.5329L16.8261 11.6002H26.5692C26.8339 11.6002 27.1649 11.5465 27.4829 11.4581C27.801 11.3696 28.1077 11.2478 28.3241 11.1159L32.1583 8.4595C32.3763 8.32755 32.4845 8.1521 32.4845 7.9752C32.4845 7.7983 32.3763 7.62285 32.16 7.48945ZM13.9185 1.4502H12.304C12.09 1.4502 11.8846 1.52658 11.7333 1.66254C11.5819 1.79851 11.4968 1.98291 11.4968 2.1752V7.2502H6.11108C5.84309 7.2502 5.51374 7.30385 5.1957 7.39375C4.87604 7.48075 4.57091 7.6011 4.35458 7.73595L0.520302 10.3894C0.302353 10.5214 0.195801 10.6983 0.195801 10.8752C0.195801 11.0506 0.302353 11.2261 0.520302 11.3609L4.35458 14.0173C4.57091 14.1493 4.87604 14.2711 5.1957 14.3581C5.51374 14.4465 5.84309 14.5002 6.11108 14.5002H11.4968V26.8252C11.4968 27.0175 11.5819 27.2019 11.7333 27.3378C11.8846 27.4738 12.09 27.5502 12.304 27.5502H13.9185C14.1326 27.5502 14.3379 27.4738 14.4893 27.3378C14.6407 27.2019 14.7257 27.0175 14.7257 26.8252V2.1752C14.7257 1.98291 14.6407 1.79851 14.4893 1.66254C14.3379 1.52658 14.1326 1.4502 13.9185 1.4502Z" fill="white"/>
</g>
<defs>
<clipPath id="clip0_1118_337">
<rect width="32.2887" height="29" fill="white" transform="translate(0.195801)"/>
</clipPath>
</defs>
</svg>
