<svg width="29" height="29" viewBox="0 0 29 29" fill="none" xmlns="http://www.w3.org/2000/svg">
<path d="M28.7086 7.48945L25.2648 4.83595C25.0308 4.68572 24.7764 4.56998 24.5093 4.4923C24.2434 4.40623 23.9666 4.35838 23.6872 4.3502H13.775L14.9365 11.6002H23.6872C23.925 11.6002 24.2223 11.5465 24.5079 11.4581C24.7936 11.3696 25.0691 11.2478 25.2634 11.1159L28.7071 8.4595C28.9029 8.32755 29 8.1521 29 7.9752C29 7.7983 28.9029 7.62285 28.7086 7.48945ZM12.325 1.4502H10.875C10.6827 1.4502 10.4983 1.52658 10.3623 1.66254C10.2264 1.79851 10.15 1.98291 10.15 2.1752V7.2502H5.3128C5.0721 7.2502 4.7763 7.30385 4.49065 7.39375C4.20355 7.48075 3.9295 7.6011 3.7352 7.73595L0.29145 10.3894C0.0957 10.5214 0 10.6983 0 10.8752C0 11.0506 0.0957 11.2261 0.29145 11.3609L3.7352 14.0173C3.9295 14.1493 4.20355 14.2711 4.49065 14.3581C4.7763 14.4465 5.0721 14.5002 5.3128 14.5002H10.15V26.8252C10.15 27.0175 10.2264 27.2019 10.3623 27.3378C10.4983 27.4738 10.6827 27.5502 10.875 27.5502H12.325C12.5173 27.5502 12.7017 27.4738 12.8377 27.3378C12.9736 27.2019 13.05 27.0175 13.05 26.8252V2.1752C13.05 1.98291 12.9736 1.79851 12.8377 1.66254C12.7017 1.52658 12.5173 1.4502 12.325 1.4502Z" fill="black"/>
</svg>
