<svg width="30" height="26" viewBox="0 0 30 26" fill="none" xmlns="http://www.w3.org/2000/svg">
<g clip-path="url(#clip0_1121_301)">
<path d="M3.53601 4C1.69221 4 0.195801 5.344 0.195801 7V19C0.195801 20.656 1.69221 22 3.53601 22H25.804C27.6478 22 29.1443 20.656 29.1443 19V7C29.1443 5.344 27.6478 4 25.804 4H3.53601ZM3.53601 6H25.804C26.4175 6 26.9174 6.449 26.9174 7V7.5L14.67 13.438L2.4226 7.5V7C2.4226 6.449 2.92252 6 3.53601 6ZM2.4226 7.781L9.69423 12.875L2.56178 19.438L11.2608 13.875L14.67 15.844L18.0804 13.875L26.7783 19.438L19.6458 12.875L26.9174 7.781V19C26.9113 19.154 26.8635 19.3043 26.7783 19.438C26.5946 19.763 26.2372 20 25.804 20H3.53601C3.10289 20 2.74549 19.764 2.56178 19.438C2.4767 19.3046 2.42894 19.1536 2.4226 19V7.781Z" fill="white"/>
</g>
<defs>
<clipPath id="clip0_1121_301">
<rect width="28.9485" height="26" fill="white" transform="translate(0.195801)"/>
</clipPath>
</defs>
</svg>
