<svg width="28" height="24" viewBox="0 0 28 24" fill="none" xmlns="http://www.w3.org/2000/svg">
<path d="M24.9175 12C24.9169 9.348 23.7436 6.80477 21.6557 4.92952C19.5678 3.05427 16.7362 2.00053 13.7834 2V4C15.5449 4.00036 17.2668 4.46964 18.7315 5.34854C20.1962 6.22744 21.338 7.47653 22.0126 8.938C22.4603 9.90877 22.6907 10.9492 22.6907 12H24.9175ZM2.64941 10V5C2.64941 4.73478 2.76672 4.48043 2.97552 4.29289C3.18433 4.10536 3.46752 4 3.76282 4H9.32983C9.62512 4 9.90832 4.10536 10.1171 4.29289C10.3259 4.48043 10.4432 4.73478 10.4432 5V9C10.4432 9.26522 10.3259 9.51957 10.1171 9.70711C9.90832 9.89464 9.62512 10 9.32983 10H7.10302C7.10302 12.1217 8.04146 14.1566 9.71188 15.6569C11.3823 17.1571 13.6479 18 16.0102 18V16C16.0102 15.7348 16.1275 15.4804 16.3363 15.2929C16.5451 15.1054 16.8283 15 17.1236 15H21.5772C21.8725 15 22.1557 15.1054 22.3645 15.2929C22.5733 15.4804 22.6907 15.7348 22.6907 16V21C22.6907 21.2652 22.5733 21.5196 22.3645 21.7071C22.1557 21.8946 21.8725 22 21.5772 22H16.0102C8.63172 22 2.64941 16.627 2.64941 10Z" fill="white"/>
<path d="M19.9548 9.704C20.2909 10.4318 20.4638 11.2121 20.4636 12H18.4595C18.4596 11.4484 18.3388 10.9022 18.1038 10.3926C17.8689 9.88295 17.5244 9.41989 17.0902 9.02986C16.6559 8.63983 16.1403 8.33046 15.5729 8.11944C15.0055 7.90841 14.3973 7.79987 13.7832 7.8V6C15.1044 6.00006 16.396 6.352 17.4945 7.0113C18.593 7.6706 19.4492 8.60767 19.9548 9.704Z" fill="white"/>
</svg>
