<svg width="70" height="14" viewBox="0 0 70 14" fill="none" xmlns="http://www.w3.org/2000/svg">
<path d="M6.53941 10.7976L9.71093 12.4688C10.2917 12.7751 11.0025 12.3223 10.8496 11.7497L10.009 8.60712L12.8137 6.48986C13.3257 6.10369 13.0506 5.3713 12.3781 5.32469L8.68687 5.05171L7.24249 2.08221C6.98266 1.54291 6.09616 1.54291 5.83633 2.08221L4.39195 5.04506L0.700759 5.31804C0.0282437 5.36464 -0.246876 6.09703 0.265152 6.4832L3.06984 8.60047L2.2292 11.7431C2.07636 12.3157 2.78708 12.7684 3.36789 12.4621L6.53941 10.7976Z" fill="#F36823"/>
<path d="M68.8743 5.71025C68.8246 5.57273 68.7288 5.45131 68.5993 5.36161C68.4697 5.27191 68.3123 5.21803 68.1473 5.2069L64.5689 4.9374C64.5472 4.93555 64.5266 4.92862 64.5091 4.91736C64.4916 4.90609 64.478 4.89091 64.4696 4.87343L63.0715 1.97078C63.0068 1.83836 62.8988 1.72545 62.761 1.64609C62.6232 1.56673 62.4616 1.52441 62.2964 1.52441C62.1312 1.52441 61.9696 1.56673 61.8318 1.64609C61.694 1.72545 61.586 1.83836 61.5212 1.97078L60.1232 4.87343C60.1148 4.89091 60.1012 4.90609 60.0837 4.91736C60.0662 4.92862 60.0455 4.93555 60.0239 4.9374L56.4455 5.2069C56.2805 5.21803 56.1231 5.27191 55.9935 5.36161C55.864 5.45131 55.7682 5.57273 55.7185 5.71025C55.6658 5.84796 55.6612 5.99618 55.7052 6.13617C55.7493 6.27616 55.8399 6.40164 55.9658 6.49674L58.6806 8.55995C58.6973 8.57281 58.7096 8.58933 58.7164 8.60778C58.7232 8.62623 58.7241 8.64593 58.7192 8.66481L57.9031 11.7326C57.865 11.8739 57.8759 12.0218 57.9343 12.1576C57.9926 12.2935 58.0959 12.4113 58.2311 12.496C58.3641 12.5816 58.5235 12.6304 58.6888 12.6362C58.854 12.642 59.0174 12.6045 59.1579 12.5286L62.2338 10.9031C62.2519 10.8934 62.2727 10.8882 62.294 10.8882C62.3153 10.8882 62.3361 10.8934 62.3542 10.9031L65.4301 12.5286C65.5721 12.6043 65.7366 12.6417 65.9029 12.636C66.0693 12.6303 66.23 12.5819 66.3647 12.4967C66.4995 12.4116 66.6022 12.2936 66.6601 12.1576C66.7179 12.0216 66.7282 11.8737 66.6897 11.7326L65.876 8.66376C65.8711 8.64488 65.872 8.62519 65.8788 8.60674C65.8856 8.58829 65.8979 8.57176 65.9146 8.5589L68.6294 6.49569C68.7546 6.40042 68.8447 6.27502 68.8883 6.13525C68.9318 5.99549 68.927 5.84762 68.8743 5.71025ZM68.1521 6.02065L65.4373 8.08386C65.3216 8.17155 65.2356 8.28508 65.1885 8.41222C65.1414 8.53935 65.1351 8.67527 65.1701 8.80533L65.9838 11.8742C65.9898 11.8948 65.9885 11.9165 65.98 11.9365C65.9715 11.9564 65.9562 11.9737 65.9362 11.9859C65.9181 11.9985 65.8959 12.0058 65.8727 12.0066C65.8496 12.0075 65.8267 12.0019 65.8074 11.9906L62.7315 10.3652C62.6004 10.2957 62.4499 10.259 62.2964 10.259C62.1429 10.259 61.9924 10.2957 61.8613 10.3652L58.7854 11.9906C58.7661 12.0019 58.7432 12.0075 58.7201 12.0066C58.6969 12.0058 58.6747 11.9985 58.6566 11.9859C58.6366 11.9737 58.6213 11.9564 58.6128 11.9365C58.6043 11.9165 58.603 11.8948 58.609 11.8742L59.4227 8.80533C59.4577 8.67527 59.4513 8.53935 59.4043 8.41222C59.3572 8.28508 59.2712 8.17155 59.1555 8.08386L56.4406 6.02065C56.4221 6.00689 56.4087 5.98855 56.4024 5.96805C56.3961 5.94754 56.397 5.92585 56.4051 5.90582C56.4112 5.88589 56.4244 5.86814 56.4428 5.85514C56.4612 5.84214 56.4838 5.83455 56.5074 5.83347L60.0865 5.56397C60.2397 5.55259 60.3864 5.5049 60.5108 5.42606C60.6351 5.34723 60.7323 5.24025 60.7918 5.11672L62.1899 2.21406C62.1996 2.19605 62.215 2.18082 62.2343 2.17015C62.2536 2.15948 62.276 2.15381 62.2988 2.15381C62.3217 2.15381 62.344 2.15948 62.3633 2.17015C62.3826 2.18082 62.398 2.19605 62.4077 2.21406L63.801 5.11672C63.8603 5.23995 63.9571 5.34673 64.081 5.42555C64.2049 5.50436 64.3511 5.55222 64.5039 5.56397L68.0829 5.83347C68.1066 5.83455 68.1292 5.84214 68.1476 5.85514C68.166 5.86814 68.1792 5.88589 68.1852 5.90582C68.1936 5.92564 68.195 5.94721 68.1891 5.9677C68.1832 5.98819 68.1703 6.00664 68.1521 6.02065Z" fill="#F36823"/>
<path d="M54.9207 5.71025C54.871 5.57273 54.7752 5.45131 54.6457 5.36161C54.5161 5.27191 54.3587 5.21803 54.1937 5.2069L50.6153 4.9374C50.5936 4.93555 50.573 4.92862 50.5555 4.91736C50.538 4.90609 50.5243 4.89091 50.516 4.87343L49.1179 1.97078C49.0532 1.83836 48.9452 1.72545 48.8074 1.64609C48.6695 1.56673 48.508 1.52441 48.3428 1.52441C48.1776 1.52441 48.016 1.56673 47.8782 1.64609C47.7404 1.72545 47.6324 1.83836 47.5676 1.97078L46.1696 4.87343C46.1612 4.89091 46.1476 4.90609 46.1301 4.91736C46.1126 4.92862 46.0919 4.93555 46.0703 4.9374L42.4918 5.2069C42.3269 5.21803 42.1695 5.27191 42.0399 5.36161C41.9103 5.45131 41.8145 5.57273 41.7648 5.71025C41.7122 5.84796 41.7076 5.99618 41.7516 6.13617C41.7957 6.27616 41.8863 6.40164 42.0122 6.49674L44.727 8.55995C44.7436 8.57281 44.756 8.58933 44.7628 8.60778C44.7695 8.62623 44.7705 8.64593 44.7655 8.66481L43.9495 11.7326C43.9114 11.8739 43.9223 12.0218 43.9807 12.1576C44.039 12.2935 44.1423 12.4113 44.2775 12.496C44.4105 12.5816 44.5699 12.6304 44.7351 12.6362C44.9004 12.642 45.0638 12.6045 45.2043 12.5286L48.2802 10.9031C48.2983 10.8934 48.3191 10.8882 48.3404 10.8882C48.3616 10.8882 48.3825 10.8934 48.4006 10.9031L51.4765 12.5286C51.6185 12.6043 51.783 12.6417 51.9493 12.636C52.1157 12.6303 52.2763 12.5819 52.4111 12.4967C52.5458 12.4116 52.6486 12.2936 52.7065 12.1576C52.7643 12.0216 52.7746 11.8737 52.7361 11.7326L51.9224 8.66376C51.9175 8.64488 51.9184 8.62519 51.9252 8.60674C51.932 8.58829 51.9443 8.57176 51.961 8.5589L54.6758 6.49569C54.801 6.40042 54.8911 6.27502 54.9346 6.13525C54.9782 5.99549 54.9734 5.84762 54.9207 5.71025ZM54.1985 6.02065L51.4837 8.08386C51.368 8.17155 51.282 8.28508 51.2349 8.41222C51.1878 8.53935 51.1815 8.67527 51.2165 8.80533L52.0302 11.8742C52.0362 11.8948 52.0348 11.9165 52.0264 11.9365C52.0179 11.9564 52.0026 11.9737 51.9826 11.9859C51.9645 11.9985 51.9423 12.0058 51.9191 12.0066C51.8959 12.0075 51.8731 12.0019 51.8538 11.9906L48.7779 10.3652C48.6468 10.2957 48.4962 10.259 48.3428 10.259C48.1893 10.259 48.0388 10.2957 47.9077 10.3652L44.8317 11.9906C44.8125 12.0019 44.7896 12.0075 44.7665 12.0066C44.7433 12.0058 44.721 11.9985 44.703 11.9859C44.683 11.9737 44.6677 11.9564 44.6592 11.9365C44.6507 11.9165 44.6494 11.8948 44.6554 11.8742L45.4691 8.80533C45.5041 8.67527 45.4977 8.53935 45.4506 8.41222C45.4036 8.28508 45.3175 8.17155 45.2019 8.08386L42.487 6.02065C42.4685 6.00689 42.4551 5.98855 42.4488 5.96805C42.4425 5.94754 42.4434 5.92585 42.4515 5.90582C42.4576 5.88589 42.4708 5.86814 42.4892 5.85514C42.5075 5.84214 42.5302 5.83455 42.5538 5.83347L46.1329 5.56397C46.2861 5.55259 46.4328 5.5049 46.5572 5.42606C46.6815 5.34723 46.7787 5.24025 46.8382 5.11672L48.2363 2.21406C48.246 2.19605 48.2614 2.18082 48.2807 2.17015C48.3 2.15948 48.3223 2.15381 48.3452 2.15381C48.368 2.15381 48.3904 2.15948 48.4097 2.17015C48.429 2.18082 48.4444 2.19605 48.4541 2.21406L49.8473 5.11672C49.9067 5.23995 50.0035 5.34673 50.1274 5.42555C50.2513 5.50436 50.3975 5.55222 50.5503 5.56397L54.1293 5.83347C54.153 5.83455 54.1756 5.84214 54.194 5.85514C54.2124 5.86814 54.2256 5.88589 54.2316 5.90582C54.24 5.92564 54.2414 5.94721 54.2355 5.9677C54.2296 5.98819 54.2167 6.00664 54.1985 6.02065Z" fill="#F36823"/>
<path d="M40.9671 5.71025C40.9174 5.57273 40.8216 5.45131 40.6921 5.36161C40.5625 5.27191 40.4051 5.21803 40.2401 5.2069L36.6617 4.9374C36.64 4.93555 36.6194 4.92862 36.6019 4.91736C36.5844 4.90609 36.5707 4.89091 36.5624 4.87343L35.1643 1.97078C35.0996 1.83836 34.9916 1.72545 34.8538 1.64609C34.7159 1.56673 34.5544 1.52441 34.3892 1.52441C34.224 1.52441 34.0624 1.56673 33.9246 1.64609C33.7868 1.72545 33.6788 1.83836 33.614 1.97078L32.216 4.87343C32.2076 4.89091 32.194 4.90609 32.1765 4.91736C32.159 4.92862 32.1383 4.93555 32.1167 4.9374L28.5382 5.2069C28.3732 5.21803 28.2158 5.27191 28.0863 5.36161C27.9567 5.45131 27.8609 5.57273 27.8112 5.71025C27.7586 5.84796 27.754 5.99618 27.798 6.13617C27.842 6.27616 27.9327 6.40164 28.0586 6.49674L30.7734 8.55995C30.79 8.57281 30.8024 8.58933 30.8092 8.60778C30.8159 8.62623 30.8169 8.64593 30.8119 8.66481L29.9959 11.7326C29.9578 11.8739 29.9687 12.0218 30.027 12.1576C30.0854 12.2935 30.1887 12.4113 30.3238 12.496C30.4569 12.5816 30.6163 12.6304 30.7815 12.6362C30.9467 12.642 31.1101 12.6045 31.2507 12.5286L34.3266 10.9031C34.3447 10.8934 34.3655 10.8882 34.3868 10.8882C34.408 10.8882 34.4289 10.8934 34.4469 10.9031L37.5229 12.5286C37.6648 12.6043 37.8294 12.6417 37.9957 12.636C38.162 12.6303 38.3227 12.5819 38.4575 12.4967C38.5922 12.4116 38.695 12.2936 38.7529 12.1576C38.8107 12.0216 38.821 11.8737 38.7825 11.7326L37.9688 8.66376C37.9639 8.64488 37.9648 8.62519 37.9716 8.60674C37.9784 8.58829 37.9907 8.57176 38.0073 8.5589L40.7222 6.49569C40.8474 6.40042 40.9374 6.27502 40.981 6.13525C41.0246 5.99549 41.0198 5.84762 40.9671 5.71025ZM40.2449 6.02065L37.5301 8.08386C37.4144 8.17155 37.3284 8.28508 37.2813 8.41222C37.2342 8.53935 37.2279 8.67527 37.2629 8.80533L38.0765 11.8742C38.0826 11.8948 38.0812 11.9165 38.0727 11.9365C38.0643 11.9564 38.049 11.9737 38.029 11.9859C38.0109 11.9985 37.9887 12.0058 37.9655 12.0066C37.9423 12.0075 37.9195 12.0019 37.9002 11.9906L34.8243 10.3652C34.6931 10.2957 34.5426 10.259 34.3892 10.259C34.2357 10.259 34.0852 10.2957 33.9541 10.3652L30.8781 11.9906C30.8589 12.0019 30.836 12.0075 30.8128 12.0066C30.7897 12.0058 30.7674 11.9985 30.7493 11.9859C30.7293 11.9737 30.7141 11.9564 30.7056 11.9365C30.6971 11.9165 30.6958 11.8948 30.7018 11.8742L31.5155 8.80533C31.5505 8.67527 31.5441 8.53935 31.497 8.41222C31.4499 8.28508 31.3639 8.17155 31.2482 8.08386L28.5334 6.02065C28.5149 6.00689 28.5015 5.98855 28.4952 5.96805C28.4888 5.94754 28.4898 5.92585 28.4979 5.90582C28.504 5.88589 28.5172 5.86814 28.5356 5.85514C28.5539 5.84214 28.5766 5.83455 28.6002 5.83347L32.1793 5.56397C32.3325 5.55259 32.4792 5.5049 32.6036 5.42606C32.7279 5.34723 32.8251 5.24025 32.8846 5.11672L34.2826 2.21406C34.2924 2.19605 34.3078 2.18082 34.3271 2.17015C34.3464 2.15948 34.3687 2.15381 34.3916 2.15381C34.4144 2.15381 34.4368 2.15948 34.4561 2.17015C34.4754 2.18082 34.4908 2.19605 34.5005 2.21406L35.8937 5.11672C35.9531 5.23995 36.0499 5.34673 36.1738 5.42555C36.2976 5.50436 36.4439 5.55222 36.5967 5.56397L40.1757 5.83347C40.1994 5.83455 40.222 5.84214 40.2404 5.85514C40.2588 5.86814 40.2719 5.88589 40.278 5.90582C40.2864 5.92564 40.2878 5.94721 40.2818 5.9677C40.2759 5.98819 40.2631 6.00664 40.2449 6.02065Z" fill="#F36823"/>
<path d="M27.013 5.71025C26.9633 5.57273 26.8675 5.45131 26.738 5.36161C26.6084 5.27191 26.451 5.21803 26.286 5.2069L22.7076 4.9374C22.6859 4.93555 22.6653 4.92862 22.6478 4.91736C22.6303 4.90609 22.6166 4.89091 22.6083 4.87343L21.2102 1.97078C21.1455 1.83836 21.0375 1.72545 20.8997 1.64609C20.7618 1.56673 20.6003 1.52441 20.4351 1.52441C20.2699 1.52441 20.1083 1.56673 19.9705 1.64609C19.8327 1.72545 19.7247 1.83836 19.6599 1.97078L18.2619 4.87343C18.2535 4.89091 18.2398 4.90609 18.2224 4.91736C18.2049 4.92862 18.1842 4.93555 18.1626 4.9374L14.5841 5.2069C14.4191 5.21803 14.2617 5.27191 14.1322 5.36161C14.0026 5.45131 13.9068 5.57273 13.8571 5.71025C13.8045 5.84796 13.7999 5.99618 13.8439 6.13617C13.8879 6.27616 13.9786 6.40164 14.1045 6.49674L16.8193 8.55995C16.8359 8.57281 16.8483 8.58933 16.8551 8.60778C16.8618 8.62623 16.8628 8.64593 16.8578 8.66481L16.0418 11.7326C16.0037 11.8739 16.0146 12.0218 16.0729 12.1576C16.1313 12.2935 16.2346 12.4113 16.3697 12.496C16.5028 12.5816 16.6622 12.6304 16.8274 12.6362C16.9926 12.642 17.156 12.6045 17.2966 12.5286L20.3725 10.9031C20.3906 10.8934 20.4114 10.8882 20.4327 10.8882C20.4539 10.8882 20.4748 10.8934 20.4928 10.9031L23.5688 12.5286C23.7107 12.6043 23.8753 12.6417 24.0416 12.636C24.2079 12.6303 24.3686 12.5819 24.5034 12.4967C24.6381 12.4116 24.7409 12.2936 24.7988 12.1576C24.8566 12.0216 24.8669 11.8737 24.8284 11.7326L24.0147 8.66376C24.0098 8.64488 24.0107 8.62519 24.0175 8.60674C24.0243 8.58829 24.0366 8.57176 24.0532 8.5589L26.7681 6.49569C26.8933 6.40042 26.9833 6.27502 27.0269 6.13525C27.0705 5.99549 27.0657 5.84762 27.013 5.71025ZM26.2908 6.02065L23.576 8.08386C23.4603 8.17155 23.3743 8.28508 23.3272 8.41222C23.2801 8.53935 23.2738 8.67527 23.3088 8.80533L24.1224 11.8742C24.1285 11.8948 24.1271 11.9165 24.1186 11.9365C24.1102 11.9564 24.0949 11.9737 24.0749 11.9859C24.0568 11.9985 24.0346 12.0058 24.0114 12.0066C23.9882 12.0075 23.9654 12.0019 23.9461 11.9906L20.8702 10.3652C20.739 10.2957 20.5885 10.259 20.4351 10.259C20.2816 10.259 20.1311 10.2957 19.9999 10.3652L16.924 11.9906C16.9048 12.0019 16.8819 12.0075 16.8587 12.0066C16.8356 12.0058 16.8133 11.9985 16.7952 11.9859C16.7752 11.9737 16.76 11.9564 16.7515 11.9365C16.743 11.9165 16.7417 11.8948 16.7477 11.8742L17.5614 8.80533C17.5964 8.67527 17.59 8.53935 17.5429 8.41222C17.4958 8.28508 17.4098 8.17155 17.2941 8.08386L14.5793 6.02065C14.5608 6.00689 14.5474 5.98855 14.5411 5.96805C14.5347 5.94754 14.5357 5.92585 14.5438 5.90582C14.5499 5.88589 14.5631 5.86814 14.5815 5.85514C14.5998 5.84214 14.6225 5.83455 14.6461 5.83347L18.2252 5.56397C18.3784 5.55259 18.5251 5.5049 18.6495 5.42606C18.7738 5.34723 18.871 5.24025 18.9305 5.11672L20.3285 2.21406C20.3383 2.19605 20.3537 2.18082 20.373 2.17015C20.3923 2.15948 20.4146 2.15381 20.4375 2.15381C20.4603 2.15381 20.4827 2.15948 20.502 2.17015C20.5213 2.18082 20.5367 2.19605 20.5464 2.21406L21.9396 5.11672C21.999 5.23995 22.0958 5.34673 22.2197 5.42555C22.3435 5.50436 22.4898 5.55222 22.6426 5.56397L26.2216 5.83347C26.2453 5.83455 26.2679 5.84214 26.2863 5.85514C26.3047 5.86814 26.3178 5.88589 26.3239 5.90582C26.3323 5.92564 26.3337 5.94721 26.3277 5.9677C26.3218 5.98819 26.309 6.00664 26.2908 6.02065Z" fill="#F36823"/>
</svg>
