<svg width="70" height="14" viewBox="0 0 70 14" fill="none" xmlns="http://www.w3.org/2000/svg">
<path d="M6.53941 10.5301L9.71093 12.2012C10.2917 12.5075 11.0025 12.0548 10.8496 11.4822L10.009 8.33955L12.8137 6.22228C13.3257 5.83611 13.0506 5.10372 12.3781 5.05712L8.68687 4.78414L7.24249 1.81463C6.98266 1.27533 6.09616 1.27533 5.83633 1.81463L4.39195 4.77748L0.700759 5.05046C0.0282437 5.09706 -0.246876 5.82945 0.265152 6.21562L3.06984 8.33289L2.2292 11.4755C2.07636 12.0481 2.78708 12.5008 3.36789 12.1946L6.53941 10.5301Z" fill="#F36823"/>
<path d="M20.4784 10.5301L23.6499 12.2012C24.2307 12.5075 24.9414 12.0548 24.7886 11.4822L23.9479 8.33955L26.7526 6.22228C27.2647 5.83611 26.9895 5.10372 26.317 5.05712L22.6258 4.78414L21.1815 1.81463C20.9216 1.27533 20.0351 1.27533 19.7753 1.81463L18.3309 4.77748L14.6397 5.05046C13.9672 5.09706 13.6921 5.82945 14.2041 6.21562L17.0088 8.33289L16.1682 11.4755C16.0153 12.0481 16.726 12.5008 17.3069 12.1946L20.4784 10.5301Z" fill="#F36823"/>
<path d="M34.4178 10.5301L37.5893 12.2012C38.1702 12.5075 38.8809 12.0548 38.728 11.4822L37.8874 8.33955L40.6921 6.22228C41.2041 5.83611 40.929 5.10372 40.2565 5.05712L36.5653 4.78414L35.1209 1.81463C34.8611 1.27533 33.9746 1.27533 33.7147 1.81463L32.2704 4.77748L28.5792 5.05046C27.9067 5.09706 27.6315 5.82945 28.1436 6.21562L30.9483 8.33289L30.1076 11.4755C29.9548 12.0481 30.6655 12.5008 31.2463 12.1946L34.4178 10.5301Z" fill="#F36823"/>
<path d="M68.8743 5.44267C68.8246 5.30515 68.7288 5.18374 68.5993 5.09403C68.4697 5.00433 68.3123 4.95045 68.1473 4.93932L64.5689 4.66982C64.5472 4.66797 64.5266 4.66104 64.5091 4.64978C64.4916 4.63852 64.478 4.62334 64.4696 4.60585L63.0715 1.7032C63.0068 1.57078 62.8988 1.45787 62.761 1.37851C62.6232 1.29915 62.4616 1.25684 62.2964 1.25684C62.1312 1.25684 61.9696 1.29915 61.8318 1.37851C61.694 1.45787 61.586 1.57078 61.5212 1.7032L60.1232 4.60585C60.1148 4.62334 60.1012 4.63852 60.0837 4.64978C60.0662 4.66104 60.0455 4.66797 60.0239 4.66982L56.4455 4.93932C56.2805 4.95045 56.1231 5.00433 55.9935 5.09403C55.864 5.18374 55.7682 5.30515 55.7185 5.44267C55.6658 5.58039 55.6612 5.7286 55.7052 5.86859C55.7493 6.00858 55.8399 6.13406 55.9658 6.22916L58.6806 8.29237C58.6973 8.30523 58.7096 8.32176 58.7164 8.34021C58.7232 8.35865 58.7241 8.37835 58.7192 8.39723L57.9031 11.4651C57.865 11.6063 57.8759 11.7542 57.9343 11.8901C57.9926 12.0259 58.0959 12.1437 58.2311 12.2285C58.3641 12.314 58.5235 12.3628 58.6888 12.3686C58.854 12.3744 59.0174 12.3369 59.1579 12.261L62.2338 10.6356C62.2519 10.6258 62.2727 10.6207 62.294 10.6207C62.3153 10.6207 62.3361 10.6258 62.3542 10.6356L65.4301 12.261C65.5721 12.3367 65.7366 12.3741 65.9029 12.3684C66.0693 12.3628 66.23 12.3143 66.3647 12.2292C66.4995 12.144 66.6022 12.026 66.6601 11.89C66.7179 11.754 66.7282 11.6061 66.6897 11.4651L65.876 8.39619C65.8711 8.3773 65.872 8.35761 65.8788 8.33916C65.8856 8.32071 65.8979 8.30419 65.9146 8.29132L68.6294 6.22811C68.7546 6.13284 68.8447 6.00744 68.8883 5.86768C68.9318 5.72791 68.927 5.58004 68.8743 5.44267ZM68.1521 5.75307L65.4373 7.81629C65.3216 7.90398 65.2356 8.0175 65.1885 8.14464C65.1414 8.27178 65.1351 8.4077 65.1701 8.53775L65.9838 11.6066C65.9898 11.6272 65.9885 11.649 65.98 11.6689C65.9715 11.6889 65.9562 11.7061 65.9362 11.7183C65.9181 11.7309 65.8959 11.7382 65.8727 11.739C65.8496 11.7399 65.8267 11.7343 65.8074 11.723L62.7315 10.0976C62.6004 10.0282 62.4499 9.99145 62.2964 9.99145C62.1429 9.99145 61.9924 10.0282 61.8613 10.0976L58.7854 11.723C58.7661 11.7343 58.7432 11.7399 58.7201 11.739C58.6969 11.7382 58.6747 11.7309 58.6566 11.7183C58.6366 11.7061 58.6213 11.6889 58.6128 11.6689C58.6043 11.649 58.603 11.6272 58.609 11.6066L59.4227 8.53775C59.4577 8.4077 59.4513 8.27178 59.4043 8.14464C59.3572 8.0175 59.2712 7.90398 59.1555 7.81629L56.4406 5.75307C56.4221 5.73932 56.4087 5.72097 56.4024 5.70047C56.3961 5.67997 56.397 5.65827 56.4051 5.63825C56.4112 5.61831 56.4244 5.60056 56.4428 5.58756C56.4612 5.57456 56.4838 5.56697 56.5074 5.56589L60.0865 5.29639C60.2397 5.28501 60.3864 5.23732 60.5108 5.15849C60.6351 5.07965 60.7323 4.97267 60.7918 4.84914L62.1899 1.94649C62.1996 1.92847 62.215 1.91324 62.2343 1.90257C62.2536 1.8919 62.276 1.88623 62.2988 1.88623C62.3217 1.88623 62.344 1.8919 62.3633 1.90257C62.3826 1.91324 62.398 1.92847 62.4077 1.94649L63.801 4.84914C63.8603 4.97237 63.9571 5.07915 64.081 5.15797C64.2049 5.23679 64.3511 5.28465 64.5039 5.29639L68.0829 5.56589C68.1066 5.56697 68.1292 5.57456 68.1476 5.58756C68.166 5.60056 68.1792 5.61831 68.1852 5.63825C68.1936 5.65806 68.195 5.67963 68.1891 5.70012C68.1832 5.72061 68.1703 5.73907 68.1521 5.75307Z" fill="#F36823"/>
<path d="M55.4788 5.44267C55.4291 5.30515 55.3333 5.18374 55.2038 5.09403C55.0742 5.00433 54.9168 4.95045 54.7518 4.93932L51.1734 4.66982C51.1517 4.66797 51.1311 4.66104 51.1136 4.64978C51.0961 4.63852 51.0825 4.62334 51.0741 4.60585L49.676 1.7032C49.6113 1.57078 49.5033 1.45787 49.3655 1.37851C49.2277 1.29915 49.0661 1.25684 48.9009 1.25684C48.7357 1.25684 48.5741 1.29915 48.4363 1.37851C48.2985 1.45787 48.1905 1.57078 48.1257 1.7032L46.7277 4.60585C46.7193 4.62334 46.7057 4.63852 46.6882 4.64978C46.6707 4.66104 46.65 4.66797 46.6284 4.66982L43.05 4.93932C42.885 4.95045 42.7276 5.00433 42.598 5.09403C42.4684 5.18374 42.3727 5.30515 42.323 5.44267C42.2703 5.58039 42.2657 5.7286 42.3097 5.86859C42.3538 6.00858 42.4444 6.13406 42.5703 6.22916L45.2851 8.29237C45.3018 8.30523 45.3141 8.32176 45.3209 8.34021C45.3277 8.35865 45.3286 8.37835 45.3236 8.39723L44.5076 11.4651C44.4695 11.6063 44.4804 11.7542 44.5388 11.8901C44.5971 12.0259 44.7004 12.1437 44.8356 12.2285C44.9686 12.314 45.128 12.3628 45.2932 12.3686C45.4585 12.3744 45.6219 12.3369 45.7624 12.261L48.8383 10.6356C48.8564 10.6258 48.8772 10.6207 48.8985 10.6207C48.9197 10.6207 48.9406 10.6258 48.9587 10.6356L52.0346 12.261C52.1766 12.3367 52.3411 12.3741 52.5074 12.3684C52.6738 12.3628 52.8344 12.3143 52.9692 12.2292C53.104 12.144 53.2067 12.026 53.2646 11.89C53.3224 11.754 53.3327 11.6061 53.2942 11.4651L52.4805 8.39619C52.4756 8.3773 52.4765 8.35761 52.4833 8.33916C52.4901 8.32071 52.5024 8.30419 52.5191 8.29132L55.2339 6.22811C55.3591 6.13284 55.4492 6.00744 55.4927 5.86768C55.5363 5.72791 55.5315 5.58004 55.4788 5.44267ZM54.7566 5.75307L52.0418 7.81629C51.9261 7.90398 51.8401 8.0175 51.793 8.14464C51.7459 8.27178 51.7396 8.4077 51.7746 8.53775L52.5883 11.6066C52.5943 11.6272 52.593 11.649 52.5845 11.6689C52.576 11.6889 52.5607 11.7061 52.5407 11.7183C52.5226 11.7309 52.5004 11.7382 52.4772 11.739C52.4541 11.7399 52.4312 11.7343 52.4119 11.723L49.336 10.0976C49.2049 10.0282 49.0544 9.99145 48.9009 9.99145C48.7474 9.99145 48.5969 10.0282 48.4658 10.0976L45.3898 11.723C45.3706 11.7343 45.3477 11.7399 45.3246 11.739C45.3014 11.7382 45.2792 11.7309 45.2611 11.7183C45.2411 11.7061 45.2258 11.6889 45.2173 11.6689C45.2088 11.649 45.2075 11.6272 45.2135 11.6066L46.0272 8.53775C46.0622 8.4077 46.0558 8.27178 46.0088 8.14464C45.9617 8.0175 45.8756 7.90398 45.76 7.81629L43.0451 5.75307C43.0266 5.73932 43.0132 5.72097 43.0069 5.70047C43.0006 5.67997 43.0015 5.65827 43.0096 5.63825C43.0157 5.61831 43.0289 5.60056 43.0473 5.58756C43.0657 5.57456 43.0883 5.56697 43.1119 5.56589L46.691 5.29639C46.8442 5.28501 46.9909 5.23732 47.1153 5.15849C47.2396 5.07965 47.3368 4.97267 47.3963 4.84914L48.7944 1.94649C48.8041 1.92847 48.8195 1.91324 48.8388 1.90257C48.8581 1.8919 48.8804 1.88623 48.9033 1.88623C48.9261 1.88623 48.9485 1.8919 48.9678 1.90257C48.9871 1.91324 49.0025 1.92847 49.0122 1.94649L50.4055 4.84914C50.4648 4.97237 50.5616 5.07915 50.6855 5.15797C50.8094 5.23679 50.9556 5.28465 51.1084 5.29639L54.6874 5.56589C54.7111 5.56697 54.7337 5.57456 54.7521 5.58756C54.7705 5.60056 54.7837 5.61831 54.7897 5.63825C54.7981 5.65806 54.7995 5.67963 54.7936 5.70012C54.7877 5.72061 54.7748 5.73907 54.7566 5.75307Z" fill="#F36823"/>
</svg>
