<svg width="78" height="16" viewBox="0 0 78 16" fill="none" xmlns="http://www.w3.org/2000/svg">
<path d="M7.28674 12.1826L10.8207 14.1746C11.4679 14.5397 12.2598 14 12.0895 13.3175L11.1528 9.57144L14.278 7.04763C14.8486 6.58732 14.542 5.7143 13.7926 5.65875L9.67961 5.33335L8.07017 1.79367C7.78064 1.15081 6.79283 1.15081 6.50331 1.79367L4.89386 5.32541L0.780842 5.65081C0.0314714 5.70636 -0.275089 6.57938 0.295454 7.0397L3.42067 9.56351L2.48396 13.3095C2.31364 13.9921 3.10559 14.5318 3.75278 14.1667L7.28674 12.1826Z" fill="#F36823"/>
<path d="M22.819 12.1826L26.3529 14.1746C27.0001 14.5397 27.7921 14 27.6217 13.3175L26.685 9.57144L29.8102 7.04763C30.3808 6.58732 30.0742 5.7143 29.3249 5.65875L25.2118 5.33335L23.6024 1.79367C23.3129 1.15081 22.3251 1.15081 22.0355 1.79367L20.4261 5.32541L16.3131 5.65081C15.5637 5.70636 15.2571 6.57938 15.8277 7.0397L18.9529 9.56351L18.0162 13.3095C17.8459 13.9921 18.6378 14.5318 19.285 14.1667L22.819 12.1826Z" fill="#F36823"/>
<path d="M38.3517 12.1826L41.8856 14.1746C42.5328 14.5397 43.3248 14 43.1545 13.3175L42.2177 9.57144L45.343 7.04763C45.9135 6.58732 45.6069 5.7143 44.8576 5.65875L40.7446 5.33335L39.1351 1.79367C38.8456 1.15081 37.8578 1.15081 37.5682 1.79367L35.9588 5.32541L31.8458 5.65081C31.0964 5.70636 30.7899 6.57938 31.3604 7.0397L34.4856 9.56351L33.5489 13.3095C33.3786 13.9921 34.1705 14.5318 34.8177 14.1667L38.3517 12.1826Z" fill="#F36823"/>
<path d="M53.9 12.1826L57.434 14.1746C58.0812 14.5397 58.8731 14 58.7028 13.3175L57.7661 9.57144L60.8913 7.04763C61.4618 6.58732 61.1553 5.7143 60.4059 5.65875L56.2929 5.33335L54.6835 1.79367C54.3939 1.15081 53.4061 1.15081 53.1166 1.79367L51.5071 5.32541L47.3941 5.65081C46.6448 5.70636 46.3382 6.57938 46.9087 7.0397L50.0339 9.56351L49.0972 13.3095C48.9269 13.9921 49.7189 14.5318 50.3661 14.1667L53.9 12.1826Z" fill="#F36823"/>
<path d="M76.746 6.11848C76.6906 5.95455 76.5839 5.80982 76.4395 5.7029C76.2952 5.59597 76.1198 5.53174 75.9359 5.51848L71.9485 5.19723C71.9244 5.19502 71.9014 5.18676 71.8819 5.17334C71.8624 5.15991 71.8472 5.14182 71.8379 5.12098L70.2801 1.66098C70.2079 1.50314 70.0876 1.36855 69.934 1.27394C69.7804 1.17934 69.6004 1.12891 69.4163 1.12891C69.2323 1.12891 69.0522 1.17934 68.8987 1.27394C68.7451 1.36855 68.6248 1.50314 68.5526 1.66098L66.9948 5.12098C66.9855 5.14182 66.9703 5.15991 66.9508 5.17334C66.9313 5.18676 66.9083 5.19502 66.8842 5.19723L62.8968 5.51848C62.7129 5.53174 62.5375 5.59597 62.3932 5.7029C62.2488 5.80982 62.1421 5.95455 62.0867 6.11848C62.028 6.28263 62.0229 6.45931 62.0719 6.62618C62.121 6.79305 62.222 6.94262 62.3623 7.05598L65.3874 9.51535C65.4059 9.53069 65.4197 9.55038 65.4272 9.57237C65.4348 9.59436 65.4358 9.61784 65.4303 9.64035L64.521 13.2972C64.4786 13.4656 64.4907 13.6419 64.5557 13.8039C64.6208 13.9658 64.7358 14.1062 64.8864 14.2072C65.0347 14.3092 65.2123 14.3674 65.3964 14.3743C65.5805 14.3812 65.7626 14.3365 65.9192 14.246L69.3466 12.3085C69.3667 12.2969 69.39 12.2907 69.4137 12.2907C69.4374 12.2907 69.4606 12.2969 69.4807 12.3085L72.9082 14.246C73.0664 14.3362 73.2497 14.3808 73.435 14.3741C73.6204 14.3673 73.7994 14.3095 73.9496 14.208C74.0997 14.1065 74.2143 13.9659 74.2787 13.8038C74.3432 13.6417 74.3547 13.4654 74.3117 13.2972L73.4051 9.6391C73.3995 9.61659 73.4006 9.59311 73.4082 9.57112C73.4157 9.54913 73.4295 9.52944 73.448 9.5141L76.4731 7.05473C76.6126 6.94117 76.713 6.79168 76.7615 6.62509C76.8101 6.45849 76.8047 6.28222 76.746 6.11848ZM75.9413 6.48848L72.9162 8.94785C72.7873 9.05238 72.6915 9.18771 72.639 9.33926C72.5865 9.4908 72.5794 9.65282 72.6185 9.80785L73.5251 13.466C73.5318 13.4906 73.5303 13.5165 73.5209 13.5402C73.5114 13.564 73.4944 13.5845 73.4721 13.5991C73.452 13.6142 73.4272 13.6228 73.4014 13.6238C73.3756 13.6248 73.3501 13.6181 73.3286 13.6047L69.9012 11.6672C69.7551 11.5844 69.5873 11.5407 69.4163 11.5407C69.2453 11.5407 69.0776 11.5844 68.9315 11.6672L65.5041 13.6047C65.4826 13.6181 65.4571 13.6248 65.4313 13.6238C65.4055 13.6228 65.3807 13.6142 65.3605 13.5991C65.3383 13.5845 65.3213 13.564 65.3118 13.5402C65.3023 13.5165 65.3009 13.4906 65.3076 13.466L66.2142 9.80785C66.2533 9.65282 66.2462 9.4908 66.1937 9.33926C66.1412 9.18771 66.0454 9.05238 65.9165 8.94785L62.8914 6.48848C62.8707 6.47208 62.8558 6.45021 62.8488 6.42577C62.8417 6.40133 62.8428 6.37547 62.8518 6.3516C62.8586 6.32784 62.8733 6.30668 62.8938 6.29119C62.9143 6.27569 62.9395 6.26664 62.9658 6.26535L66.9539 5.9441C67.1246 5.93055 67.2881 5.8737 67.4267 5.77972C67.5652 5.68575 67.6735 5.55823 67.7398 5.41098L69.2976 1.95098C69.3085 1.9295 69.3256 1.91135 69.3471 1.89863C69.3686 1.88591 69.3936 1.87915 69.419 1.87915C69.4445 1.87915 69.4694 1.88591 69.4909 1.89863C69.5124 1.91135 69.5296 1.9295 69.5404 1.95098L71.0928 5.41098C71.159 5.55787 71.2669 5.68516 71.4049 5.77911C71.5429 5.87306 71.7058 5.93011 71.8761 5.9441L75.8642 6.26535C75.8905 6.26664 75.9158 6.27569 75.9362 6.29119C75.9567 6.30668 75.9714 6.32784 75.9782 6.3516C75.9875 6.37522 75.989 6.40093 75.9824 6.42535C75.9759 6.44978 75.9615 6.47178 75.9413 6.48848Z" fill="#F36823"/>
<path d="M76.746 6.11848C76.6906 5.95455 76.5839 5.80982 76.4395 5.7029C76.2952 5.59597 76.1198 5.53174 75.9359 5.51848L71.9485 5.19723C71.9244 5.19502 71.9014 5.18676 71.8819 5.17334C71.8624 5.15991 71.8472 5.14182 71.8379 5.12098L70.2801 1.66098C70.2079 1.50314 70.0876 1.36855 69.934 1.27394C69.7804 1.17934 69.6004 1.12891 69.4163 1.12891C69.2323 1.12891 69.0522 1.17934 68.8987 1.27394C68.7451 1.36855 68.6248 1.50314 68.5526 1.66098L66.9948 5.12098C66.9855 5.14182 66.9703 5.15991 66.9508 5.17334C66.9313 5.18676 66.9083 5.19502 66.8842 5.19723L62.8968 5.51848C62.7129 5.53174 62.5375 5.59597 62.3932 5.7029C62.2488 5.80982 62.1421 5.95455 62.0867 6.11848C62.028 6.28263 62.0229 6.45931 62.0719 6.62618C62.121 6.79305 62.222 6.94262 62.3623 7.05598L65.3874 9.51535C65.4059 9.53069 65.4197 9.55038 65.4272 9.57237C65.4348 9.59436 65.4358 9.61784 65.4303 9.64035L64.521 13.2972C64.4786 13.4656 64.4907 13.6419 64.5557 13.8039C64.6208 13.9658 64.7358 14.1062 64.8864 14.2072C65.0347 14.3092 65.2123 14.3674 65.3964 14.3743C65.5805 14.3812 65.7626 14.3365 65.9192 14.246L69.3466 12.3085C69.3667 12.2969 69.39 12.2907 69.4137 12.2907C69.4374 12.2907 69.4606 12.2969 69.4807 12.3085L72.9082 14.246C73.0664 14.3362 73.2497 14.3808 73.435 14.3741C73.6204 14.3673 73.7994 14.3095 73.9496 14.208C74.0997 14.1065 74.2143 13.9659 74.2787 13.8038C74.3432 13.6417 74.3547 13.4654 74.3117 13.2972L73.4051 9.6391C73.3995 9.61659 73.4006 9.59311 73.4082 9.57112C73.4157 9.54913 73.4295 9.52944 73.448 9.5141L76.4731 7.05473C76.6126 6.94117 76.713 6.79168 76.7615 6.62509C76.8101 6.45849 76.8047 6.28222 76.746 6.11848ZM75.9413 6.48848L72.9162 8.94785C72.7873 9.05238 72.6915 9.18771 72.639 9.33926C72.5865 9.4908 72.5794 9.65282 72.6185 9.80785L73.5251 13.466C73.5318 13.4906 73.5303 13.5165 73.5209 13.5402C73.5114 13.564 73.4944 13.5845 73.4721 13.5991C73.452 13.6142 73.4272 13.6228 73.4014 13.6238C73.3756 13.6248 73.3501 13.6181 73.3286 13.6047L69.9012 11.6672C69.7551 11.5844 69.5873 11.5407 69.4163 11.5407C69.2453 11.5407 69.0776 11.5844 68.9315 11.6672L65.5041 13.6047C65.4826 13.6181 65.4571 13.6248 65.4313 13.6238C65.4055 13.6228 65.3807 13.6142 65.3605 13.5991C65.3383 13.5845 65.3213 13.564 65.3118 13.5402C65.3023 13.5165 65.3009 13.4906 65.3076 13.466L66.2142 9.80785C66.2533 9.65282 66.2462 9.4908 66.1937 9.33926C66.1412 9.18771 66.0454 9.05238 65.9165 8.94785L62.8914 6.48848C62.8707 6.47208 62.8558 6.45021 62.8488 6.42577C62.8417 6.40133 62.8428 6.37547 62.8518 6.3516C62.8586 6.32784 62.8733 6.30668 62.8938 6.29119C62.9143 6.27569 62.9395 6.26664 62.9658 6.26535L66.9539 5.9441C67.1246 5.93055 67.2881 5.8737 67.4267 5.77972C67.5652 5.68575 67.6735 5.55823 67.7398 5.41098L69.2976 1.95098C69.3085 1.9295 69.3256 1.91135 69.3471 1.89863C69.3686 1.88591 69.3936 1.87915 69.419 1.87915C69.4445 1.87915 69.4694 1.88591 69.4909 1.89863C69.5124 1.91135 69.5296 1.9295 69.5404 1.95098L71.0928 5.41098C71.159 5.55787 71.2669 5.68516 71.4049 5.77911C71.5429 5.87306 71.7058 5.93011 71.8761 5.9441L75.8642 6.26535C75.8905 6.26664 75.9158 6.27569 75.9362 6.29119C75.9567 6.30668 75.9714 6.32784 75.9782 6.3516C75.9875 6.37522 75.989 6.40093 75.9824 6.42535C75.9759 6.44978 75.9615 6.47178 75.9413 6.48848Z" fill="#F36823"/>
</svg>
