<svg width="25" height="25" viewBox="0 0 25 25" fill="none" xmlns="http://www.w3.org/2000/svg">
<path d="M12.4993 0.166016C14.1349 0.166016 15.7034 0.815716 16.8598 1.97219C18.0163 3.12866 18.666 4.69718 18.666 6.33268C18.666 7.96818 18.0163 9.5367 16.8598 10.6932C15.7034 11.8496 14.1349 12.4993 12.4993 12.4993C10.8638 12.4993 9.29533 11.8496 8.13886 10.6932C6.98238 9.5367 6.33268 7.96818 6.33268 6.33268C6.33268 4.69718 6.98238 3.12866 8.13886 1.97219C9.29533 0.815716 10.8638 0.166016 12.4993 0.166016ZM12.4993 15.5827C19.3135 15.5827 24.8327 18.3423 24.8327 21.7493V24.8327H0.166016V21.7493C0.166016 18.3423 5.68518 15.5827 12.4993 15.5827Z" fill="#949494"/>
</svg>
