<svg width="37" height="37" viewBox="0 0 37 37" fill="none" xmlns="http://www.w3.org/2000/svg">
<path d="M24.2812 2.3125C22.6563 2.31213 21.0538 2.6924 19.6022 3.42286C18.1506 4.15331 16.8903 5.21363 15.9223 6.51884C14.9543 7.82405 14.3055 9.33787 14.0279 10.939C13.7503 12.5401 13.8515 14.184 14.3236 15.7389L2.3125 27.75V34.6875H9.25L21.2611 22.6764C22.6924 23.1108 24.2006 23.2316 25.6828 23.0305C27.1651 22.8294 28.5865 22.3111 29.8503 21.5109C31.1141 20.7108 32.1906 19.6476 33.0063 18.3937C33.822 17.1399 34.3579 15.725 34.5773 14.2454C34.7968 12.7658 34.6946 11.2562 34.2779 9.81962C33.8612 8.38303 33.1397 7.05316 32.1625 5.92065C31.1853 4.78813 29.9755 3.87959 28.6154 3.25694C27.2554 2.63428 25.7771 2.31215 24.2812 2.3125ZM24.2812 20.8125C23.4852 20.8121 22.6935 20.6944 21.9318 20.4633L20.6055 20.0609L19.6262 21.0403L15.9482 24.7183L14.3537 23.125L12.7188 24.7599L14.3132 26.3544L12.4794 28.1882L10.8849 26.5938L9.25 28.2287L10.8445 29.8232L8.29262 32.375H4.625V28.7074L15.9586 17.3738L16.9391 16.3945L16.5367 15.0682C16.0425 13.4391 16.0746 11.6956 16.6284 10.0857C17.1823 8.47583 18.2297 7.0816 19.6216 6.10133C21.0135 5.12106 22.6791 4.60467 24.3815 4.62561C26.0838 4.64656 27.7362 5.20377 29.1036 6.21799C30.471 7.2322 31.4838 8.65178 31.9979 10.2748C32.5119 11.8978 32.5011 13.6416 31.967 15.2581C31.4329 16.8746 30.4026 18.2815 29.0227 19.2787C27.6429 20.2759 25.9837 20.8126 24.2812 20.8125Z" fill="#949494"/>
<path d="M25.4375 13.875C26.7147 13.875 27.75 12.8397 27.75 11.5625C27.75 10.2853 26.7147 9.25 25.4375 9.25C24.1603 9.25 23.125 10.2853 23.125 11.5625C23.125 12.8397 24.1603 13.875 25.4375 13.875Z" fill="#949494"/>
</svg>
