<svg width="21" height="21" viewBox="0 0 21 21" fill="none" xmlns="http://www.w3.org/2000/svg">
<path d="M19.4665 8.03087C19.3987 7.81572 19.2681 7.62576 19.0915 7.48542C18.9149 7.34508 18.7004 7.26078 18.4755 7.24337L13.5979 6.82173C13.5684 6.81883 13.5403 6.80799 13.5164 6.79037C13.4926 6.77275 13.474 6.749 13.4626 6.72165L11.557 2.1804C11.4687 1.97323 11.3215 1.79658 11.1337 1.67242C10.9458 1.54825 10.7256 1.48206 10.5004 1.48206C10.2753 1.48206 10.055 1.54825 9.86719 1.67242C9.67933 1.79658 9.53213 1.97323 9.44387 2.1804L7.53829 6.72165C7.52687 6.749 7.50826 6.77275 7.48443 6.79037C7.46059 6.80799 7.43243 6.81883 7.40294 6.82173L2.52536 7.24337C2.30047 7.26078 2.08593 7.34508 1.90933 7.48542C1.73274 7.62576 1.60217 7.81572 1.53442 8.03087C1.46267 8.24632 1.4564 8.47821 1.51641 8.69723C1.57642 8.91624 1.70002 9.11255 1.87157 9.26134L5.572 12.4893C5.59466 12.5094 5.61149 12.5352 5.62072 12.5641C5.62996 12.593 5.63126 12.6238 5.6245 12.6533L4.51216 17.453C4.4603 17.674 4.4751 17.9053 4.55467 18.1179C4.63424 18.3305 4.77502 18.5147 4.95923 18.6474C5.14058 18.7812 5.35788 18.8575 5.58306 18.8666C5.80825 18.8757 6.03099 18.817 6.22251 18.6982L10.4151 16.1552C10.4398 16.14 10.4682 16.1319 10.4972 16.1319C10.5261 16.1319 10.5545 16.14 10.5792 16.1552L14.7718 18.6982C14.9653 18.8167 15.1896 18.8752 15.4163 18.8663C15.643 18.8575 15.862 18.7816 16.0457 18.6484C16.2294 18.5152 16.3695 18.3306 16.4483 18.1178C16.5272 17.9051 16.5412 17.6737 16.4887 17.453L15.3797 12.6517C15.3729 12.6221 15.3742 12.5913 15.3834 12.5625C15.3927 12.5336 15.4095 12.5078 15.4322 12.4876L19.1326 9.2597C19.3033 9.11065 19.426 8.91445 19.4854 8.69579C19.5448 8.47713 19.5382 8.24578 19.4665 8.03087ZM18.4821 8.51649L14.7816 11.7444C14.624 11.8816 14.5067 12.0592 14.4425 12.2581C14.3784 12.457 14.3697 12.6697 14.4174 12.8732L15.5265 17.6745C15.5347 17.7067 15.5329 17.7407 15.5213 17.7719C15.5097 17.8031 15.4889 17.8301 15.4617 17.8492C15.437 17.8689 15.4067 17.8803 15.3751 17.8816C15.3436 17.883 15.3124 17.8742 15.2861 17.8566L11.0935 15.3136C10.9148 15.205 10.7096 15.1475 10.5004 15.1475C10.2913 15.1475 10.0861 15.205 9.90735 15.3136L5.71473 17.8566C5.6885 17.8742 5.65732 17.883 5.62575 17.8816C5.59418 17.8803 5.56385 17.8689 5.53919 17.8492C5.51194 17.8301 5.49114 17.8031 5.47957 17.7719C5.46799 17.7407 5.46619 17.7067 5.47438 17.6745L6.58345 12.8732C6.63119 12.6697 6.62251 12.457 6.55833 12.2581C6.49414 12.0592 6.3769 11.8816 6.21923 11.7444L2.5188 8.51649C2.49349 8.49497 2.47531 8.46627 2.46667 8.43419C2.45803 8.40211 2.45933 8.36817 2.4704 8.33684C2.47868 8.30565 2.49664 8.27789 2.5217 8.25755C2.54676 8.23721 2.57762 8.22534 2.60985 8.22364L7.48825 7.802C7.6971 7.78421 7.89709 7.7096 8.06656 7.58625C8.23603 7.46291 8.36852 7.29554 8.44966 7.10227L10.3552 2.56102C10.3685 2.53284 10.3895 2.50901 10.4158 2.49231C10.4421 2.47562 10.4726 2.46676 10.5037 2.46676C10.5349 2.46676 10.5654 2.47562 10.5917 2.49231C10.6179 2.50901 10.6389 2.53284 10.6522 2.56102L12.5512 7.10227C12.6321 7.29507 12.7641 7.46214 12.9329 7.58545C13.1018 7.70876 13.3011 7.78363 13.5093 7.802L18.3877 8.22364C18.42 8.22534 18.4508 8.23721 18.4759 8.25755C18.5009 8.27789 18.5189 8.30565 18.5272 8.33684C18.5386 8.36785 18.5405 8.40159 18.5324 8.43365C18.5244 8.4657 18.5068 8.49458 18.4821 8.51649Z" fill="#F36823"/>
</svg>
