<svg width="32" height="32" viewBox="0 0 32 32" fill="none" xmlns="http://www.w3.org/2000/svg">
<path d="M29.6713 12.2374C29.5685 11.9096 29.3703 11.6201 29.1022 11.4063C28.8341 11.1924 28.5085 11.064 28.1671 11.0374L20.7628 10.3949C20.718 10.3905 20.6753 10.374 20.6391 10.3472C20.6029 10.3203 20.5747 10.2841 20.5573 10.2424L17.6646 3.32244C17.5307 3.00676 17.3072 2.73758 17.022 2.54838C16.7369 2.35918 16.4026 2.2583 16.0607 2.2583C15.7189 2.2583 15.3846 2.35918 15.0995 2.54838C14.8143 2.73758 14.5908 3.00676 14.4569 3.32244L11.5641 10.2424C11.5468 10.2841 11.5186 10.3203 11.4824 10.3472C11.4462 10.374 11.4035 10.3905 11.3587 10.3949L3.95442 11.0374C3.61303 11.064 3.28735 11.1924 3.01928 11.4063C2.7512 11.6201 2.553 11.9096 2.45015 12.2374C2.34123 12.5658 2.33172 12.9191 2.42281 13.2528C2.51391 13.5866 2.70153 13.8857 2.96195 14.1124L8.57928 19.0312C8.61367 19.0619 8.63922 19.1012 8.65324 19.1452C8.66726 19.1892 8.66924 19.2362 8.65897 19.2812L6.97041 26.5949C6.8917 26.9317 6.91416 27.2843 7.03495 27.6082C7.15574 27.9321 7.36944 28.2129 7.64908 28.4149C7.92437 28.6188 8.25423 28.7352 8.59607 28.749C8.93791 28.7628 9.27603 28.6735 9.56676 28.4924L15.9312 24.6174C15.9686 24.5942 16.0118 24.5819 16.0558 24.5819C16.0998 24.5819 16.1429 24.5942 16.1803 24.6174L22.5448 28.4924C22.8385 28.673 23.179 28.7621 23.5231 28.7486C23.8673 28.7351 24.1998 28.6196 24.4786 28.4166C24.7574 28.2136 24.9701 27.9322 25.0898 27.608C25.2095 27.2838 25.2308 26.9313 25.1511 26.5949L23.4675 19.2787C23.4572 19.2337 23.4592 19.1867 23.4732 19.1427C23.4873 19.0987 23.5128 19.0594 23.5472 19.0287L29.1645 14.1099C29.4236 13.8828 29.61 13.5839 29.7001 13.2507C29.7903 12.9175 29.7803 12.5649 29.6713 12.2374ZM28.177 12.9774L22.5597 17.8962C22.3204 18.1052 22.1424 18.3759 22.045 18.679C21.9475 18.9821 21.9343 19.3061 22.0068 19.6162L23.6904 26.9324C23.7028 26.9816 23.7001 27.0334 23.6825 27.0809C23.665 27.1285 23.6334 27.1696 23.592 27.1987C23.5546 27.2288 23.5085 27.2461 23.4606 27.2481C23.4127 27.2502 23.3654 27.2368 23.3255 27.2099L16.9611 23.3349C16.6897 23.1694 16.3783 23.0818 16.0607 23.0818C15.7432 23.0818 15.4318 23.1694 15.1604 23.3349L8.79595 27.2099C8.75612 27.2368 8.7088 27.2502 8.66087 27.2481C8.61295 27.2461 8.56691 27.2288 8.52947 27.1987C8.4881 27.1696 8.45654 27.1285 8.43897 27.0809C8.4214 27.0334 8.41865 26.9816 8.43109 26.9324L10.1147 19.6162C10.1872 19.3061 10.174 18.9821 10.0765 18.679C9.97911 18.3759 9.80113 18.1052 9.56178 17.8962L3.94445 12.9774C3.90604 12.9446 3.87844 12.9009 3.86532 12.852C3.85221 12.8032 3.85418 12.7514 3.87099 12.7037C3.88356 12.6562 3.91083 12.6139 3.94887 12.5829C3.9869 12.5519 4.03375 12.5338 4.08268 12.5312L11.4882 11.8887C11.8052 11.8616 12.1088 11.7479 12.3661 11.5599C12.6233 11.372 12.8244 11.1169 12.9476 10.8224L15.8403 3.90244C15.8604 3.85949 15.8923 3.82318 15.9322 3.79774C15.9721 3.7723 16.0184 3.7588 16.0657 3.7588C16.113 3.7588 16.1593 3.7723 16.1992 3.79774C16.2391 3.82318 16.271 3.85949 16.2911 3.90244L19.1739 10.8224C19.2967 11.1162 19.497 11.3708 19.7533 11.5587C20.0096 11.7466 20.3122 11.8607 20.6283 11.8887L28.0338 12.5312C28.0828 12.5338 28.1296 12.5519 28.1676 12.5829C28.2057 12.6139 28.233 12.6562 28.2455 12.7037C28.2629 12.7509 28.2657 12.8024 28.2534 12.8512C28.2412 12.9 28.2146 12.944 28.177 12.9774Z" fill="#F36823"/>
</svg>
