<svg width="26" height="23" viewBox="0 0 26 23" fill="none" xmlns="http://www.w3.org/2000/svg">
<path d="M25.6743 3.49996C25.549 3.3684 25.3941 3.26288 25.2202 3.19051C25.0463 3.11815 24.8575 3.08061 24.6663 3.08044H6.24101L5.98101 1.66501C5.92925 1.38108 5.76873 1.12309 5.528 0.936945C5.28727 0.750801 4.98195 0.64857 4.66634 0.648438H1.66634C1.31272 0.648438 0.97358 0.776551 0.723532 1.0046C0.473484 1.23264 0.333008 1.54193 0.333008 1.86444C0.333008 2.18694 0.473484 2.49623 0.723532 2.72428C0.97358 2.95232 1.31272 3.08044 1.66634 3.08044H3.53701L6.01701 16.6559L6.07701 16.8066L6.14901 16.9903L6.30901 17.2079L6.43567 17.3441L6.69301 17.5022L6.84234 17.5812C6.99741 17.6403 7.16362 17.6713 7.33167 17.6724H21.9997C22.3533 17.6724 22.6924 17.5443 22.9425 17.3163C23.1925 17.0882 23.333 16.7789 23.333 16.4564C23.333 16.1339 23.1925 15.8246 22.9425 15.5966C22.6924 15.3685 22.3533 15.2404 21.9997 15.2404H8.46234L8.24101 14.0244H23.333C23.6539 14.0245 23.964 13.919 24.2064 13.7274C24.4489 13.5357 24.6074 13.2708 24.653 12.9811L25.9863 4.46911C26.0133 4.29662 25.9995 4.12085 25.9456 3.95366C25.8918 3.78647 25.7993 3.63176 25.6743 3.49996ZM23.129 5.51244L22.749 7.94444H17.9997V5.51244H23.129ZM16.6663 5.51244V7.94444H12.6663V5.51244H16.6663ZM16.6663 9.16044V11.5924H12.6663V9.16044H16.6663ZM11.333 5.51244V7.94444H7.33301L7.13567 7.98092L6.68501 5.51244H11.333ZM7.35167 9.16044H11.333V11.5924H7.79567L7.35167 9.16044ZM17.9997 11.5924V9.16044H22.557L22.177 11.5924H17.9997Z" fill="#F36823"/>
<path d="M21.333 22.5357C22.4376 22.5357 23.333 21.7191 23.333 20.7117C23.333 19.7043 22.4376 18.8877 21.333 18.8877C20.2284 18.8877 19.333 19.7043 19.333 20.7117C19.333 21.7191 20.2284 22.5357 21.333 22.5357Z" fill="#F36823"/>
<path d="M9.33301 22.5357C10.4376 22.5357 11.333 21.7191 11.333 20.7117C11.333 19.7043 10.4376 18.8877 9.33301 18.8877C8.22844 18.8877 7.33301 19.7043 7.33301 20.7117C7.33301 21.7191 8.22844 22.5357 9.33301 22.5357Z" fill="#F36823"/>
</svg>
