<svg width="24" height="28" viewBox="0 0 24 28" fill="none" xmlns="http://www.w3.org/2000/svg">
<path d="M17.1542 23.8438L21.2083 19.1L19.9833 17.6563L17.1542 20.9219L16.0167 19.5813L14.7917 21.0594L17.1542 23.8438ZM4 8.375H18V5.625H4V8.375ZM18 27.625C16.3861 27.625 15.0102 26.9545 13.8723 25.6134C12.7344 24.2723 12.1659 22.6512 12.1667 20.75C12.1667 18.8479 12.7356 17.2263 13.8735 15.8853C15.0114 14.5442 16.3869 13.8741 18 13.875C19.6139 13.875 20.9898 14.5455 22.1277 15.8866C23.2656 17.2277 23.8341 18.8488 23.8333 20.75C23.8333 22.6521 23.2644 24.2737 22.1265 25.6148C20.9886 26.9558 19.6131 27.6259 18 27.625ZM0.5 26.25V2.875C0.5 2.11875 0.728667 1.47113 1.186 0.932127C1.64333 0.393127 2.19244 0.124086 2.83333 0.125002H19.1667C19.8083 0.125002 20.3578 0.394502 20.8152 0.933502C21.2725 1.4725 21.5008 2.11967 21.5 2.875V12.0531C20.9556 11.7323 20.3866 11.4972 19.7932 11.3478C19.1997 11.1983 18.602 11.1241 18 11.125H4V13.875H12.2833C11.9528 14.2646 11.6467 14.6885 11.3652 15.1469C11.0836 15.6052 10.8355 16.0979 10.6208 16.625H4V19.375H9.92083C9.88194 19.6042 9.85744 19.8278 9.84733 20.046C9.83722 20.2642 9.83256 20.4988 9.83333 20.75C9.83333 21.7125 9.94533 22.6351 10.1693 23.5179C10.3933 24.4006 10.7286 25.2426 11.175 26.0438L11 26.25L9.25 24.1875L7.5 26.25L5.75 24.1875L4 26.25L2.25 24.1875L0.5 26.25Z" fill="#F36823"/>
</svg>
