<svg width="29" height="25" viewBox="0 0 29 25" fill="none" xmlns="http://www.w3.org/2000/svg">
<path d="M12.6878 23.75C6.34806 23.75 1.20866 18.7132 1.20866 12.5C1.20866 6.2868 6.34806 1.25 12.6878 1.25C19.0276 1.25 24.167 6.2868 24.167 12.5C24.167 18.7132 19.0276 23.75 12.6878 23.75Z" stroke="#F36823" stroke-width="2" stroke-linecap="round" stroke-linejoin="round"/>
<path d="M15.7085 8.9C14.9394 8.31938 13.9799 8.00173 12.9897 8C10.4873 8 8.4585 10.0137 8.4585 12.5C8.4585 14.9863 10.4873 17 12.9897 17C14.0096 17 14.9509 16.6647 15.7085 16.1" stroke="#F36823" stroke-width="2" stroke-linecap="round" stroke-linejoin="round"/>
<path d="M12.0835 1.25C17.3192 1.25 27.7918 2.375 27.7918 12.5C27.7918 22.625 17.3192 23.75 12.0835 23.75" stroke="#F36823" stroke-width="2"/>
</svg>
