<svg width="70" height="14" viewBox="0 0 70 14" fill="none" xmlns="http://www.w3.org/2000/svg">
<path d="M6.53941 10.6638L9.71093 12.335C10.2917 12.6413 11.0025 12.1885 10.8496 11.6159L10.009 8.47333L12.8137 6.35607C13.3257 5.9699 13.0506 5.23751 12.3781 5.19091L8.68687 4.91792L7.24249 1.94842C6.98266 1.40912 6.09616 1.40912 5.83633 1.94842L4.39195 4.91127L0.700759 5.18425C0.0282437 5.23085 -0.246876 5.96324 0.265152 6.34941L3.06984 8.46668L2.2292 11.6093C2.07636 12.1819 2.78708 12.6346 3.36789 12.3284L6.53941 10.6638Z" fill="#F36823"/>
<path d="M20.4784 10.6638L23.6499 12.335C24.2307 12.6413 24.9414 12.1885 24.7886 11.6159L23.9479 8.47333L26.7526 6.35607C27.2647 5.9699 26.9895 5.23751 26.317 5.19091L22.6258 4.91792L21.1815 1.94842C20.9216 1.40912 20.0351 1.40912 19.7753 1.94842L18.3309 4.91127L14.6397 5.18425C13.9672 5.23085 13.6921 5.96324 14.2041 6.34941L17.0088 8.46668L16.1682 11.6093C16.0153 12.1819 16.726 12.6346 17.3069 12.3284L20.4784 10.6638Z" fill="#F36823"/>
<path d="M68.8743 5.57646C68.8246 5.43894 68.7288 5.31752 68.5993 5.22782C68.4697 5.13812 68.3123 5.08424 68.1473 5.07311L64.5689 4.80361C64.5472 4.80176 64.5266 4.79483 64.5091 4.78357C64.4916 4.7723 64.478 4.75713 64.4696 4.73964L63.0715 1.83699C63.0068 1.70457 62.8988 1.59166 62.761 1.5123C62.6232 1.43294 62.4616 1.39062 62.2964 1.39062C62.1312 1.39062 61.9696 1.43294 61.8318 1.5123C61.694 1.59166 61.586 1.70457 61.5212 1.83699L60.1232 4.73964C60.1148 4.75713 60.1012 4.7723 60.0837 4.78357C60.0662 4.79483 60.0455 4.80176 60.0239 4.80361L56.4455 5.07311C56.2805 5.08424 56.1231 5.13812 55.9935 5.22782C55.864 5.31752 55.7682 5.43894 55.7185 5.57646C55.6658 5.71418 55.6612 5.86239 55.7052 6.00238C55.7493 6.14237 55.8399 6.26785 55.9658 6.36295L58.6806 8.42616C58.6973 8.43902 58.7096 8.45554 58.7164 8.47399C58.7232 8.49244 58.7241 8.51214 58.7192 8.53102L57.9031 11.5988C57.865 11.7401 57.8759 11.888 57.9343 12.0239C57.9926 12.1597 58.0959 12.2775 58.2311 12.3623C58.3641 12.4478 58.5235 12.4966 58.6888 12.5024C58.854 12.5082 59.0174 12.4707 59.1579 12.3948L62.2338 10.7694C62.2519 10.7596 62.2727 10.7544 62.294 10.7544C62.3153 10.7544 62.3361 10.7596 62.3542 10.7694L65.4301 12.3948C65.5721 12.4705 65.7366 12.5079 65.9029 12.5022C66.0693 12.4966 66.23 12.4481 66.3647 12.3629C66.4995 12.2778 66.6022 12.1598 66.6601 12.0238C66.7179 11.8878 66.7282 11.7399 66.6897 11.5988L65.876 8.52998C65.8711 8.51109 65.872 8.4914 65.8788 8.47295C65.8856 8.4545 65.8979 8.43798 65.9146 8.42511L68.6294 6.3619C68.7546 6.26663 68.8447 6.14123 68.8883 6.00147C68.9318 5.8617 68.927 5.71383 68.8743 5.57646ZM68.1521 5.88686L65.4373 7.95007C65.3216 8.03776 65.2356 8.15129 65.1885 8.27843C65.1414 8.40556 65.1351 8.54148 65.1701 8.67154L65.9838 11.7404C65.9898 11.761 65.9885 11.7828 65.98 11.8027C65.9715 11.8226 65.9562 11.8399 65.9362 11.8521C65.9181 11.8647 65.8959 11.872 65.8727 11.8728C65.8496 11.8737 65.8267 11.8681 65.8074 11.8568L62.7315 10.2314C62.6004 10.162 62.4499 10.1252 62.2964 10.1252C62.1429 10.1252 61.9924 10.162 61.8613 10.2314L58.7854 11.8568C58.7661 11.8681 58.7432 11.8737 58.7201 11.8728C58.6969 11.872 58.6747 11.8647 58.6566 11.8521C58.6366 11.8399 58.6213 11.8226 58.6128 11.8027C58.6043 11.7828 58.603 11.761 58.609 11.7404L59.4227 8.67154C59.4577 8.54148 59.4513 8.40556 59.4043 8.27843C59.3572 8.15129 59.2712 8.03776 59.1555 7.95007L56.4406 5.88686C56.4221 5.87311 56.4087 5.85476 56.4024 5.83426C56.3961 5.81375 56.397 5.79206 56.4051 5.77204C56.4112 5.7521 56.4244 5.73435 56.4428 5.72135C56.4612 5.70835 56.4838 5.70076 56.5074 5.69968L60.0865 5.43018C60.2397 5.4188 60.3864 5.37111 60.5108 5.29228C60.6351 5.21344 60.7323 5.10646 60.7918 4.98293L62.1899 2.08027C62.1996 2.06226 62.215 2.04703 62.2343 2.03636C62.2536 2.02569 62.276 2.02002 62.2988 2.02002C62.3217 2.02002 62.344 2.02569 62.3633 2.03636C62.3826 2.04703 62.398 2.06226 62.4077 2.08027L63.801 4.98293C63.8603 5.10616 63.9571 5.21294 64.081 5.29176C64.2049 5.37058 64.3511 5.41844 64.5039 5.43018L68.0829 5.69968C68.1066 5.70076 68.1292 5.70835 68.1476 5.72135C68.166 5.73435 68.1792 5.7521 68.1852 5.77204C68.1936 5.79185 68.195 5.81342 68.1891 5.83391C68.1832 5.8544 68.1703 5.87285 68.1521 5.88686Z" fill="#F36823"/>
<path d="M54.9207 5.57646C54.871 5.43894 54.7752 5.31752 54.6457 5.22782C54.5161 5.13812 54.3587 5.08424 54.1937 5.07311L50.6153 4.80361C50.5936 4.80176 50.573 4.79483 50.5555 4.78357C50.538 4.7723 50.5243 4.75713 50.516 4.73964L49.1179 1.83699C49.0532 1.70457 48.9452 1.59166 48.8074 1.5123C48.6695 1.43294 48.508 1.39062 48.3428 1.39062C48.1776 1.39062 48.016 1.43294 47.8782 1.5123C47.7404 1.59166 47.6324 1.70457 47.5676 1.83699L46.1696 4.73964C46.1612 4.75713 46.1476 4.7723 46.1301 4.78357C46.1126 4.79483 46.0919 4.80176 46.0703 4.80361L42.4918 5.07311C42.3269 5.08424 42.1695 5.13812 42.0399 5.22782C41.9103 5.31752 41.8145 5.43894 41.7648 5.57646C41.7122 5.71418 41.7076 5.86239 41.7516 6.00238C41.7957 6.14237 41.8863 6.26785 42.0122 6.36295L44.727 8.42616C44.7436 8.43902 44.756 8.45554 44.7628 8.47399C44.7695 8.49244 44.7705 8.51214 44.7655 8.53102L43.9495 11.5988C43.9114 11.7401 43.9223 11.888 43.9807 12.0239C44.039 12.1597 44.1423 12.2775 44.2775 12.3623C44.4105 12.4478 44.5699 12.4966 44.7351 12.5024C44.9004 12.5082 45.0638 12.4707 45.2043 12.3948L48.2802 10.7694C48.2983 10.7596 48.3191 10.7544 48.3404 10.7544C48.3616 10.7544 48.3825 10.7596 48.4006 10.7694L51.4765 12.3948C51.6185 12.4705 51.783 12.5079 51.9493 12.5022C52.1157 12.4966 52.2763 12.4481 52.4111 12.3629C52.5458 12.2778 52.6486 12.1598 52.7065 12.0238C52.7643 11.8878 52.7746 11.7399 52.7361 11.5988L51.9224 8.52998C51.9175 8.51109 51.9184 8.4914 51.9252 8.47295C51.932 8.4545 51.9443 8.43798 51.961 8.42511L54.6758 6.3619C54.801 6.26663 54.8911 6.14123 54.9346 6.00147C54.9782 5.8617 54.9734 5.71383 54.9207 5.57646ZM54.1985 5.88686L51.4837 7.95007C51.368 8.03776 51.282 8.15129 51.2349 8.27843C51.1878 8.40556 51.1815 8.54148 51.2165 8.67154L52.0302 11.7404C52.0362 11.761 52.0348 11.7828 52.0264 11.8027C52.0179 11.8226 52.0026 11.8399 51.9826 11.8521C51.9645 11.8647 51.9423 11.872 51.9191 11.8728C51.8959 11.8737 51.8731 11.8681 51.8538 11.8568L48.7779 10.2314C48.6468 10.162 48.4962 10.1252 48.3428 10.1252C48.1893 10.1252 48.0388 10.162 47.9077 10.2314L44.8317 11.8568C44.8125 11.8681 44.7896 11.8737 44.7665 11.8728C44.7433 11.872 44.721 11.8647 44.703 11.8521C44.683 11.8399 44.6677 11.8226 44.6592 11.8027C44.6507 11.7828 44.6494 11.761 44.6554 11.7404L45.4691 8.67154C45.5041 8.54148 45.4977 8.40556 45.4506 8.27843C45.4036 8.15129 45.3175 8.03776 45.2019 7.95007L42.487 5.88686C42.4685 5.87311 42.4551 5.85476 42.4488 5.83426C42.4425 5.81375 42.4434 5.79206 42.4515 5.77204C42.4576 5.7521 42.4708 5.73435 42.4892 5.72135C42.5075 5.70835 42.5302 5.70076 42.5538 5.69968L46.1329 5.43018C46.2861 5.4188 46.4328 5.37111 46.5572 5.29228C46.6815 5.21344 46.7787 5.10646 46.8382 4.98293L48.2363 2.08027C48.246 2.06226 48.2614 2.04703 48.2807 2.03636C48.3 2.02569 48.3223 2.02002 48.3452 2.02002C48.368 2.02002 48.3904 2.02569 48.4097 2.03636C48.429 2.04703 48.4444 2.06226 48.4541 2.08027L49.8473 4.98293C49.9067 5.10616 50.0035 5.21294 50.1274 5.29176C50.2513 5.37058 50.3975 5.41844 50.5503 5.43018L54.1293 5.69968C54.153 5.70076 54.1756 5.70835 54.194 5.72135C54.2124 5.73435 54.2256 5.7521 54.2316 5.77204C54.24 5.79185 54.2414 5.81342 54.2355 5.83391C54.2296 5.8544 54.2167 5.87285 54.1985 5.88686Z" fill="#F36823"/>
<path d="M40.9671 5.57646C40.9174 5.43894 40.8216 5.31752 40.6921 5.22782C40.5625 5.13812 40.4051 5.08424 40.2401 5.07311L36.6617 4.80361C36.64 4.80176 36.6194 4.79483 36.6019 4.78357C36.5844 4.7723 36.5707 4.75713 36.5624 4.73964L35.1643 1.83699C35.0996 1.70457 34.9916 1.59166 34.8538 1.5123C34.7159 1.43294 34.5544 1.39062 34.3892 1.39062C34.224 1.39062 34.0624 1.43294 33.9246 1.5123C33.7868 1.59166 33.6788 1.70457 33.614 1.83699L32.216 4.73964C32.2076 4.75713 32.194 4.7723 32.1765 4.78357C32.159 4.79483 32.1383 4.80176 32.1167 4.80361L28.5382 5.07311C28.3732 5.08424 28.2158 5.13812 28.0863 5.22782C27.9567 5.31752 27.8609 5.43894 27.8112 5.57646C27.7586 5.71418 27.754 5.86239 27.798 6.00238C27.842 6.14237 27.9327 6.26785 28.0586 6.36295L30.7734 8.42616C30.79 8.43902 30.8024 8.45554 30.8092 8.47399C30.8159 8.49244 30.8169 8.51214 30.8119 8.53102L29.9959 11.5988C29.9578 11.7401 29.9687 11.888 30.027 12.0239C30.0854 12.1597 30.1887 12.2775 30.3238 12.3623C30.4569 12.4478 30.6163 12.4966 30.7815 12.5024C30.9467 12.5082 31.1101 12.4707 31.2507 12.3948L34.3266 10.7694C34.3447 10.7596 34.3655 10.7544 34.3868 10.7544C34.408 10.7544 34.4289 10.7596 34.4469 10.7694L37.5229 12.3948C37.6648 12.4705 37.8294 12.5079 37.9957 12.5022C38.162 12.4966 38.3227 12.4481 38.4575 12.3629C38.5922 12.2778 38.695 12.1598 38.7529 12.0238C38.8107 11.8878 38.821 11.7399 38.7825 11.5988L37.9688 8.52998C37.9639 8.51109 37.9648 8.4914 37.9716 8.47295C37.9784 8.4545 37.9907 8.43798 38.0073 8.42511L40.7222 6.3619C40.8474 6.26663 40.9374 6.14123 40.981 6.00147C41.0246 5.8617 41.0198 5.71383 40.9671 5.57646ZM40.2449 5.88686L37.5301 7.95007C37.4144 8.03776 37.3284 8.15129 37.2813 8.27843C37.2342 8.40556 37.2279 8.54148 37.2629 8.67154L38.0765 11.7404C38.0826 11.761 38.0812 11.7828 38.0727 11.8027C38.0643 11.8226 38.049 11.8399 38.029 11.8521C38.0109 11.8647 37.9887 11.872 37.9655 11.8728C37.9423 11.8737 37.9195 11.8681 37.9002 11.8568L34.8243 10.2314C34.6931 10.162 34.5426 10.1252 34.3892 10.1252C34.2357 10.1252 34.0852 10.162 33.9541 10.2314L30.8781 11.8568C30.8589 11.8681 30.836 11.8737 30.8128 11.8728C30.7897 11.872 30.7674 11.8647 30.7493 11.8521C30.7293 11.8399 30.7141 11.8226 30.7056 11.8027C30.6971 11.7828 30.6958 11.761 30.7018 11.7404L31.5155 8.67154C31.5505 8.54148 31.5441 8.40556 31.497 8.27843C31.4499 8.15129 31.3639 8.03776 31.2482 7.95007L28.5334 5.88686C28.5149 5.87311 28.5015 5.85476 28.4952 5.83426C28.4888 5.81375 28.4898 5.79206 28.4979 5.77204C28.504 5.7521 28.5172 5.73435 28.5356 5.72135C28.5539 5.70835 28.5766 5.70076 28.6002 5.69968L32.1793 5.43018C32.3325 5.4188 32.4792 5.37111 32.6036 5.29228C32.7279 5.21344 32.8251 5.10646 32.8846 4.98293L34.2826 2.08027C34.2924 2.06226 34.3078 2.04703 34.3271 2.03636C34.3464 2.02569 34.3687 2.02002 34.3916 2.02002C34.4144 2.02002 34.4368 2.02569 34.4561 2.03636C34.4754 2.04703 34.4908 2.06226 34.5005 2.08027L35.8937 4.98293C35.9531 5.10616 36.0499 5.21294 36.1738 5.29176C36.2976 5.37058 36.4439 5.41844 36.5967 5.43018L40.1757 5.69968C40.1994 5.70076 40.222 5.70835 40.2404 5.72135C40.2588 5.73435 40.2719 5.7521 40.278 5.77204C40.2864 5.79185 40.2878 5.81342 40.2818 5.83391C40.2759 5.8544 40.2631 5.87285 40.2449 5.88686Z" fill="#F36823"/>
</svg>
