<svg width="69" height="12" viewBox="0 0 69 12" fill="none" xmlns="http://www.w3.org/2000/svg">
<path d="M6.53941 9.2615L9.71093 10.9327C10.2917 11.2389 11.0025 10.7862 10.8496 10.2136L10.009 7.07099L12.8137 4.95372C13.3257 4.56756 13.0506 3.83517 12.3781 3.78856L8.68687 3.51558L7.24249 0.54608C6.98266 0.00677559 6.09616 0.00677559 5.83633 0.54608L4.39195 3.50892L0.700759 3.7819C0.0282437 3.82851 -0.246876 4.5609 0.265152 4.94707L3.06984 7.06433L2.2292 10.2069C2.07636 10.7795 2.78708 11.2323 3.36789 10.926L6.53941 9.2615Z" fill="#F36823"/>
<path d="M20.4784 9.2615L23.6499 10.9327C24.2307 11.2389 24.9414 10.7862 24.7886 10.2136L23.9479 7.07099L26.7526 4.95372C27.2647 4.56756 26.9895 3.83517 26.317 3.78856L22.6258 3.51558L21.1815 0.54608C20.9216 0.00677559 20.0351 0.00677559 19.7753 0.54608L18.3309 3.50892L14.6397 3.7819C13.9672 3.82851 13.6921 4.5609 14.2041 4.94707L17.0088 7.06433L16.1682 10.2069C16.0153 10.7795 16.726 11.2323 17.3069 10.926L20.4784 9.2615Z" fill="#F36823"/>
<path d="M34.4178 9.2615L37.5893 10.9327C38.1702 11.2389 38.8809 10.7862 38.728 10.2136L37.8874 7.07099L40.6921 4.95372C41.2041 4.56756 40.929 3.83517 40.2565 3.78856L36.5653 3.51558L35.1209 0.54608C34.8611 0.00677559 33.9746 0.00677559 33.7147 0.54608L32.2704 3.50892L28.5792 3.7819C27.9067 3.82851 27.6315 4.5609 28.1436 4.94707L30.9483 7.06433L30.1076 10.2069C29.9548 10.7795 30.6655 11.2323 31.2463 10.926L34.4178 9.2615Z" fill="#F36823"/>
<path d="M48.3573 9.2615L51.5288 10.9327C52.1096 11.2389 52.8203 10.7862 52.6675 10.2136L51.8268 7.07099L54.6315 4.95372C55.1436 4.56756 54.8684 3.83517 54.1959 3.78856L50.5047 3.51558L49.0604 0.54608C48.8005 0.00677559 47.914 0.00677559 47.6542 0.54608L46.2098 3.50892L42.5186 3.7819C41.8461 3.82851 41.571 4.5609 42.083 4.94707L44.8877 7.06433L44.0471 10.2069C43.8942 10.7795 44.605 11.2323 45.1858 10.926L48.3573 9.2615Z" fill="#F36823"/>
<path d="M62.3553 9.1199L65.5268 10.7911C66.1077 11.0973 66.8184 10.6446 66.6655 10.072L65.8249 6.92939L68.6296 4.81212C69.1416 4.42595 68.8665 3.69357 68.194 3.64696L64.5028 3.37398L63.0584 0.404478C62.7986 -0.134826 61.9121 -0.134826 61.6522 0.404478L60.2079 3.36732L56.5167 3.6403C55.8442 3.68691 55.569 4.4193 56.0811 4.80546L58.8858 6.92273L58.0451 10.0653C57.8923 10.6379 58.603 11.0907 59.1838 10.7844L62.3553 9.1199Z" fill="#F36823"/>
</svg>
