<svg width="34" height="25" viewBox="0 0 34 25" fill="none" xmlns="http://www.w3.org/2000/svg">
<path d="M1.88889 24.3559H32.1111C33.15 24.3559 34 23.4425 34 22.3262C34 21.2099 33.15 20.2966 32.1111 20.2966H1.88889C0.85 20.2966 0 21.2099 0 22.3262C0 23.4425 0.85 24.3559 1.88889 24.3559ZM1.88889 14.2076H32.1111C33.15 14.2076 34 13.2942 34 12.1779C34 11.0616 33.15 10.1483 32.1111 10.1483H1.88889C0.85 10.1483 0 11.0616 0 12.1779C0 13.2942 0.85 14.2076 1.88889 14.2076ZM0 2.02966C0 3.14597 0.85 4.05931 1.88889 4.05931H32.1111C33.15 4.05931 34 3.14597 34 2.02966C34 0.913345 33.15 0 32.1111 0H1.88889C0.85 0 0 0.913345 0 2.02966Z" fill="#F36823"/>
</svg>
