<svg width="39" height="40" viewBox="0 0 39 40" fill="none" xmlns="http://www.w3.org/2000/svg">
<path d="M25.1875 23.3333H23.9038L23.4488 22.8833C25.0963 20.9234 26.0018 18.4212 26 15.8333C26 13.6907 25.3805 11.5962 24.2199 9.81466C23.0593 8.03313 21.4096 6.64459 19.4796 5.82464C17.5496 5.00469 15.4258 4.79016 13.3769 5.20816C11.3279 5.62617 9.44588 6.65795 7.96869 8.17301C6.4915 9.68808 5.48552 11.6184 5.07796 13.7199C4.6704 15.8213 4.87958 17.9995 5.67903 19.9791C6.47848 21.9586 7.8323 23.6505 9.56929 24.8409C11.3063 26.0313 13.3484 26.6667 15.4375 26.6667C18.0538 26.6667 20.4588 25.6833 22.3113 24.05L22.75 24.5167V25.8333L30.875 34.15L33.2963 31.6667L25.1875 23.3333ZM15.4375 23.3333C11.3913 23.3333 8.12501 19.9833 8.12501 15.8333C8.12501 11.6833 11.3913 8.33334 15.4375 8.33334C19.4838 8.33334 22.75 11.6833 22.75 15.8333C22.75 19.9833 19.4838 23.3333 15.4375 23.3333Z" fill="white"/>
</svg>
